<svg width="283" height="309" viewBox="0 0 283 309" fill="none" xmlns="http://www.w3.org/2000/svg">
<g clip-path="url(#clip0_999_1273)">
<path d="M195.095 48.8224V283.749C195.095 290.201 189.868 295.422 183.426 295.422H81.9474C75.4979 295.422 70.2778 290.193 70.2778 283.749V48.8154C70.2778 42.3709 75.4979 37.1492 81.9404 37.1492H125.499L125.535 37.2827C126.623 41.1902 129.118 43.7343 131.893 43.7343H133.481C136.256 43.7343 138.75 41.1902 139.839 37.2827L139.881 37.1492H183.426C189.875 37.1492 195.095 42.3779 195.095 48.8224Z" fill="white" stroke="#1A2E35" stroke-linecap="round" stroke-linejoin="round"/>
<path d="M196.219 44.6267H70.9521V282.378H196.219V44.6267Z" fill="#E7F6FF"/>
<path d="M196.219 44.6267H70.9521V90.898H196.219V44.6267Z" fill="#0273FF"/>
<path d="M196.297 43.9028H70.8472V54.3111H196.297V43.9028Z" fill="#0267D1"/>
<path d="M196.276 247.97H69.5894V278.745H196.276V247.97Z" fill="#0273FF"/>
<path d="M117.589 255.785C115.404 255.785 113.633 257.563 113.633 259.742C113.633 261.92 115.411 263.699 117.589 263.699C119.767 263.699 121.544 261.92 121.544 259.742C121.544 257.563 119.767 255.785 117.589 255.785ZM117.055 259.25L118.256 259.454C118.79 259.545 119.169 259.995 119.169 260.536C119.169 261.19 118.636 261.724 117.982 261.724V262.117H117.188V261.724C116.535 261.724 116.001 261.19 116.001 260.536H116.795C116.795 260.754 116.97 260.93 117.188 260.93H117.982C118.2 260.93 118.376 260.754 118.376 260.536C118.376 260.388 118.27 260.262 118.123 260.234L116.921 260.03C116.387 259.939 116.008 259.489 116.008 258.948C116.008 258.294 116.542 257.76 117.195 257.76V257.366H117.989V257.76C118.643 257.76 119.176 258.294 119.176 258.948H118.383C118.383 258.73 118.207 258.554 117.989 258.554H117.195C116.977 258.554 116.802 258.73 116.802 258.948C116.802 259.095 116.907 259.222 117.055 259.25ZM122.338 263.895C122.338 264.661 121.72 265.28 120.954 265.28H114.223C113.458 265.28 112.839 264.661 112.839 263.895C112.839 263.284 113.24 262.771 113.795 262.588C114.659 263.741 116.036 264.493 117.589 264.493C119.141 264.493 120.518 263.741 121.383 262.588C121.938 262.771 122.338 263.284 122.338 263.895Z" fill="white"/>
<path d="M134.998 258.526V263.952C134.998 265.02 135.869 265.891 136.937 265.891H142.361C143.429 265.891 144.3 265.02 144.3 263.952V258.526C144.3 257.458 143.429 256.586 142.361 256.586H136.937C135.869 256.586 134.998 257.458 134.998 258.526ZM136.937 263.565V261.239C136.937 261.028 137.113 260.852 137.324 260.852C137.534 260.852 137.71 261.028 137.71 261.239V263.565C137.71 263.776 137.534 263.952 137.324 263.952C137.113 263.952 136.937 263.776 136.937 263.565ZM138.49 263.565V260.079C138.49 259.868 138.665 259.693 138.876 259.693C139.087 259.693 139.263 259.868 139.263 260.079V263.565C139.263 263.776 139.087 263.952 138.876 263.952C138.665 263.952 138.49 263.776 138.49 263.565ZM142.361 262.405V263.565C142.361 263.776 142.185 263.952 141.975 263.952C141.764 263.952 141.588 263.776 141.588 263.565V262.405C141.588 262.195 141.764 262.019 141.975 262.019C142.185 262.019 142.361 262.195 142.361 262.405ZM140.808 258.92V263.572C140.808 263.783 140.633 263.959 140.422 263.959C140.211 263.959 140.035 263.783 140.035 263.572V258.92C140.035 258.709 140.211 258.533 140.422 258.533C140.633 258.533 140.808 258.709 140.808 258.92Z" fill="white"/>
<path d="M165.321 260.852H164.548V260.079C164.548 259.868 164.372 259.693 164.161 259.693C163.951 259.693 163.775 259.868 163.775 260.079V260.852H163.002C162.791 260.852 162.616 261.028 162.616 261.239C162.616 261.45 162.791 261.625 163.002 261.625H163.775V262.398C163.775 262.609 163.951 262.785 164.161 262.785C164.372 262.785 164.548 262.609 164.548 262.398V261.625H165.321C165.531 261.625 165.707 261.45 165.707 261.239C165.707 261.028 165.531 260.852 165.321 260.852Z" fill="white"/>
<path d="M159.897 261.246C161.181 261.246 162.222 260.204 162.222 258.919C162.222 257.635 161.181 256.593 159.897 256.593C158.612 256.593 157.571 257.635 157.571 258.919C157.571 260.204 158.612 261.246 159.897 261.246Z" fill="white"/>
<path d="M159.897 262.019C157.972 262.019 156.412 263.579 156.412 265.505C156.412 265.715 156.588 265.891 156.799 265.891H162.995C163.206 265.891 163.382 265.715 163.382 265.505C163.382 263.579 161.822 262.019 159.897 262.019Z" fill="white"/>
<path d="M175.641 262.012C176.068 262.012 176.414 261.666 176.414 261.239C176.414 260.812 176.068 260.466 175.641 260.466C175.215 260.466 174.869 260.812 174.869 261.239C174.869 261.666 175.215 262.012 175.641 262.012Z" fill="white"/>
<path d="M179.513 262.012C179.939 262.012 180.285 261.666 180.285 261.239C180.285 260.812 179.939 260.466 179.513 260.466C179.086 260.466 178.74 260.812 178.74 261.239C178.74 261.666 179.086 262.012 179.513 262.012Z" fill="white"/>
<path d="M183.391 262.012C183.818 262.012 184.164 261.666 184.164 261.239C184.164 260.812 183.818 260.466 183.391 260.466C182.964 260.466 182.618 260.812 182.618 261.239C182.618 261.666 182.964 262.012 183.391 262.012Z" fill="white"/>
<path d="M95.0221 257.985L92.261 256.122C91.5935 255.673 90.7294 255.673 90.0549 256.122L87.3009 257.985C86.7599 258.35 86.4297 258.962 86.4297 259.615V263.27C86.4297 264.359 87.3149 265.238 88.3969 265.238H89.4577V261.358C89.4577 260.965 89.7739 260.648 90.1673 260.648H92.1415C92.535 260.648 92.8511 260.965 92.8511 261.358V265.238H93.912C95.001 265.238 95.8792 264.352 95.8792 263.27V259.615C95.8792 258.962 95.556 258.35 95.008 257.985H95.0221Z" fill="white"/>
<path d="M195.095 55.4707V48.8224C195.095 42.3709 189.868 37.1492 183.426 37.1492H139.881L139.839 37.2827C138.75 41.1902 136.256 43.7343 133.481 43.7343H131.893C129.118 43.7343 126.624 41.1902 125.535 37.2827L125.499 37.1492H81.9404C75.4979 37.1492 70.2778 42.3709 70.2778 48.8154V55.4707H195.102H195.095Z" fill="#1A2E35" stroke="#1A2E35" stroke-miterlimit="10"/>
<path d="M70.2705 277.473V283.749C70.2705 290.201 75.4976 295.422 81.9401 295.422H183.419C189.868 295.422 195.088 290.194 195.088 283.749V277.473H70.2705Z" fill="#1A2E35" stroke="#1A2E35" stroke-miterlimit="10"/>
<path d="M203.034 104.933V81.4667H200.913V51.4297C200.913 41.2042 192.622 32.9114 182.4 32.9114H82.973C72.7507 32.9114 64.4604 41.2042 64.4604 51.4297V290.137C64.4604 300.363 72.7507 308.656 82.973 308.656H182.4C192.622 308.656 200.913 300.363 200.913 290.137V124.934H203.034V111.068H200.913V104.933H203.034ZM195.095 276.904C195.095 287.136 186.805 295.422 176.583 295.422H88.7903C78.5679 295.422 70.2777 287.136 70.2777 276.904V55.6605C70.2777 45.435 78.5679 37.1492 88.7903 37.1492H125.499L125.534 37.2827C126.623 41.1902 129.117 43.7342 131.893 43.7342H133.48C136.256 43.7342 138.75 41.1902 139.839 37.2827L139.881 37.1492H176.583C186.805 37.1492 195.095 45.435 195.095 55.6605V276.904Z" fill="#CCCCCC" stroke="#1A2E35" stroke-miterlimit="10"/>
<path d="M180.918 35.4624H84.4557C74.5987 35.4624 66.6035 43.4601 66.6035 53.3201V288.24C66.6035 298.1 74.5987 306.097 84.4557 306.097H180.918C190.775 306.097 198.77 298.1 198.77 288.24V53.3201C198.77 43.4601 190.775 35.4624 180.918 35.4624ZM195.096 277.564C195.096 287.432 187.1 295.422 177.243 295.422H88.1301C78.2661 295.422 70.2779 287.424 70.2779 277.564V54.9998C70.2779 45.1397 78.2661 37.1491 88.1231 37.1491H125.5L125.535 37.2826C126.624 41.1901 129.118 43.7342 131.893 43.7342H133.481C136.256 43.7342 138.75 41.1901 139.839 37.2826L139.881 37.1491H177.243C187.107 37.1491 195.096 45.1468 195.096 55.0068V277.564Z" fill="#1A2E35" stroke="#1A2E35" stroke-linecap="round" stroke-linejoin="round"/>
<path d="M134.042 38.0347C134.042 37.0719 133.263 36.2988 132.307 36.2988C131.352 36.2988 130.572 37.0789 130.572 38.0347C130.572 38.9905 131.352 39.7706 132.307 39.7706C133.263 39.7706 134.042 38.9905 134.042 38.0347Z" fill="white"/>
<path d="M81.3711 44.697C81.3711 46.454 79.3969 47.0865 79.3898 48.4288V48.5202H81.3078V49.1105H78.7505V48.6115C78.7505 46.7281 80.7247 46.3626 80.7247 44.7181C80.7247 44.1208 80.521 43.8045 80.0432 43.8045C79.5655 43.8045 79.3617 44.1489 79.3617 44.6619V45.182H78.7505V44.7041C78.7505 43.8115 79.158 43.2212 80.0573 43.2212C80.9565 43.2212 81.3711 43.8045 81.3711 44.697Z" fill="white"/>
<path d="M84.5605 44.683V44.8306C84.5605 45.4279 84.3216 45.8566 83.8509 46.0323C84.3427 46.2151 84.5605 46.6578 84.5605 47.2411V47.6909C84.5605 48.5834 84.146 49.1667 83.2467 49.1667C82.3474 49.1667 81.9399 48.5834 81.9399 47.6909V47.2903H82.5512V47.7331C82.5512 48.2602 82.769 48.5764 83.2327 48.5764C83.6964 48.5764 83.9142 48.2672 83.9142 47.6768V47.2271C83.9142 46.6508 83.6753 46.3767 83.1835 46.3626H82.8322V45.7793H83.2186C83.6542 45.7653 83.9212 45.4912 83.9212 44.9782V44.7111C83.9212 44.1137 83.7104 43.8045 83.2397 43.8045C82.769 43.8045 82.5582 44.1278 82.5582 44.6549V44.9571H81.947V44.69C81.947 43.7975 82.3615 43.2212 83.2537 43.2212C84.146 43.2212 84.5675 43.7975 84.5675 44.69L84.5605 44.683Z" fill="white"/>
<path d="M85.8182 45.1257V45.9339H85.1929V45.1257H85.8182ZM85.8182 48.3023V49.1105H85.1929V48.3023H85.8182Z" fill="white"/>
<path d="M87.1393 45.6528C87.322 45.3365 87.6171 45.1678 88.0035 45.1678C88.7552 45.1678 89.0854 45.716 89.0854 46.5523V47.6908C89.0854 48.5834 88.6639 49.1667 87.7716 49.1667C86.8794 49.1667 86.4648 48.5834 86.4648 47.6908V47.2973H87.0761V47.733C87.0761 48.2601 87.2939 48.5763 87.7576 48.5763C88.2213 48.5763 88.439 48.2601 88.439 47.733V46.6015C88.439 46.0744 88.2213 45.7582 87.7576 45.7582C87.3993 45.7582 87.1604 45.9549 87.0972 46.3836V46.5172H86.4859L86.6475 43.2773H88.9449V43.8607H87.2306L87.1393 45.6528Z" fill="white"/>
<path d="M92.3312 44.676V44.7814H91.7199V44.6338C91.7199 44.1067 91.5022 43.7975 91.0314 43.7975C90.5607 43.7975 90.3218 44.1137 90.3218 44.7392V46.0464C90.4834 45.6458 90.7996 45.4209 91.2633 45.4209C92.015 45.4209 92.3452 45.962 92.3452 46.8054V47.6909C92.3452 48.5834 91.9026 49.1667 91.0104 49.1667C90.1181 49.1667 89.6685 48.5834 89.6685 47.6909V44.7181C89.6685 43.7904 90.083 43.2212 91.0104 43.2212C91.9377 43.2212 92.3242 43.7904 92.3242 44.683L92.3312 44.676ZM90.3218 46.8616V47.7331C90.3218 48.2602 90.5396 48.5764 91.0104 48.5764C91.4811 48.5764 91.6989 48.2602 91.6989 47.7331V46.8616C91.6989 46.3345 91.474 46.0183 91.0104 46.0183C90.5467 46.0183 90.3218 46.3345 90.3218 46.8616Z" fill="white"/>
<path d="M155.998 44.936H154.354V49.0544H155.998V44.936Z" fill="white"/>
<path d="M158.197 44.1067H156.553V49.0473H158.197V44.1067Z" fill="white"/>
<path d="M160.389 43.5234H158.745V49.0543H160.389V43.5234Z" fill="white"/>
<path d="M162.587 42.5044H160.943V49.0543H162.587V42.5044Z" fill="white"/>
<path d="M182.969 48.9419H173.091V42.905H182.969V48.9419ZM173.639 48.3938H182.421V43.4532H173.639V48.3938Z" fill="white"/>
<path d="M179.674 44.0435H174.461V47.7893H179.674V44.0435Z" fill="white"/>
<path d="M183.868 45.2102H182.625V46.6298H183.868V45.2102Z" fill="white"/>
<path d="M169.466 47.6276C169.402 47.6276 169.339 47.6135 169.276 47.5784C167.267 46.3836 165.939 47.494 165.883 47.5362C165.728 47.6697 165.496 47.6557 165.363 47.5011C165.229 47.3465 165.243 47.1145 165.398 46.981C165.468 46.9178 167.168 45.463 169.655 46.9388C169.831 47.0443 169.887 47.2692 169.782 47.4448C169.712 47.5643 169.592 47.6276 169.466 47.6276Z" fill="white"/>
<path d="M170.211 46.3838C170.147 46.3838 170.084 46.3698 170.021 46.3346C167.112 44.6058 165.159 46.2784 165.138 46.2925C164.983 46.426 164.752 46.4119 164.618 46.2573C164.485 46.1027 164.499 45.8708 164.653 45.7373C164.674 45.7162 167.035 43.6992 170.4 45.6951C170.576 45.8005 170.632 46.0254 170.527 46.2011C170.456 46.3206 170.337 46.3838 170.211 46.3838Z" fill="white"/>
<path d="M170.885 44.95C170.821 44.95 170.758 44.936 170.695 44.9008C167.014 42.7082 164.562 44.7743 164.463 44.8587C164.309 44.9922 164.077 44.9782 163.943 44.8235C163.81 44.6689 163.824 44.437 163.978 44.3035C164.007 44.2754 166.915 41.7875 171.074 44.2613C171.25 44.3667 171.306 44.5916 171.201 44.7673C171.131 44.8868 171.011 44.95 170.885 44.95Z" fill="white"/>
<path d="M168.356 48.246C168.356 48.7591 167.941 49.1737 167.428 49.1737C166.915 49.1737 166.501 48.7591 166.501 48.246C166.501 47.733 166.915 47.3184 167.428 47.3184C167.941 47.3184 168.356 47.733 168.356 48.246Z" fill="white"/>
<path d="M134.246 207.525C157.845 207.525 176.976 188.388 176.976 164.782C176.976 141.175 157.845 122.038 134.246 122.038C110.647 122.038 91.5161 141.175 91.5161 164.782C91.5161 188.388 110.647 207.525 134.246 207.525Z" fill="white" stroke="#16215B" stroke-miterlimit="10"/>
<path d="M134.246 197.517C152.32 197.517 166.971 182.861 166.971 164.782C166.971 146.702 152.32 132.046 134.246 132.046C116.172 132.046 101.521 146.702 101.521 164.782C101.521 182.861 116.172 197.517 134.246 197.517Z" fill="#0273FF" stroke="#16215B" stroke-miterlimit="10"/>
<path d="M132.96 182.077C132.799 182.077 132.637 182.07 132.476 182.056C130.916 181.901 129.525 181.016 128.724 179.667L115.185 156.84C113.801 154.507 114.567 151.485 116.907 150.1C119.246 148.716 122.26 149.482 123.644 151.822L133.761 168.886L169.894 128.609C171.707 126.585 174.819 126.417 176.835 128.237C178.859 130.05 179.027 133.163 177.208 135.18L136.6 180.44C135.665 181.487 134.33 182.07 132.939 182.07L132.96 182.077Z" fill="#16215B"/>
<path d="M51.2804 62.7516C51.2804 62.7516 51.3226 62.6532 51.4139 62.4635C51.435 62.4143 51.4631 62.3651 51.4912 62.3089C51.5193 62.2526 51.5333 62.1824 51.5614 62.1051C51.6106 61.9575 51.6738 61.7888 51.7019 61.592C51.723 61.4936 51.7441 61.3882 51.7581 61.2758C51.7652 61.1633 51.7722 61.0439 51.7863 60.9174C51.8003 60.7908 51.7933 60.6644 51.7863 60.5238C51.7792 60.3903 51.7863 60.2427 51.7581 60.0951C51.709 59.5048 51.5333 58.8371 51.2664 58.1132C50.7394 56.6585 49.7558 55.021 48.3999 53.2992C47.051 51.5703 45.3016 49.7712 43.229 47.9369C41.1564 46.1097 38.7396 44.2754 36.0277 42.4904C33.3088 40.7123 30.2948 38.9764 26.9857 37.4233C25.3347 36.6502 23.6064 35.9193 21.8078 35.2728C20.0093 34.6192 18.1404 34.0499 16.2014 33.6142C14.2623 33.1925 12.2529 32.8903 10.2015 32.9606C9.18274 33.0028 8.14997 33.1363 7.17341 33.4807C6.68864 33.6564 6.22494 33.8883 5.80341 34.1905C5.38889 34.5067 5.03058 34.8862 4.75658 35.329C4.50366 35.7788 4.34207 36.2777 4.26479 36.7908C4.20858 37.3038 4.22264 37.8239 4.30694 38.3369C4.46853 39.3559 4.86197 40.3258 5.31161 41.2394C6.239 43.0666 7.48253 44.683 8.7893 46.1729C10.1031 47.6628 11.5082 49.0192 12.9555 50.2772C14.3958 51.5352 15.8712 52.6948 17.3465 53.763C20.3043 55.9065 23.2832 57.7056 26.1567 59.2236C29.0302 60.7346 31.8053 61.9575 34.4118 62.8851C37.0113 63.8128 39.4352 64.4664 41.5991 64.8108C43.763 65.1622 45.6739 65.2254 47.1985 64.9865C47.9573 64.867 48.6247 64.6913 49.1727 64.4524C49.3132 64.4032 49.4327 64.3258 49.5591 64.2696C49.6786 64.2064 49.798 64.1502 49.9034 64.0799C50.0088 64.0096 50.1071 63.9464 50.2055 63.8831C50.2968 63.8128 50.3741 63.7425 50.4514 63.6793C50.613 63.5528 50.7324 63.4193 50.8308 63.3068C50.8799 63.2506 50.9361 63.2014 50.9713 63.1522C51.0064 63.096 51.0415 63.0538 51.0696 63.0117C51.1891 62.843 51.2523 62.7586 51.2523 62.7586C51.2523 62.7586 51.1961 62.85 51.0767 63.0257C51.0486 63.0679 51.0134 63.1171 50.9783 63.1733C50.9361 63.2225 50.887 63.2787 50.8378 63.3349C50.7324 63.4474 50.62 63.5879 50.4584 63.7144C50.3811 63.7777 50.3038 63.855 50.2125 63.9253C50.1141 63.9885 50.0158 64.0518 49.9104 64.122C49.805 64.1994 49.6926 64.2556 49.5662 64.3188C49.4397 64.375 49.3203 64.4594 49.1797 64.5086C48.6317 64.7546 47.9643 64.9302 47.1985 65.0567C45.6669 65.3027 43.7489 65.2465 41.578 64.9021C39.4071 64.5648 36.9762 63.9112 34.3697 62.9906C31.7632 62.0699 28.981 60.8471 26.1005 59.3361C23.22 57.8251 20.2341 56.026 17.2693 53.8825C15.7868 52.8072 14.3115 51.6476 12.8642 50.3896C11.4169 49.1317 10.0118 47.7683 8.69095 46.2784C7.37715 44.7814 6.13361 43.158 5.1992 41.3167C4.74253 40.3961 4.3491 39.4192 4.18048 38.3791C4.09617 37.859 4.0751 37.3249 4.13833 36.7978C4.21561 36.2707 4.3772 35.7577 4.64417 35.2868C4.9252 34.83 5.29756 34.4365 5.7191 34.1132C6.15469 33.804 6.62541 33.565 7.12423 33.3893C8.11484 33.0309 9.16166 32.9044 10.1874 32.8622C12.2529 32.7919 14.2763 33.0941 16.2154 33.5158C18.1615 33.9515 20.0374 34.5208 21.8359 35.1814C23.6345 35.835 25.3628 36.5659 27.0209 37.339C30.3299 38.8991 33.351 40.635 36.0699 42.4201C38.7818 44.2122 41.2056 46.0535 43.2712 47.8877C45.3367 49.722 47.0861 51.5352 48.435 53.2711C49.7839 55.0069 50.7675 56.6515 51.2945 58.1132C51.5544 58.8441 51.723 59.5118 51.7722 60.1091C51.7933 60.2567 51.7863 60.4043 51.7933 60.5378C51.7933 60.6784 51.8003 60.8049 51.7933 60.9314C51.7863 61.0579 51.7722 61.1774 51.7652 61.2898C51.7511 61.4023 51.723 61.5077 51.7019 61.6061C51.6738 61.8099 51.6036 61.9786 51.5544 62.1261C51.5263 62.1964 51.5052 62.2667 51.4841 62.3299C51.456 62.3862 51.4279 62.4424 51.4069 62.4846C51.3085 62.6673 51.2593 62.7657 51.2593 62.7657L51.2804 62.7516Z" fill="#E1E1E1"/>
<path d="M55.0881 43.657C55.0881 43.657 55.053 43.5516 54.9968 43.3548C54.9827 43.3056 54.9687 43.2494 54.9476 43.1862C54.9265 43.1229 54.8984 43.0597 54.8633 42.9894C54.8001 42.8488 54.7368 42.6802 54.6244 42.5115C54.5682 42.4272 54.519 42.3288 54.4558 42.2374C54.3856 42.1461 54.3153 42.0547 54.238 41.9563C54.1678 41.8509 54.0764 41.7595 53.9781 41.6611C53.8797 41.5627 53.7884 41.4503 53.676 41.3589C53.2404 40.9513 52.6713 40.5648 51.9898 40.2064C50.6268 39.4755 48.8072 38.9062 46.6433 38.5197C44.4864 38.1261 41.9783 37.9504 39.2172 37.9575C36.4561 37.9715 33.4281 38.2105 30.2173 38.6884C27.0066 39.1663 23.5992 39.8831 20.1004 40.9232C18.351 41.4433 16.5806 42.0547 14.8031 42.7645C13.0256 43.4743 11.2551 44.2895 9.5198 45.2594C7.79149 46.2363 6.09128 47.3537 4.60887 48.7663C3.87821 49.4761 3.18969 50.2632 2.6979 51.1698C2.452 51.6266 2.26231 52.1115 2.1499 52.6105C2.05154 53.1165 2.03749 53.6436 2.12882 54.1566C2.24123 54.6626 2.452 55.1405 2.74005 55.5763C3.04215 55.9979 3.40046 56.3774 3.80092 56.7007C4.60185 57.3543 5.53626 57.8181 6.48472 58.1976C8.39569 58.9426 10.398 59.3221 12.3652 59.5681C14.3394 59.8 16.2925 59.8843 18.2035 59.8562C20.1145 59.8351 21.9833 59.7227 23.8029 59.5329C27.4352 59.1605 30.8567 58.5209 34.0112 57.7408C37.1657 56.9537 40.0462 56.019 42.6106 54.9789C45.1679 53.9388 47.4091 52.8143 49.2568 51.6266C51.1046 50.4459 52.5729 49.2231 53.5495 48.0284C54.0343 47.431 54.4207 46.8547 54.6666 46.3136C54.7368 46.18 54.779 46.0465 54.8282 45.92C54.8774 45.7935 54.9265 45.674 54.9546 45.5475C54.9898 45.4281 55.0179 45.3086 55.046 45.2032C55.067 45.0907 55.0811 44.9853 55.0951 44.8869C55.1373 44.6901 55.1303 44.5074 55.1303 44.3528C55.1303 44.2755 55.1303 44.2052 55.1303 44.142C55.1233 44.0787 55.1162 44.0225 55.1092 43.9663C55.0881 43.7625 55.0741 43.65 55.0741 43.65C55.0741 43.65 55.0951 43.7554 55.1233 43.9592C55.1303 44.0084 55.1373 44.0717 55.1443 44.1349C55.1443 44.1982 55.1443 44.2685 55.1443 44.3458C55.1443 44.5004 55.1443 44.6831 55.1162 44.8799C55.1022 44.9783 55.0881 45.0907 55.067 45.2032C55.0389 45.3156 55.0108 45.4281 54.9757 45.5546C54.9476 45.6811 54.8984 45.8005 54.8493 45.927C54.793 46.0535 54.7579 46.1941 54.6877 46.3276C54.4418 46.8758 54.0624 47.4521 53.5776 48.0565C52.601 49.2653 51.1327 50.4951 49.2849 51.6828C47.4372 52.8776 45.196 54.009 42.6317 55.0562C40.0743 56.1033 37.1798 57.0451 34.0252 57.8392C30.8707 58.6263 27.4422 59.2729 23.8029 59.6454C21.9833 59.8351 20.1074 59.9476 18.1965 59.9687C16.2785 59.9897 14.3253 59.9124 12.3441 59.6805C10.3699 59.4345 8.36057 59.055 6.43554 58.3031C5.48005 57.9236 4.53862 57.4527 3.71662 56.7921C3.30913 56.4618 2.94379 56.0752 2.63467 55.6395C2.33959 55.1968 2.12179 54.7048 2.00938 54.1777C1.91102 53.6506 1.9321 53.1095 2.03046 52.5894C2.1499 52.0694 2.34661 51.5774 2.59251 51.1136C3.09133 50.1859 3.78687 49.3988 4.52456 48.6749C6.014 47.2483 7.72826 46.1238 9.45657 45.1469C11.1989 44.1771 12.9764 43.3548 14.7539 42.645C16.5314 41.9352 18.3089 41.3238 20.0583 40.8037C23.5641 39.7636 26.9785 39.0468 30.1963 38.5759C33.414 38.105 36.4421 37.8661 39.2102 37.8591C41.9783 37.852 44.4794 38.0418 46.6433 38.4354C48.8072 38.8289 50.6339 39.4052 51.9968 40.1431C52.6783 40.5156 53.2544 40.9021 53.683 41.3168C53.8024 41.4081 53.8867 41.5276 53.9851 41.626C54.0835 41.7244 54.1748 41.8228 54.245 41.9282C54.3223 42.0266 54.3926 42.125 54.4628 42.2163C54.5261 42.3147 54.5753 42.4061 54.6315 42.4974C54.7439 42.6661 54.8071 42.8418 54.8633 42.9824C54.8914 43.0526 54.9195 43.1159 54.9406 43.1791C54.9546 43.2424 54.9687 43.2986 54.9827 43.3478C55.0389 43.5516 55.06 43.657 55.06 43.657H55.0881Z" fill="#E1E1E1"/>
<path d="M41.051 23.6137C41.051 23.6137 40.9527 23.5785 40.756 23.5012C40.7068 23.4801 40.6506 23.4591 40.5944 23.438C40.5311 23.4169 40.4609 23.4028 40.3906 23.3818C40.2431 23.3466 40.0674 23.2904 39.8637 23.2763C39.7653 23.2623 39.66 23.2482 39.5405 23.2412C39.4281 23.2412 39.3087 23.2412 39.1822 23.2412C39.0557 23.2412 38.9293 23.2482 38.7888 23.2623C38.6553 23.2834 38.5077 23.2834 38.3672 23.3185C37.7771 23.4099 37.1237 23.6277 36.4211 23.944C35.009 24.5695 33.4423 25.6658 31.8193 27.1346C30.1894 28.6034 28.5103 30.4728 26.8311 32.6585C25.152 34.8512 23.4869 37.3882 21.8921 40.2205C20.3043 43.0527 18.7797 46.1871 17.4589 49.5886C16.7985 51.2893 16.1943 53.0673 15.6674 54.9016C15.1405 56.7359 14.6978 58.6474 14.4028 60.6082C14.1147 62.569 13.9531 64.6 14.1709 66.6381C14.2833 67.6501 14.4871 68.6762 14.9016 69.6249C15.1123 70.0958 15.3793 70.5456 15.7025 70.9462C16.0397 71.3327 16.4472 71.67 16.9039 71.909C17.3746 72.1339 17.8805 72.2604 18.4004 72.2955C18.9202 72.3166 19.4331 72.2604 19.939 72.1479C20.9436 71.916 21.8851 71.4592 22.7633 70.9462C24.5197 69.892 26.0513 68.5426 27.4494 67.1371C28.8405 65.7175 30.1051 64.2276 31.2573 62.7025C32.4095 61.1775 33.4633 59.6313 34.4329 58.0782C36.3649 54.9789 37.9597 51.8796 39.2665 48.9069C40.5733 45.9341 41.6061 43.0808 42.3508 40.4172C43.0955 37.7537 43.5803 35.2939 43.777 33.1083C43.9737 30.9226 43.9105 29.0181 43.5662 27.5071C43.3976 26.7551 43.1728 26.1015 42.8988 25.5744C42.8426 25.4409 42.7512 25.3214 42.688 25.202C42.6177 25.0825 42.5545 24.97 42.4702 24.8717C42.3929 24.7733 42.3227 24.6749 42.2524 24.5835C42.1751 24.4992 42.0978 24.4219 42.0276 24.3516C41.8941 24.197 41.7466 24.0916 41.6271 23.9932C41.5639 23.944 41.5147 23.9018 41.4585 23.8596C41.4023 23.8245 41.3531 23.7964 41.311 23.7683C41.1353 23.6629 41.044 23.5996 41.044 23.5996C41.044 23.5996 41.1353 23.6488 41.318 23.7542C41.3602 23.7823 41.4164 23.8105 41.4726 23.8456C41.5288 23.8807 41.578 23.9299 41.6412 23.9721C41.7606 24.0705 41.9082 24.1759 42.0487 24.3235C42.1189 24.3938 42.1962 24.4711 42.2735 24.5554C42.3437 24.6468 42.414 24.7381 42.4913 24.8435C42.5756 24.9419 42.6388 25.0544 42.7091 25.1739C42.7793 25.2933 42.8636 25.4128 42.9269 25.5463C43.2079 26.0734 43.4327 26.734 43.6084 27.486C43.9596 28.997 44.0299 30.9156 43.8402 33.1013C43.6505 35.2939 43.1728 37.7607 42.4281 40.4243C41.6904 43.0878 40.6576 45.9481 39.3508 48.9279C38.0441 51.9078 36.4492 55.007 34.5172 58.1133C33.5476 59.6665 32.4938 61.2196 31.3416 62.7447C30.1894 64.2767 28.9248 65.7737 27.5267 67.1933C26.1286 68.6059 24.5899 69.9623 22.8195 71.0235C21.9342 71.5435 20.9858 72.0074 19.96 72.2393C19.4472 72.3588 18.9202 72.415 18.3863 72.3939C17.8594 72.3517 17.3325 72.2252 16.8477 71.9933C16.3699 71.7473 15.9554 71.403 15.6041 71.0024C15.2669 70.5948 14.9929 70.1309 14.7821 69.653C14.3606 68.6902 14.1569 67.6571 14.0445 66.6311C13.8267 64.5789 13.9953 62.5338 14.2833 60.566C14.5784 58.5983 15.021 56.6867 15.555 54.8454C16.0819 53.0041 16.6931 51.2261 17.3535 49.5253C18.6814 46.1168 20.2059 42.9824 21.8008 40.1431C23.4026 37.3109 25.0677 34.7739 26.7609 32.5812C28.447 30.3885 30.1332 28.5261 31.7702 27.0573C33.4071 25.5885 34.9809 24.4992 36.4001 23.8737C37.1096 23.5645 37.7701 23.3466 38.3602 23.2553C38.5077 23.2201 38.6483 23.2201 38.7888 23.2061C38.9223 23.192 39.0557 23.1779 39.1822 23.185C39.3087 23.185 39.4281 23.185 39.5405 23.185C39.6529 23.192 39.7583 23.2131 39.8637 23.2271C40.0674 23.2412 40.2431 23.2974 40.3906 23.3396C40.4679 23.3607 40.5382 23.3747 40.5944 23.3958C40.6506 23.4239 40.7068 23.445 40.756 23.4661C40.9456 23.5504 41.044 23.5926 41.044 23.5926L41.051 23.6137Z" fill="#E1E1E1"/>
<path d="M3.96972 65.1693C4.43341 65.4785 4.55285 66.104 4.24372 66.5608C3.93459 67.0246 3.30931 67.1441 2.85264 66.8349C2.38895 66.5256 2.26951 65.9002 2.57864 65.4434C2.88777 64.9795 3.51305 64.86 3.96972 65.1693Z" fill="#E1E1E1"/>
<path d="M53.4512 23.6417C53.5566 24.1829 53.2053 24.717 52.6643 24.8224C52.1233 24.9278 51.5894 24.5764 51.484 24.0353C51.3786 23.4941 51.7299 22.96 52.2709 22.8546C52.8119 22.7492 53.3458 23.1006 53.4512 23.6417Z" fill="#E1E1E1"/>
<path d="M10.8264 67.1723C10.8545 67.3128 10.7631 67.4464 10.6226 67.4745C10.4821 67.5026 10.3486 67.4112 10.3205 67.2707C10.2924 67.1301 10.3837 66.9966 10.5243 66.9685C10.6648 66.9403 10.7983 67.0317 10.8264 67.1723Z" fill="#E1E1E1"/>
<path d="M10.6931 38.5268C10.7212 38.6673 10.6298 38.8008 10.4893 38.829C10.3488 38.8571 10.2153 38.7657 10.1872 38.6251C10.1591 38.4846 10.2504 38.3511 10.391 38.323C10.5315 38.2948 10.665 38.3862 10.6931 38.5268Z" fill="#E1E1E1"/>
<path d="M52.3835 44.1911C52.4116 44.3316 52.3203 44.4652 52.1797 44.4933C52.0392 44.5214 51.9057 44.43 51.8776 44.2895C51.8495 44.1489 51.9409 44.0154 52.0814 43.9873C52.2219 43.9591 52.3554 44.0505 52.3835 44.1911Z" fill="#E1E1E1"/>
<path d="M53.5495 31.8361C53.5776 31.9766 53.4863 32.1102 53.3458 32.1383C53.2052 32.1664 53.0718 32.075 53.0437 31.9345C53.0156 31.7939 53.1069 31.6604 53.2474 31.6323C53.3879 31.6042 53.5214 31.6955 53.5495 31.8361Z" fill="#E1E1E1"/>
<path d="M33.3439 47.944C33.8708 50.5935 32.1495 53.1657 29.5008 53.6857C26.8522 54.2058 24.2808 52.491 23.7609 49.8415C23.234 47.192 24.9552 44.6198 27.6039 44.0998C30.2526 43.5797 32.824 45.2945 33.3439 47.944Z" fill="#E1E1E1"/>
<path d="M63.7157 216.296C63.7157 216.296 63.4417 216.457 62.9008 216.753C62.3598 217.055 61.5378 217.469 60.498 218.088C58.4044 219.283 55.3482 221.124 51.6597 223.844C47.9783 226.563 43.6435 230.155 39.1892 234.905C36.9621 237.281 34.7139 239.937 32.5149 242.896C30.3018 245.841 28.2222 249.158 26.4517 252.848C25.6016 254.703 24.8148 256.65 24.1965 258.695C23.5993 260.747 23.1497 262.89 22.9459 265.111C22.7562 267.332 22.8616 269.616 23.3042 271.886C23.501 273.024 23.8663 274.135 24.2316 275.252C24.6532 276.349 25.1379 277.438 25.7421 278.471C28.1168 282.639 31.8685 286.138 36.3017 288.668C40.7419 291.212 45.8706 292.752 51.189 293.637C53.8588 294.08 56.5777 294.382 59.3458 294.593C60.7298 294.712 62.1209 294.755 63.519 294.818C64.9171 294.881 66.3293 294.937 67.7414 295C69.1536 295.092 70.5798 295.057 72.013 295.057C73.4463 295.057 74.8865 295.05 76.3268 295.043C77.7741 295.071 79.2213 294.951 80.6827 294.895C82.144 294.825 83.6053 294.762 85.0737 294.691C96.8346 293.981 108.933 292.105 121.108 289.28C145.487 283.615 167.766 274.788 187.381 265.631C197.203 261.084 206.4 256.333 214.142 250.599C218.013 247.745 221.477 244.611 224.441 241.273C224.807 240.851 225.179 240.436 225.537 240.022C225.896 239.607 226.219 239.157 226.563 238.736C226.9 238.307 227.238 237.878 227.568 237.45C227.877 237.007 228.186 236.564 228.488 236.121C229.753 234.392 230.786 232.565 231.629 230.703C233.294 226.985 234.242 223.113 234.088 219.437C233.933 215.776 232.535 212.367 230.195 210.118C227.877 207.834 224.94 206.689 222.228 206.183C219.488 205.677 216.917 205.803 214.669 206.183C212.413 206.562 210.46 207.152 208.795 207.729C207.13 208.312 205.753 208.881 204.636 209.345C203.533 209.823 202.69 210.182 202.114 210.427C201.545 210.673 201.25 210.793 201.25 210.793C201.25 210.793 201.531 210.652 202.093 210.392C202.655 210.139 203.491 209.753 204.601 209.275C205.711 208.797 207.088 208.214 208.753 207.623C210.418 207.033 212.371 206.429 214.641 206.035C216.896 205.635 219.495 205.501 222.256 206C224.989 206.506 227.968 207.651 230.336 209.964C232.725 212.241 234.158 215.712 234.319 219.423C234.488 223.148 233.533 227.062 231.86 230.808C231.017 232.685 229.978 234.533 228.713 236.269C228.404 236.712 228.102 237.154 227.793 237.604C227.455 238.033 227.125 238.462 226.781 238.897C226.437 239.326 226.114 239.776 225.748 240.197C225.383 240.612 225.018 241.034 224.645 241.455C221.673 244.815 218.196 247.963 214.31 250.838C206.547 256.607 197.336 261.379 187.515 265.933C167.892 275.119 145.593 283.96 121.186 289.638C96.8276 295.338 72.6453 296.933 51.1258 293.96C45.7793 293.061 40.6154 291.515 36.1331 288.935C31.6648 286.384 27.8709 282.842 25.4681 278.612C24.8569 277.564 24.3651 276.461 23.9436 275.344C23.5712 274.212 23.2059 273.088 23.0092 271.928C22.5665 269.63 22.4612 267.318 22.6579 265.076C22.8687 262.834 23.3253 260.677 23.9295 258.61C24.5548 256.551 25.3557 254.597 26.2129 252.728C27.9974 249.024 30.091 245.7 32.3252 242.749C34.5382 239.783 36.8005 237.126 39.0417 234.758C43.517 230.007 47.8729 226.423 51.5754 223.724C55.285 221.018 58.3552 219.198 60.4629 218.025C62.5706 216.844 63.7157 216.303 63.7157 216.303V216.296Z" fill="#E1E1E1"/>
<path d="M245.912 104.209L237.116 136.565L210.411 143.951C209.547 144.19 209.013 145.132 209.196 146.109L238.409 138.589L239.441 138.266L274.078 128.989L277.921 113.647L282.916 95.6558C283.281 94.5595 282.375 93.442 281.356 93.7231L246.839 103.204C246.39 103.33 246.038 103.71 245.912 104.209Z" fill="#ECECEC"/>
<path d="M247.711 105.249L239.708 134.709L271.085 126.1L278.111 97.0613L247.711 105.249Z" fill="#FAFAFA"/>
<path d="M281.356 93.7161C281.356 93.7161 281.356 93.7723 281.328 93.8847C281.3 94.0183 281.265 94.1799 281.216 94.3837C281.103 94.8405 280.956 95.48 280.759 96.2882C280.337 97.9679 279.747 100.364 279.003 103.337C277.478 109.339 275.363 117.66 272.968 127.056L272.939 127.162L272.834 127.19C271.225 127.625 269.532 128.082 267.811 128.546C257.258 131.364 247.71 133.908 240.769 135.764C237.326 136.663 234.53 137.394 232.563 137.907C231.615 138.146 230.863 138.336 230.329 138.476C230.09 138.533 229.893 138.582 229.746 138.617C229.612 138.645 229.542 138.659 229.542 138.652C229.542 138.645 229.605 138.624 229.732 138.582C229.879 138.54 230.069 138.476 230.308 138.406C230.842 138.251 231.579 138.041 232.528 137.774C234.481 137.232 237.27 136.459 240.706 135.518C247.64 133.641 257.181 131.055 267.719 128.195C269.441 127.731 271.134 127.274 272.743 126.845L272.616 126.972C275.054 117.583 277.211 109.276 278.764 103.281C279.551 100.322 280.183 97.9328 280.625 96.2601C280.843 95.459 281.019 94.8265 281.145 94.3696C281.202 94.1729 281.251 94.0112 281.286 93.8847C281.321 93.7723 281.342 93.7231 281.342 93.7231L281.356 93.7161Z" fill="#E1E1E1"/>
<path d="M1.0186 143.192L0.653263 144.169C0.428442 144.781 0.470596 145.455 0.772699 146.031L20.6553 184.087C20.9503 184.656 21.4773 185.078 22.0955 185.24L23.2196 185.542C23.4726 185.612 23.7395 185.633 23.9995 185.612L47.2122 183.785C48.3574 183.694 49.2637 182.773 49.3269 181.62C49.348 181.199 49.2567 180.777 49.06 180.405L28.0111 141.098C27.5826 140.297 26.7114 139.819 25.8051 139.889L2.99983 141.681C2.10757 141.752 1.33475 142.335 1.02562 143.171L1.0186 143.192Z" fill="#E1E1E1"/>
<path d="M2.47314 142.651L23.5641 182.091L47.4584 180.208L26.529 140.76L2.47314 142.651Z" fill="#FAFAFA"/>
<path d="M25.9946 172.576C27.7932 171.81 29.8798 172.646 30.6456 174.445C31.4114 176.244 30.5754 178.331 28.7768 179.097C26.9782 179.863 24.8916 179.034 24.1258 177.228C23.36 175.429 24.1891 173.342 25.9946 172.576Z" fill="#E1E1E1"/>
<path d="M27.4211 174.178L27.3227 174.818C27.3087 174.895 27.3579 174.972 27.4281 175L27.5476 175.049C27.5476 175.049 27.7654 175.106 27.6951 175.302C27.6459 175.443 27.2876 176.321 27.2876 176.321C27.2876 176.321 27.1963 176.553 27.0206 176.476L26.845 176.406C26.7818 176.385 26.7185 176.406 26.6764 176.448L26.2267 177.01C26.1776 177.066 26.1846 177.158 26.2408 177.207L26.4024 177.369C26.4024 177.369 26.4656 177.418 26.5078 177.432C26.585 177.46 26.7185 177.474 26.845 177.439C27.0558 177.376 27.681 176.933 28.0815 175.78C28.4609 174.677 28.1026 174.262 28.0183 174.157C27.9691 174.094 27.8075 174.016 27.7232 174.016C27.6951 174.016 27.6389 174.016 27.5897 174.016C27.5054 174.016 27.4351 174.08 27.4211 174.164V174.178Z" fill="white"/>
<path d="M35.2685 177.087C33.7791 175.815 33.6034 173.581 34.8751 172.091C36.1467 170.601 38.3809 170.425 39.8703 171.697C41.3597 172.969 41.5354 175.204 40.2637 176.694C38.9921 178.184 36.7579 178.359 35.2685 177.087Z" fill="#E1E1E1"/>
<path d="M36.0695 175.099L36.6878 174.902C36.765 174.881 36.8142 174.803 36.8072 174.726V174.593C36.8072 174.593 36.751 174.375 36.9618 174.347C37.1093 174.325 38.0578 174.262 38.0578 174.262C38.0578 174.262 38.3037 174.241 38.3177 174.438L38.3318 174.628C38.3318 174.691 38.3809 174.747 38.4442 174.761L39.1467 174.916C39.224 174.93 39.2943 174.888 39.3224 174.817L39.3926 174.6C39.4067 174.557 39.4067 174.515 39.4067 174.473C39.3926 174.389 39.3575 174.262 39.2662 174.164C39.1186 174.002 38.4442 173.637 37.2358 173.798C36.0835 173.946 35.8658 174.452 35.8095 174.578C35.7744 174.656 35.7744 174.832 35.8095 174.909C35.8236 174.937 35.8447 174.979 35.8728 175.028C35.9079 175.106 35.9992 175.141 36.0765 175.113L36.0695 175.099Z" fill="white"/>
<path d="M25.0603 157.382C25.9526 156.756 26.2196 155.498 25.6153 154.149C24.8144 152.385 22.8191 151.148 21.1611 151.38C19.503 151.619 18.8075 153.235 19.6084 154.999C20.2267 156.355 21.5545 157.396 22.8894 157.698C18.6038 159.068 21.1189 164.044 21.1189 164.044L32.8728 163.123C32.8728 163.123 29.9502 157.403 25.0673 157.382H25.0603Z" fill="#ECECEC"/>
<path d="M38.943 167.122C38.9571 167.305 34.7276 167.79 29.4935 168.204C24.2594 168.619 20.0019 168.802 19.9878 168.612C19.9738 168.429 24.2032 167.944 29.4443 167.53C34.6785 167.115 38.936 166.932 38.95 167.122H38.943Z" fill="#ECECEC"/>
<path d="M16.2223 89.1553L16.7282 89.9986C17.2972 90.9474 18.1263 91.7064 19.1169 92.1983L19.9951 92.6341L19.152 93.1401C18.2036 93.7093 17.4448 94.5386 16.953 95.5295L16.5174 96.408L16.0116 95.5647C15.4425 94.6159 14.6135 93.8569 13.6228 93.365L12.7446 92.9292L13.5877 92.4232C14.5362 91.854 15.2949 91.0247 15.7867 90.0338L16.2223 89.1553Z" fill="#0273FF"/>
<path d="M212.638 181.712L213.144 182.555C213.713 183.504 214.542 184.263 215.533 184.755L216.411 185.191L215.568 185.697C214.62 186.266 213.861 187.095 213.369 188.086L212.933 188.965L212.428 188.121C211.858 187.173 211.029 186.414 210.039 185.922L209.161 185.486L210.004 184.98C210.952 184.411 211.711 183.581 212.203 182.59L212.638 181.712Z" fill="#0273FF"/>
<path d="M99.5324 7.90625L100.038 8.74959C100.607 9.69835 101.436 10.4574 102.427 10.9493L103.305 11.385L102.462 11.891C101.514 12.4603 100.755 13.2896 100.263 14.2805L99.8275 15.159L99.3216 14.3156C98.7525 13.3669 97.9235 12.6079 96.9329 12.1159L96.0547 11.6802L96.8978 11.1742C97.8462 10.6049 98.605 9.77565 99.0968 8.78473L99.5324 7.90625Z" fill="#0273FF"/>
<path d="M218.111 87.3208L218.617 88.1641C219.186 89.1129 220.015 89.8719 221.006 90.3639L221.884 90.7996L221.041 91.3056C220.093 91.8748 219.334 92.7041 218.842 93.6951L218.407 94.5735L217.901 93.7302C217.332 92.7814 216.503 92.0224 215.512 91.5305L214.634 91.0947L215.477 90.5887C216.425 90.0195 217.184 89.1902 217.676 88.1993L218.111 87.3208Z" fill="#0273FF"/>
<path d="M35.4306 121.631L35.803 122.242C36.2175 122.931 36.8217 123.486 37.5453 123.845L38.1917 124.161L37.5804 124.533C36.8919 124.948 36.3369 125.552 35.9786 126.276L35.6624 126.923L35.2901 126.311C34.8756 125.623 34.2714 125.067 33.5477 124.709L32.9014 124.393L33.5126 124.02C34.2011 123.606 34.7561 123.001 35.1144 122.277L35.4306 121.631Z" fill="#0273FF"/>
<path d="M52.2358 200.392L52.6081 201.003C53.0226 201.692 53.6269 202.247 54.3505 202.606L54.9969 202.922L54.3856 203.294C53.6971 203.709 53.1421 204.313 52.7838 205.037L52.4676 205.684L52.0953 205.072C51.6808 204.384 51.0765 203.828 50.3529 203.47L49.7065 203.154L50.3178 202.781C51.0063 202.367 51.5613 201.762 51.9196 201.038L52.2358 200.392Z" fill="#0273FF"/>
<path d="M212.603 63.4685L212.975 64.0799C213.39 64.7687 213.994 65.3239 214.718 65.6823L215.364 65.9985L214.753 66.371C214.064 66.7856 213.509 67.39 213.151 68.1139L212.835 68.7605L212.462 68.149C212.048 67.4603 211.444 66.9051 210.72 66.5467L210.074 66.2304L210.685 65.858C211.373 65.4433 211.928 64.8389 212.287 64.1151L212.603 63.4685Z" fill="#0273FF"/>
<path d="M2.53656 105.017L2.90892 105.629C3.32343 106.317 3.92763 106.872 4.65128 107.231L5.29764 107.547L4.6864 107.92C3.99789 108.334 3.44286 108.939 3.08456 109.662L2.7684 110.309L2.39604 109.698C1.98153 109.009 1.37733 108.454 0.653684 108.095L0.00732422 107.779L0.618555 107.407C1.30707 106.992 1.86209 106.388 2.2204 105.664L2.53656 105.017Z" fill="#0273FF"/>
<path d="M230.364 67.2495L230.575 67.6009C230.814 67.9945 231.158 68.3177 231.572 68.5215L231.938 68.7043L231.586 68.9151C231.193 69.1541 230.87 69.4984 230.666 69.9131L230.483 70.2785L230.273 69.9271C230.034 69.5336 229.69 69.2103 229.275 69.0065L228.91 68.8237L229.261 68.6129C229.654 68.374 229.978 68.0296 230.181 67.615L230.364 67.2495Z" fill="#0273FF"/>
<path d="M231.284 168.429L231.495 168.781C231.734 169.174 232.078 169.497 232.493 169.701L232.858 169.884L232.507 170.095C232.113 170.334 231.79 170.678 231.586 171.093L231.404 171.458L231.193 171.107C230.954 170.713 230.61 170.39 230.195 170.186L229.83 170.003L230.181 169.793C230.575 169.554 230.898 169.209 231.102 168.795L231.284 168.429Z" fill="#0273FF"/>
<path d="M126.378 0L126.588 0.351392C126.827 0.744951 127.172 1.06823 127.586 1.27204L127.951 1.45476L127.6 1.6656C127.207 1.90454 126.883 2.24891 126.68 2.66355L126.497 3.029L126.286 2.67761C126.047 2.28405 125.703 1.96077 125.289 1.75696L124.923 1.57424L125.275 1.3634C125.668 1.12445 125.991 0.78009 126.195 0.365448L126.378 0Z" fill="#0273FF"/>
<path d="M86.1413 17.9421L86.3521 18.2935C86.591 18.6871 86.9352 19.0104 87.3497 19.2142L87.7151 19.3969L87.3638 19.6077C86.9703 19.8467 86.6472 20.191 86.4434 20.6057L86.2608 20.9711L86.05 20.6197C85.8111 20.2262 85.4669 19.9029 85.0523 19.6991L84.687 19.5164L85.0383 19.3055C85.4317 19.0666 85.7549 18.7222 85.9587 18.3076L86.1413 17.9421Z" fill="#0273FF"/>
<path d="M56.7321 209.626L56.9429 209.978C57.1818 210.371 57.526 210.695 57.9406 210.899L58.3059 211.081L57.9546 211.292C57.5612 211.531 57.238 211.875 57.0342 212.29L56.8516 212.655L56.6408 212.304C56.4019 211.911 56.0577 211.587 55.6432 211.383L55.2778 211.201L55.6291 210.99C56.0226 210.751 56.3457 210.407 56.5495 209.992L56.7321 209.626Z" fill="#0273FF"/>
<path d="M54.2451 233.001L54.2943 242.749C54.2943 242.749 70.4744 233.584 65.725 224.863L54.2451 233.001Z" fill="#16215B"/>
<path d="M55.8258 210.484C55.8258 210.484 44.1843 206.218 35.332 214.145L44.4092 219.269L55.8258 210.484Z" fill="#16215B"/>
<path d="M44.4092 219.269C44.7815 219.754 54.2521 233.001 54.2521 233.001L78.9964 215.459C83.3172 212.395 84.09 206.288 80.6685 202.247C77.5491 198.558 72.0832 197.974 68.2542 200.919L44.4092 219.276V219.269Z" fill="#F5F5F5"/>
<path d="M44.4092 219.269C44.4092 219.269 44.4724 219.212 44.6059 219.1C44.7605 218.98 44.9642 218.812 45.2241 218.608C45.7932 218.165 46.6012 217.526 47.641 216.71C49.7768 215.052 52.8329 212.669 56.6057 209.732C58.5096 208.256 60.5892 206.64 62.8234 204.911C63.9405 204.046 65.0997 203.147 66.2941 202.226C66.8912 201.762 67.4954 201.298 68.1137 200.821C68.746 200.364 69.4205 199.914 70.1722 199.619C70.5375 199.443 70.931 199.345 71.3174 199.204C71.7179 199.12 72.1113 199 72.5258 198.965C73.3408 198.839 74.1909 198.853 75.0269 198.965C76.699 199.19 78.3571 199.9 79.699 201.038C80.3875 201.587 80.9496 202.289 81.4624 203.02C81.9472 203.772 82.3336 204.594 82.6006 205.466C83.1134 207.209 83.1064 209.134 82.5373 210.912C81.9823 212.606 80.9566 214.138 79.5936 215.221C78.2166 216.275 76.8325 217.202 75.4836 218.172C72.7787 220.084 70.1652 221.932 67.6711 223.696C62.6829 227.217 58.1654 230.408 54.3224 233.113L54.2099 233.191L54.1327 233.085C51.1187 228.826 48.6737 225.376 46.9665 222.965C46.1375 221.792 45.4981 220.871 45.0415 220.224C44.8307 219.922 44.6691 219.69 44.5497 219.515C44.4443 219.353 44.3881 219.276 44.3951 219.276C44.3951 219.276 44.4654 219.36 44.5848 219.522C44.7113 219.697 44.8869 219.929 45.1117 220.231C45.5825 220.871 46.2499 221.785 47.107 222.958C48.8283 225.334 51.2943 228.735 54.3434 232.931L54.1608 232.903C57.9897 230.176 62.4932 226.971 67.4673 223.422C69.9614 221.651 72.568 219.796 75.2658 217.884C76.6007 216.914 78.0199 215.973 79.3547 214.946C80.6685 213.906 81.6521 212.438 82.1861 210.807C82.7341 209.099 82.7411 207.251 82.2493 205.571C81.9964 204.735 81.624 203.948 81.1533 203.224C80.6615 202.521 80.1205 201.847 79.4601 201.32C78.1744 200.223 76.5866 199.534 74.9707 199.317C74.1628 199.211 73.3548 199.19 72.5609 199.317C72.1605 199.352 71.7811 199.464 71.3947 199.541C71.0223 199.668 70.6429 199.766 70.2917 199.935C68.8444 200.518 67.7062 201.594 66.4978 202.479C65.3105 203.386 64.1583 204.271 63.0412 205.129C60.807 206.836 58.7274 208.425 56.8235 209.879C53.0156 212.775 49.9313 215.122 47.7745 216.76C46.7066 217.561 45.8775 218.193 45.2944 218.636C45.0204 218.84 44.8026 219.002 44.641 219.121C44.4935 219.233 44.4092 219.29 44.4021 219.283L44.4092 219.269Z" fill="#1A2E35"/>
<path d="M56.2613 218.517L40.7979 229.642C40.7979 229.642 41.4653 231.343 41.8868 231.167C42.2451 231.019 53.8866 223.085 57.6664 220.513C58.2847 220.091 58.376 219.22 57.8631 218.678C57.4416 218.229 56.7601 218.165 56.2613 218.524V218.517Z" fill="#16215B"/>
<path d="M72.308 211.531C72.4907 214.384 70.3338 216.844 67.4814 217.027C64.629 217.21 62.17 215.052 61.9874 212.199C61.8047 209.345 63.9616 206.886 66.814 206.703C69.6664 206.52 72.1254 208.678 72.308 211.531Z" fill="white"/>
<path d="M72.3078 211.531C72.2656 211.531 72.2586 211.074 71.9987 210.301C71.7457 209.549 71.1486 208.453 69.9331 207.666C69.3359 207.279 68.5912 206.97 67.7552 206.879C66.9261 206.794 65.9988 206.879 65.1416 207.279C64.2845 207.652 63.4836 208.305 62.9426 209.177C62.3805 210.034 62.1066 211.102 62.1628 212.185C62.24 213.267 62.6545 214.293 63.322 215.073C63.9683 215.86 64.8466 216.408 65.7458 216.668C66.6451 216.95 67.5725 216.921 68.3875 216.732C69.2095 216.535 69.905 216.134 70.446 215.67C71.549 214.729 71.9987 213.569 72.1532 212.789C72.3148 211.995 72.2586 211.531 72.3008 211.531C72.3148 211.531 72.3289 211.644 72.3429 211.861C72.364 212.079 72.357 212.403 72.2867 212.817C72.1673 213.625 71.7387 214.848 70.6076 215.86C70.0455 216.352 69.3149 216.795 68.4577 217.013C67.6006 217.224 66.617 217.273 65.6545 216.978C64.692 216.711 63.7506 216.134 63.055 215.291C62.3384 214.462 61.8958 213.365 61.8115 212.206C61.7482 211.046 62.0503 209.901 62.6475 208.987C63.2307 208.066 64.0878 207.371 65.0081 206.977C65.9285 206.562 66.9051 206.485 67.7833 206.583C68.6685 206.689 69.4484 207.033 70.0666 207.455C71.3242 208.312 71.9003 209.472 72.1251 210.259C72.2446 210.66 72.2937 210.983 72.3008 211.201C72.3148 211.419 72.3148 211.531 72.3008 211.531H72.3078Z" fill="#1A2E35"/>
<path d="M80.1488 214.483C88.4601 206.71 86.9777 197.707 86.9777 197.707C75.7999 194.77 68.2544 200.926 68.2544 200.926C75.6946 201.973 79.6781 206.478 80.1488 214.49V214.483Z" fill="#0273FF" stroke="#16215B" stroke-miterlimit="10"/>
</g>
<defs>
<clipPath id="clip0_999_1273">
<rect width="283" height="309" fill="white"/>
</clipPath>
</defs>
</svg>
