<svg width="43" height="98" viewBox="0 0 43 98" fill="none" xmlns="http://www.w3.org/2000/svg">
<g clip-path="url(#clip0_884_635)">
<path d="M28.5871 5.63001C27.6474 5.48961 26.7118 5.34982 25.772 5.20943C25.0626 5.63962 24.3445 5.74452 23.6223 5.6996C24.3451 5.74034 25.0626 5.63962 25.7726 5.20525C26.7124 5.34565 27.648 5.48544 28.5877 5.62583C29.0166 5.68369 29.4502 5.73797 29.8838 5.79226C31.7161 6.60769 33.1319 5.17553 34.7511 4.85581C35.678 4.6703 36.0754 3.70033 34.8546 3.34014C31.2081 2.26618 27.5153 1.95722 23.8603 3.40185C22.3296 3.3464 20.3227 2.61227 19.836 4.70345C19.5836 5.79675 21.2232 6.6994 22.3049 6.57041C24.3979 6.32359 26.6491 6.87993 28.5877 5.62583L28.5871 5.63001Z" fill="#FF671F"/>
<path d="M24.7199 19.7355C25.7094 19.9769 26.6536 19.909 27.5287 19.3408C29.0675 19.6959 30.4703 19.2723 31.8337 18.6171C31.1713 18.2781 30.5124 17.9439 29.8499 17.6049C29.5876 17.7886 29.3253 17.9723 29.063 18.156C27.8778 18.0824 26.6095 17.7836 25.6774 18.3904C26.6137 17.7842 27.8814 18.0872 29.063 18.156C29.3253 17.9723 29.5876 17.7886 29.8499 17.6049C30.5124 17.9439 31.1713 18.2781 31.8337 18.6171C32.2824 18.6565 32.731 18.6959 33.1796 18.7353C34.8721 18.9165 35.3029 17.6273 35.4408 16.4663C35.5654 15.4269 34.4562 15.5093 33.7101 15.3927C32.9012 15.1775 32.1208 15.1795 31.4107 15.7034C29.5499 15.9157 27.689 16.1279 25.8281 16.3401C24.9464 16.9244 23.9719 16.7577 23.0068 16.6733C21.7521 16.5172 20.4928 16.2154 19.2416 16.243C17.7888 16.2713 16.3635 16.9986 16.2306 18.4802C16.0626 20.3532 17.8863 20.191 18.9871 20.0776C20.8971 19.881 22.8567 20.5272 24.7193 19.7397L24.7199 19.7355ZM27.8466 16.8457C28.5437 16.8273 29.2316 16.8417 29.7319 17.4428C29.2322 16.8375 28.5437 16.8273 27.8466 16.8457Z" fill="#FF671F"/>
<path d="M27.8741 32.8978L27.8861 32.8739C29.97 33.3719 32.0648 33.2319 34.1608 32.9941C35.2377 33.4016 36.1076 32.6323 37.0902 32.4761C37.7789 32.367 38.4265 31.979 38.3853 31.1672C38.3401 30.2354 37.4379 30.3094 36.8549 30.2207C34.6785 29.8884 32.5567 28.8818 30.2844 29.6271C29.4391 29.1593 28.7073 29.1812 28.1983 30.1222C27.3119 30.0279 26.4297 29.9342 25.5432 29.8399C24.5819 29.6111 23.6213 29.2588 22.6856 29.9205C22.4559 29.8489 22.2303 29.8674 22.0143 29.9683C18.8792 29.7742 15.746 29.5378 12.7151 30.6678C12.0234 30.8276 11.3316 30.9875 10.6405 31.1432C9.64132 30.9985 8.99077 31.3477 9.24583 32.4292C9.477 33.4092 10.301 34.1724 11.2441 33.9935C16.7497 32.9406 22.3604 33.651 27.8747 32.8936L27.8741 32.8978ZM29.1393 30.3438C29.8293 30.6697 30.5199 31.1108 31.1951 30.0873C30.5241 31.1114 29.8293 30.6697 29.1393 30.3438ZM31.7205 30.1591L31.48 30.103C31.5424 30.1163 31.7205 30.1591 31.7211 30.1549L31.7205 30.1591Z" fill="#FF671F"/>
<path d="M14.1378 48.9574C16.7475 49.1094 19.3537 49.1672 21.9281 48.585L22.2159 48.6694L22.4836 48.5376C25.609 48.8581 28.7031 48.654 31.7557 47.9066L32.0723 47.9696L32.3724 47.851C33.8857 47.2559 36.8265 48.0528 36.4395 45.6901C36.2332 44.4195 33.2776 44.0809 31.3585 44.9924C30.1881 45.083 29.0226 45.17 27.8522 45.2605C26.8956 45.1774 25.9084 44.446 25.0077 45.3985C22.8321 44.8829 20.7388 45.4282 18.6353 45.8654C17.2044 45.5941 15.7443 44.5768 14.3782 46.0204C14.1654 45.9214 13.9519 45.916 13.737 46.0085C13.5146 45.9465 13.2927 45.8802 13.0702 45.8181C11.5851 45.1511 10.0871 45.3732 8.5842 45.7482C8.38907 45.9416 8.19333 46.1392 7.9982 46.3327C7.02013 46.6941 6.26962 47.4381 6.93271 48.3656C7.79886 49.5783 9.13742 49.8362 10.528 49.0527C11.7296 48.924 12.9619 49.8274 14.1378 48.9574Z" fill="#FF671F"/>
<path d="M11.2801 63.444C15.9862 63.6226 20.6828 63.5995 25.3145 62.6033C25.7679 62.669 26.2267 62.7269 26.6801 62.7926C28.0735 63.3227 29.2622 62.8682 30.4824 62.1666C31.1407 61.793 32.2312 61.7804 32.0499 60.782C31.8536 59.709 30.8477 59.6699 29.9142 59.8416C28.31 59.4941 26.7127 58.8918 25.0768 59.7122C22.2208 59.8997 19.3271 59.4592 16.5126 60.2496C14.3841 59.9114 12.2371 58.9012 10.1591 60.4079C9.94012 60.4103 9.73254 60.4527 9.52852 60.5298C8.39867 60.3107 7.07564 60.1233 6.91401 61.6263C6.77481 62.8852 7.85022 63.5697 9.06826 63.7717C9.82572 63.8985 10.6263 64.1125 11.2759 63.4434L11.2801 63.444Z" fill="#FF671F"/>
<path d="M12.5328 78.9905C13.5054 79.2593 14.4479 79.1742 15.3654 78.7571C18.2528 78.8854 21.1094 78.6341 23.9447 78.0854C24.4392 77.9268 24.9342 77.764 25.4286 77.6054C26.4215 77.438 27.5107 77.4636 28.3851 77.0488C29.287 76.6209 30.6052 76.2192 30.0891 74.6308C29.6036 73.1279 28.3538 74.0938 27.5029 73.8426C27.0262 73.7011 26.3195 74.3193 25.7183 74.5946C24.2176 74.4795 22.7146 74.3513 21.4533 75.4264C20.4151 75.3144 19.3601 74.5775 18.3605 75.5327C18.1914 75.4272 18.0463 75.4531 17.9249 75.6103C17.3349 75.4523 16.7998 75.507 16.3872 76.0186C15.439 75.9068 14.4536 75.1927 13.5655 76.1769C12.391 76.2071 11.154 75.6911 10.0801 76.5674C8.83959 76.6392 7.55906 76.5433 6.37651 76.8367C5.34456 77.0965 3.95133 77.5428 4.33434 79.0437C4.64265 80.2608 5.94903 80.2966 6.92928 80.1572C8.8154 79.8889 10.6699 79.3944 12.537 78.9912L12.5328 78.9905Z" fill="#FF671F"/>
<path d="M4.71505 94.1533C6.63281 94.0218 8.56841 94.0634 10.4933 94.031C12.403 93.5103 14.3995 94.4348 16.2975 93.6993C16.5002 93.7798 16.6879 93.7558 16.8656 93.6238C18.9464 94.2322 21.0486 93.7735 23.1438 93.7786C24.1261 93.9806 25.1065 94.3144 26.071 93.7208L26.3757 93.7777L26.6649 93.6747C28.0392 94.1296 28.531 93.6039 28.5228 92.2085C28.5161 91.099 28.1203 90.3978 27.0209 90.3537C25.8956 90.3101 24.763 90.4658 23.6299 90.5361C23.0621 90.2833 22.511 90.1225 22.0653 90.7444C21.1927 90.6436 20.3571 90.0791 19.4395 90.526C16.5857 89.7502 13.8063 90.8015 10.9829 90.853C8.95899 90.918 6.9641 90.7825 4.94593 90.5413C3.29001 90.3441 1.38882 91.3094 1.40285 92.9018C1.41265 94.5234 3.32875 94.2552 4.72284 94.1587L4.71505 94.1533ZM16.4723 91.5714C16.8303 91.0818 17.3624 91.0779 17.8932 91.0823C17.3582 91.0773 16.8261 91.0812 16.4723 91.5714Z" fill="#FF671F"/>
</g>
<defs>
<clipPath id="clip0_884_635">
<rect width="94.7847" height="29.2867" fill="white" transform="matrix(-0.143125 0.989705 -0.989671 -0.14336 42.5503 4.19849)"/>
</clipPath>
</defs>
</svg>
