<svg width="56" height="86" viewBox="0 0 56 86" fill="none" xmlns="http://www.w3.org/2000/svg">
<path d="M2.26066 14.0436C4.58106 14.1321 6.85501 14.0104 8.8701 12.6592C10.2614 13.2189 11.652 13.7649 12.7407 12.1327C14.6246 12.9747 16.2939 12.239 17.95 11.4163C19.6394 11.6303 21.3504 12.1202 23.0096 11.9756C24.3563 11.8591 25.5746 11.0471 27.0401 11.8203C27.721 12.1816 28.5275 11.6513 29.037 10.9821C29.6404 10.7563 30.4285 11.0389 30.8427 10.3049L30.8651 10.29C31.3936 10.243 31.7666 10.9366 32.3564 10.6145C34.744 10.5569 37.1272 10.504 39.5148 10.4464C39.7534 10.8232 39.3892 12.1502 40.4596 11.2341C41.5167 10.3278 41.4333 11.7436 41.9706 11.7884C42.1531 11.6417 42.3311 11.4952 42.5136 11.3485C43.0312 11.5695 43.4808 11.4107 43.9003 11.0963C44.3486 11.8235 45.4632 11.1684 45.8439 12.0324C45.8347 12.0329 45.8209 12.0335 45.8116 12.0339C45.8125 12.0523 45.8087 12.071 45.8047 12.085C45.5012 12.4125 45.2023 12.7399 44.8988 13.0674C44.7611 13.3875 44.6281 13.7119 44.4904 14.0319C41.1182 14.2542 37.7504 14.4718 34.3836 14.7123C33.9238 14.747 33.4788 14.9057 33.0264 15.0046C31.43 15.1094 29.838 15.2094 28.2416 15.3142C24.7798 14.8853 21.5013 16.46 18.0637 16.2562C16.6987 16.1751 15.5115 16.552 14.4262 17.3442C14.0009 16.9206 13.5099 16.7767 12.9385 16.9965C11.0687 16.8737 9.54736 18.2256 7.60392 18.2077C6.93455 18.2012 6.25127 20.0226 5.54543 21.0421C6.03666 21.3935 6.80676 20.5695 7.02376 21.4871C6.17472 23.113 7.35499 23.7008 8.47665 24.319C8.55324 24.6846 8.37781 25.191 8.99423 25.2506C8.75265 26.0276 7.29437 26.4306 8.2743 27.5859C8.40886 28.1104 8.73431 28.6724 8.64554 29.1563C8.33149 30.8779 9.16452 31.2369 10.6134 31.0327C10.9646 31.1459 11.316 31.2638 11.6672 31.3771C13.1636 30.5939 14.6267 29.6877 16.4391 30.1729C17.2916 30.6556 18.5854 29.5771 19.1917 30.9385C19.0441 28.9057 20.587 30.3676 21.2233 29.9511C21.0683 29.4828 20.2455 29.0449 21.1539 28.5238C22.033 29.3883 23.0875 28.8328 24.0677 28.876C24.3656 28.7287 24.6588 28.5815 24.9567 28.4342C25.0393 28.9334 25.1268 29.437 25.2094 29.9362C25.5573 29.6712 25.9054 29.4109 26.2579 29.1457C26.5922 28.3784 27.3982 29.057 27.8451 28.6353C28.1568 28.2843 28.4685 27.9333 28.7804 27.5869C28.9772 27.1442 29.3483 27.0858 29.7704 27.1359C29.7738 27.8186 30.1603 28.101 30.7939 28.1322C30.7673 28.6641 30.6635 29.2225 31.3127 29.4976C31.5135 29.5485 31.7142 29.5993 31.9149 29.6502C31.7089 29.7888 31.5028 29.9227 31.3014 30.061C30.9749 30.0851 30.6483 30.1092 30.3218 30.1332C29.7808 29.904 29.6942 29.0127 28.8979 29.1596C28.8908 29.3076 28.8881 29.4508 28.8856 29.5986C28.7313 29.6563 28.5796 29.6678 28.4165 29.6337C28.0885 29.6255 27.7557 29.6129 27.4277 29.6048C26.8138 30.0064 26.1955 30.4129 25.5816 30.8145C24.5995 30.2223 23.6791 31.6991 22.692 30.8949C22.521 30.9904 22.3454 31.086 22.1744 31.1815C21.3955 31.3045 20.6167 31.4275 19.8378 31.5506L19.873 31.4105C19.5563 31.651 19.2396 31.8915 18.9229 32.132C17.5269 31.4663 16.4926 32.1639 15.5034 33.0394C14.6205 33.1071 13.7916 33.8554 12.8508 33.2567C12.8292 33.493 12.8947 33.8177 12.7668 33.9481C12.2412 34.4657 11.6576 34.9259 11.0981 35.4081C12.4877 36.3371 11.9235 38.0377 12.6236 39.2287C12.6738 39.3187 13.1689 39.144 13.4573 39.094C13.3696 39.4994 13.4485 39.8142 13.9102 39.9224C14.2926 40.0112 14.4259 39.7975 14.4804 39.472C14.6206 39.4103 14.7673 39.3898 14.916 39.4107C16.7528 40.4348 17.879 39.0178 19.1694 38.1702C19.4943 37.6017 19.8518 38.1576 20.1923 38.1376C21.6596 38.034 23.2208 38.5768 24.5579 37.5379C24.8417 37.4881 25.13 37.4335 25.4138 37.3837C25.5634 37.4276 25.7133 37.4762 25.8586 37.525C26.7619 38.213 27.4196 36.845 28.2866 37.2394C28.4197 37.3256 28.5585 37.3332 28.6981 37.2576C29.6849 37.5497 30.6639 37.5652 31.6238 37.1617C32.6854 38.184 33.5673 36.9765 34.5433 36.9276C35.1972 36.6949 35.7819 37.8865 36.4672 37.0248C37.4813 37.4079 38.8283 36.7884 39.5723 38.1343C39.7132 38.3909 40.3208 38.0542 40.685 37.6408C41.4442 36.7804 41.3738 37.9741 41.7244 38.175C41.9238 39.2134 42.6346 39.7257 43.5792 40.0012C43.4829 40.3193 43.3864 40.6328 43.2947 40.9508C43.122 41.1109 42.9542 41.2754 42.7815 41.4355C42.0636 41.3758 41.2893 41.0926 40.8016 41.9361C40.532 41.9945 40.2668 42.048 39.9972 42.1064C38.1507 41.5812 36.5597 43.0239 34.7498 42.7969C30.2561 43.0148 25.7768 43.3473 21.3671 44.2951C19.0163 43.742 16.9395 44.6484 14.9259 45.6258C12.6867 46.7149 13.5761 48.5203 14.4786 49.799C15.2482 50.8945 16.6819 51.2724 17.8971 49.9852C18.0852 51.0795 18.3206 52.0978 19.7666 51.1185C20.8731 51.7097 21.3134 50.9375 21.7483 50.1518C22.0604 51.3328 22.4846 52.3425 23.9912 51.4804C25.0795 50.8542 26.7547 52.0794 27.4889 50.3618C29.2711 51.9098 31.3784 52.1832 32.7387 51.0463C34.0047 50.6751 34.814 52.544 36.1618 51.7399C36.4523 51.736 36.743 51.7366 37.0335 51.7326C37.9669 51.0489 38.2312 52.6011 39.0404 52.3337C39.6256 51.9103 40.2105 51.4777 40.9998 51.5849C41.9481 53.1614 42.873 52.6995 43.7947 51.5549C43.9144 51.5494 44.0387 51.5438 44.1589 51.5475C44.2516 52.1663 44.3445 52.7896 44.4326 53.4085C43.922 54.4607 42.3656 53.7193 41.9153 54.8794C41.7575 54.8589 41.6355 54.9152 41.5444 55.0439C40.7499 55.0246 39.9553 55.0053 39.1606 54.9814C35.8045 55.1523 32.4484 55.3231 29.0923 55.494C28.4132 54.6619 27.7817 54.8798 27.1719 55.5766C24.5731 56.1652 21.9147 55.4415 19.2114 56.6763C17.4439 57.4856 18.1279 58.119 18.3023 59.0109C18.3857 59.427 18.8485 59.7613 18.7246 60.2837C18.1039 61.4516 19.2646 60.9975 19.6231 61.2719C20.5505 62.6926 21.9255 61.7765 23.0953 61.931C23.933 61.8837 24.7706 61.8365 25.6085 61.7938C26.2147 61.6279 26.816 61.4575 27.4222 61.2916C28.8991 61.8059 30.3694 61.9745 31.8315 61.2482C32.4287 61.1888 33.0212 61.1296 33.6186 61.0748C34.5969 61.7871 35.53 61.7079 36.4114 60.8972C36.6555 60.4801 37.0302 60.5 37.4226 60.6068C37.8042 61.3877 38.393 60.8396 38.8959 60.8398C39.765 61.7878 40.8689 60.8979 41.8202 61.2192C42.9215 62.3043 44.2469 62.8348 45.7914 62.8062C46.3033 62.6999 46.1129 61.4534 47.0483 62.0339C47.0495 62.1631 47.1004 62.2669 47.2101 62.3449C47.0409 62.9894 46.8764 63.6337 46.707 64.2735C43.5259 64.7409 40.3245 64.3557 37.1348 64.4313C31.2346 64.5654 25.3657 65.0856 19.4854 65.5557C18.4371 65.6402 17.575 66.0623 16.6801 66.4767C15.9516 65.8776 15.4421 66.8513 15.4885 66.9599C16.0858 68.3263 16.6329 69.7042 17.1442 71.1068C17.329 71.6199 18.9593 71.855 19.8976 71.7893C21.1208 71.6969 22.4271 71.8083 23.5693 71.152C24.8331 71.8513 26.1503 71.2886 27.4441 71.3267C27.739 71.3179 28.0293 71.3094 28.3242 71.3006C29.3869 71.6353 30.4125 71.7641 31.2203 70.7538L31.1993 70.6994C33.2945 71.5179 35.3891 70.3938 37.4843 70.7047C37.6597 71.112 37.8397 71.5192 38.0148 71.9219C37.5078 73.6614 35.8543 71.9 35.0955 72.8712C33.0665 73.3048 30.92 72.8808 28.946 73.7133C28.946 73.7133 28.946 73.7133 28.9458 73.7087C28.1546 73.7631 27.3372 73.4449 26.5774 73.8855C26.4194 73.8604 26.262 73.849 26.105 73.8469C25.125 73.3008 24.6295 74.6845 23.7232 74.4396C22.3772 74.0624 21.2946 75.0159 20.0521 75.1923C19.2452 75.3074 18.7656 76.3305 19.0459 76.71C19.9256 77.8928 18.9685 79.2744 19.6793 80.3957C18.9821 80.6904 18.8991 81.3033 18.8683 81.946C18.7724 82.8825 18.6039 83.8453 19.7295 84.3479C20.4859 85.4579 21.4153 84.5852 22.268 84.5649C22.4018 84.6649 22.5512 84.7043 22.7206 84.6735C22.7214 84.4889 22.722 84.2997 22.7183 84.1153C22.9879 83.6509 23.3056 83.3319 23.6655 83.1264C23.3054 83.3273 22.9877 83.6463 22.7183 84.1153C22.7174 84.2999 22.7168 84.4891 22.7206 84.6735C25.0087 85.1695 27.2747 85.2789 29.4876 84.3201C30.4516 84.7193 31.3122 83.3467 32.2997 84.1602C32.7109 84.6814 32.9037 83.9482 33.229 83.998C34.6211 84.8807 35.8374 83.6212 37.1596 83.6765C39.3323 83.9654 39.122 81.2664 40.7172 80.8294C41.0446 80.2147 42.5362 79.6302 40.7661 78.9584C40.8115 78.1304 39.9381 77.1872 41.0647 76.49C42.0477 77.7143 42.9581 77.2346 43.856 76.3817C44.0337 76.2306 44.2115 76.0795 44.389 75.9238C45.2069 76.7634 46.4163 76.0624 47.2971 76.6592C48.2247 76.9678 48.8544 76.0994 49.687 76.0431C50.8466 76.3781 51.5762 76.0866 51.5843 74.7388C52.0692 74.2415 52.99 74.0936 52.8998 73.1241C52.7429 73.122 52.5907 73.1242 52.4341 73.1314C52.1589 73.1669 51.879 73.2027 51.6038 73.2383C51.4753 73.5579 51.3421 73.8777 51.2138 74.2019C51.3423 73.8823 51.4755 73.5625 51.6038 73.2383C51.8836 73.2025 52.1589 73.1669 52.4343 73.136C52.5909 73.1289 52.7475 73.1217 52.9001 73.1287C53.8368 71.0974 52.1149 69.6574 51.7405 67.9164C52.9265 67.3088 52.8121 65.9066 53.5234 65.0068C54.9486 64.7899 54.0398 63.6775 54.291 63.0109C54.5581 62.3897 55.153 61.6705 53.8406 61.5271C53.2984 60.6611 52.8492 59.9156 51.4908 60.3833C50.5049 60.7234 51.7483 58.6366 50.3302 58.9087C50.3733 59.8572 50.4164 60.8058 50.464 61.7542C50.7131 62.3612 51.0708 62.4142 51.4597 62.3412C51.0754 62.414 50.7131 62.3612 50.464 61.7542C50.421 60.8056 50.3779 59.857 50.3302 58.9087C50.1766 58.8787 50.0278 58.8532 49.8741 58.8232C49.8154 58.0368 49.7568 57.2551 49.698 56.4687C51.3464 55.5771 51.5195 54.208 50.9528 52.6003C51.2857 50.278 49.2881 50.1841 47.9496 49.4651C47.3185 49.2861 46.6921 49.1069 46.061 48.9279C45.6437 48.1717 44.4447 48.8998 44.1465 47.9213C43.3549 47.3573 42.5026 47.7929 41.6756 47.7704C41.3468 47.6423 41.018 47.5142 40.6891 47.3861C40.3522 47.0784 40.015 46.7661 39.678 46.4584C38.3036 47.2868 39.1422 45.8367 38.7994 45.6031C39.11 45.6351 39.5121 45.3446 39.6921 45.8533C39.8438 45.8418 39.9922 45.8581 40.1329 45.9071C40.6812 47.1096 41.13 46.4247 41.5878 45.8364C43.0274 45.7341 44.5608 45.8675 45.4036 44.3065C46.3383 44.4671 47.0492 44.2687 47.1932 43.1732C47.3699 42.8976 47.5466 42.6219 47.7232 42.3463C49.9529 41.5529 48.9717 40.167 48.3673 38.847C47.9872 37.9968 47.9259 36.9521 46.9305 36.4713C45.5516 35.6757 44.3334 34.4574 42.5319 34.7192C42.2594 34.2055 42.1349 33.5975 41.5581 33.2914C41.5708 33.1662 41.5698 33.0417 41.5595 32.9176C41.7067 32.6017 41.8493 32.2861 41.9964 31.9703C42.9473 32.1809 43.5721 31.8157 43.8955 30.9104C44.6984 31.52 45.4816 31.5952 46.226 30.8138C46.9463 30.3151 47.5428 29.7343 47.5265 28.766C49.142 28.1666 48.4968 27.2684 47.8421 26.3661C48.8902 24.0436 46.9679 24.6939 45.9326 24.4548C45.7736 24.0006 45.3857 23.9951 45.0023 23.9848C44.4948 22.6651 43.6229 24.0936 42.9881 23.7302C42.8102 23.5722 42.6323 23.4141 42.459 23.2559C42.3613 22.6282 41.3692 22.6271 41.4772 21.8562C41.7863 21.856 42.0955 21.8558 42.4044 21.851C43.208 22.3728 43.8325 22.5106 43.7874 21.2114C43.9484 20.8949 44.1045 20.5741 44.2609 20.2578C45.8617 19.4376 47.9161 19.4597 49.0033 17.6938C49.8971 17.6624 49.7357 19.0864 50.7161 18.9311C50.7653 18.4905 50.8189 18.0451 50.8681 17.6045C51.815 17.1185 51.9402 18.045 52.3516 18.4692C53.8602 17.3441 55.3363 16.2158 55.0662 14.027C54.095 13.7758 54.2466 12.846 53.9582 12.1854C53.3255 11.8681 52.6879 11.5463 52.0552 11.229C51.4053 11.7522 50.8142 12.0467 50.6304 10.8461C50.2621 10.5583 49.8889 10.2661 49.5205 9.97825C48.5577 9.20061 46.8642 10.0112 46.2501 8.47943C46.0381 8.99202 45.588 9.14165 45.098 9.22388C45.588 9.14165 46.0383 8.99662 46.2501 8.47943C45.6783 7.16723 46.9257 6.6907 47.4626 5.91419C48.8357 3.94151 48.4808 2.6287 46.3427 1.98287C45.6815 1.85139 45.0249 1.71971 44.3683 1.58802C40.8535 0.49713 37.261 1.15398 33.7022 1.02487C32.0243 0.962618 30.4248 0.998331 28.893 1.71389C26.4906 0.835503 24.2105 1.94034 21.8803 2.14304C21.5588 1.77004 21.2423 1.40603 20.9252 2.14488C19.064 2.61699 17.2497 3.10543 15.2522 3.01617C14.0269 2.96106 12.7363 3.70258 11.5271 4.20507C11.2372 4.32436 10.9902 4.77855 11.3317 5.39059C11.9092 6.42105 11.3057 7.56051 10.2732 7.4828C8.32846 7.33577 6.77511 8.59218 4.92335 8.5609C4.3398 8.31054 4.12734 8.7124 3.92031 9.13248C3.46108 9.18102 3.00206 9.23416 2.54283 9.2827C2.14933 9.25442 1.71397 9.1173 1.57392 9.69122C1.50942 10.3032 -0.236626 9.958 0.736187 11.1597L0.67632 11.2639C0.393264 12.6519 0.0292017 14.085 2.26045 14.039L2.26066 14.0436ZM45.756 37.0276C45.8485 37.0326 45.945 37.0236 46.0501 37.0004C45.9452 37.0282 45.8485 37.0326 45.756 37.0276ZM52.554 62.3561C52.7421 62.5367 52.9943 62.6037 53.2759 62.6048C52.9941 62.5991 52.7465 62.5319 52.5538 62.3515L52.554 62.3561ZM50.3113 68.4519C50.4679 68.4448 50.624 68.4285 50.7758 68.417C50.6194 68.4287 50.4631 68.4404 50.3113 68.4519ZM39.1436 76.1527C38.8236 76.015 38.5036 75.8772 38.179 75.7397C37.7231 76.0649 37.3057 76.1208 36.9957 76.0011C37.3057 76.1208 37.7228 76.0603 38.179 75.7397C38.499 75.8774 38.819 76.0152 39.1436 76.1527ZM47.2892 70.4902C47.2201 70.4934 47.1557 70.4963 47.0866 70.4994C45.1118 69.0802 42.8732 70.0817 40.7755 69.817C39.9435 70.0901 39.1668 69.4471 38.3723 69.1232C39.1666 69.4425 39.9435 70.0901 40.7753 69.8124C42.8776 70.0768 45.1116 69.0756 47.0864 70.4948C47.1555 70.4917 47.2199 70.4888 47.289 70.4856L47.2892 70.4902ZM48.056 60.853C48.0633 61.0142 48.0658 61.171 48.0685 61.3323C48.0612 61.1712 48.0541 61.0146 48.056 60.853ZM49.0101 63.4722C48.6794 63.7087 48.0996 63.9473 47.2338 64.2911C48.095 63.9475 48.6792 63.7041 49.0101 63.4722ZM32.3517 59.9003C32.1211 59.8 31.8912 59.9212 31.6603 60.6285C31.371 60.7616 31.101 60.7092 30.8325 60.5876C31.1013 60.7138 31.371 60.7616 31.6603 60.6285C31.8914 59.9258 32.1208 59.7954 32.3517 59.9003ZM34.5741 60.1686C34.5679 60.538 34.4722 60.8699 33.9242 60.9963C33.88 61.0399 33.835 61.065 33.785 61.0811C33.8352 61.0696 33.88 61.0399 33.9244 61.0009C34.477 60.8743 34.5729 60.547 34.579 60.1729L34.5741 60.1686ZM46.3406 58.4392C45.5496 58.9042 44.705 59.3071 44.6516 60.4677C44.705 59.3071 45.554 58.8994 46.3406 58.4392ZM40.6432 50.0322C40.6961 50.0805 40.7535 50.1241 40.8244 50.1624C40.7535 50.1241 40.6915 50.0807 40.6432 50.0322ZM24.3108 44.6967C23.6703 44.8181 23.0363 44.8791 22.4308 44.7544C23.0365 44.8838 23.6703 44.8181 24.3108 44.6967ZM28.8025 49.3147C29.011 49.942 29.2783 50.1375 29.569 50.1382C29.2783 50.1375 29.0112 49.9466 28.8025 49.3147ZM30.1086 46.879C29.9443 46.7158 29.7751 46.5481 29.6108 46.3848C29.3021 46.3942 28.9934 46.4036 28.6844 46.4084C28.9932 46.399 29.3019 46.3896 29.6108 46.3848C29.7751 46.5481 29.9443 46.7158 30.1086 46.879ZM31.5897 46.2673C31.2512 46.1304 30.913 45.9981 30.5791 45.861C30.9176 45.9979 31.2558 46.1302 31.5897 46.2673ZM33.4319 44.9701C33.4195 45.206 33.4739 45.4896 33.4278 45.6947C33.4737 45.485 33.4193 45.2014 33.4319 44.9701ZM34.9583 45.7637C34.7844 45.8961 34.6058 46.0288 34.4266 46.1477C34.6106 46.0332 34.7844 45.8961 34.9583 45.7637ZM35.8098 50.187C35.7945 50.0539 35.72 49.9373 35.5503 49.8574C35.7202 49.9419 35.7945 50.0539 35.8098 50.187ZM36.7682 45.077C36.3875 45.0251 36.0677 45.095 35.7738 45.2283C36.0677 45.095 36.3873 45.0205 36.7682 45.077ZM39.5016 50.7023C39.4626 50.5564 39.4281 50.4057 39.403 50.2592C39.3846 50.2601 39.3659 50.2563 39.3427 50.2527C39.3611 50.2519 39.3798 50.2557 39.403 50.2592C39.4329 50.4101 39.4672 50.5562 39.5016 50.7023ZM41.5753 44.8495C41.4694 44.6513 41.3124 44.5477 41.1433 44.4815C41.3168 44.5429 41.4694 44.6513 41.5753 44.8495ZM44.9991 42.816C45.0934 42.964 45.2008 43.0929 45.3434 43.1834C45.2008 43.0929 45.0888 42.9642 44.9991 42.816ZM42.6025 37.1892C42.7645 37.0988 42.8746 36.9831 42.9473 36.8552C42.8748 36.9877 42.7647 37.1034 42.6027 37.1938L42.6025 37.1892ZM25.6734 35.277C24.6673 35.4749 23.6084 35.5276 22.9467 36.5036C23.6038 35.5278 24.6627 35.4751 25.6734 35.277ZM28.9234 30.1275C28.9234 30.1275 28.9138 30.1187 28.9136 30.1141C28.2771 30.1199 27.8272 30.9848 27.2788 31.4065C27.827 30.9802 28.2769 30.1153 28.9136 30.1141C28.9138 30.1187 28.9232 30.1229 28.9234 30.1275ZM10.09 24.7902C10.0559 24.9533 9.99014 25.0301 9.8993 25.0619C9.98553 25.0303 10.0559 24.9533 10.09 24.7902ZM11.6836 29.909C11.3163 30.0502 10.9552 30.2281 10.6061 30.4655C10.9598 30.2279 11.3163 30.0502 11.6836 29.909ZM16.9824 23.1345C16.1885 23.8396 15.766 25.1047 14.7569 25.4412C15.7658 25.1001 16.1885 23.8396 16.9778 23.1347L16.9824 23.1345ZM26.9125 27.3025C26.3059 27.5608 25.6692 27.7651 24.9808 27.8471C24.9402 27.0553 24.8996 26.2634 24.8545 25.4718C24.895 26.2636 24.9356 27.0555 24.9808 27.8471C25.669 27.7605 26.3059 27.5608 26.9125 27.3025ZM33.2819 22.0529C32.9918 22.1676 32.6908 22.2459 32.382 22.2553C32.2332 22.2298 32.0674 22.1358 31.9069 22.0554C32.0674 22.1358 32.2288 22.2346 32.382 22.2553C32.691 22.2505 32.9918 22.1676 33.2819 22.0529ZM33.7684 32.2608C33.6588 31.4721 32.9392 31.3756 32.3029 31.183C32.9392 31.3756 33.659 31.4767 33.7684 32.2608ZM37.1348 32.1126C37.1559 32.2731 37.19 32.4146 37.2373 32.5417C37.1854 32.4148 37.1513 32.2733 37.1348 32.1126ZM35.9835 29.9269C36.302 29.9309 36.6631 29.8545 37.0585 29.7212C36.6677 29.8543 36.3066 29.9307 35.9835 29.9269ZM35.5475 28.3548C35.2306 28.3876 34.9094 28.4253 34.5925 28.4581C34.9094 28.4253 35.2309 28.3922 35.5475 28.3548ZM38.844 26.77C38.7055 26.5641 38.5389 26.4516 38.3564 26.3953C38.5391 26.4563 38.7055 26.5641 38.844 26.77ZM46.5327 17.4461C46.3887 17.1204 46.1608 16.7754 46.1888 16.4788C46.1608 16.7754 46.3933 17.1202 46.5327 17.4461ZM31.5276 9.84005C32.0756 9.71366 32.7079 9.92028 33.2224 9.6662C35.336 9.87478 37.4892 9.02487 39.5731 9.89926C37.4844 9.02048 35.3358 9.87017 33.2224 9.6662C32.7079 9.92028 32.0758 9.71826 31.5276 9.84005ZM2.70026 13.0547C2.69775 12.9994 2.68582 12.94 2.67892 12.8895C2.69063 12.9444 2.69775 12.9994 2.70026 13.0547Z" fill="#0E33CA"/>
</svg>
