<svg width="237" height="273" viewBox="0 0 237 273" fill="none" xmlns="http://www.w3.org/2000/svg">
<g clip-path="url(#clip0_1005_670)">
<path d="M194.239 95.3191C193.932 97.0385 192.295 98.1826 190.572 97.8819C188.85 97.5746 187.701 95.9337 188.008 94.2143C188.315 92.4948 189.952 91.3508 191.675 91.6515C193.397 91.9588 194.546 93.5997 194.239 95.3191Z" fill="#F5F5F5"/>
<path d="M193.502 95.1885C193.267 96.496 192.021 97.372 190.709 97.1367C189.398 96.9013 188.523 95.6526 188.758 94.3451C188.993 93.0376 190.239 92.1615 191.551 92.3903C192.862 92.6257 193.736 93.8744 193.502 95.1819V95.1885Z" fill="#ECECEC"/>
<path d="M193.514 95.1165C193.514 95.1165 193.514 95.0054 193.501 94.8223C193.495 94.6327 193.469 94.3582 193.358 94.0444C193.299 93.8875 193.227 93.724 193.123 93.554C193.019 93.3906 192.888 93.2271 192.725 93.0768C192.647 93.0049 192.555 92.933 192.464 92.8676C192.373 92.8022 192.268 92.7434 192.164 92.6911C192.06 92.6388 191.949 92.593 191.831 92.5603C191.714 92.5276 191.59 92.4949 191.466 92.4753C191.342 92.4557 191.218 92.4492 191.094 92.4492C190.97 92.4492 190.852 92.4622 190.735 92.4819C190.618 92.5015 190.507 92.5276 190.396 92.5668C190.285 92.5995 190.18 92.6453 190.083 92.6911C189.887 92.7891 189.717 92.9068 189.567 93.031C189.424 93.1618 189.3 93.2991 189.202 93.4298C189.006 93.6979 188.902 93.9528 188.843 94.1359C188.784 94.3124 188.765 94.417 188.745 94.417C188.732 94.417 188.732 94.3059 188.771 94.1163C188.81 93.9267 188.902 93.6521 189.091 93.3579C189.189 93.2141 189.313 93.0572 189.463 92.9199C189.613 92.7761 189.796 92.6453 190.004 92.5407C190.109 92.4884 190.22 92.4361 190.337 92.3969C190.455 92.3576 190.572 92.325 190.702 92.3053C190.826 92.2857 190.957 92.2661 191.087 92.2661C191.218 92.2661 191.355 92.2726 191.485 92.2923C191.622 92.3119 191.753 92.3446 191.877 92.3838C192.001 92.423 192.125 92.4753 192.236 92.5276C192.353 92.5865 192.458 92.6518 192.555 92.7237C192.653 92.7957 192.751 92.8741 192.829 92.9526C192.999 93.116 193.136 93.2925 193.24 93.469C193.345 93.6456 193.423 93.8286 193.469 93.9986C193.573 94.3386 193.573 94.6262 193.56 94.8158C193.541 95.0119 193.508 95.11 193.501 95.11L193.514 95.1165Z" fill="#BEBEBF"/>
<path d="M191.146 96.2344L191.081 96.6528L190.709 96.594L190.774 96.1886C190.409 96.1036 190.076 95.9336 189.9 95.7441L190.174 95.3256C190.337 95.4956 190.585 95.6395 190.852 95.7048L190.95 95.0838C190.559 94.9138 190.122 94.7046 190.207 94.175C190.272 93.7828 190.611 93.4886 191.205 93.5213L191.27 93.1094L191.642 93.1682L191.577 93.5736C191.851 93.6389 192.112 93.7566 192.294 93.92L192.033 94.345C191.864 94.2077 191.681 94.1096 191.498 94.0573L191.394 94.685C191.792 94.8484 192.216 95.0576 192.131 95.5806C192.066 95.9663 191.733 96.254 191.14 96.2278L191.146 96.2344ZM191.042 94.5346L191.126 94.005C190.924 94.0181 190.826 94.1096 190.807 94.2339C190.787 94.3646 190.885 94.4496 191.042 94.528V94.5346ZM191.531 95.5349C191.551 95.4041 191.459 95.3191 191.309 95.2341L191.224 95.7441C191.414 95.731 191.511 95.6525 191.531 95.5349Z" fill="#BEBEBF"/>
<path d="M123.396 44.9988V48.9214" stroke="white" stroke-linecap="round" stroke-linejoin="round"/>
<path d="M123.396 53.1514V59.4929" stroke="white" stroke-linecap="round" stroke-linejoin="round"/>
<path d="M123.396 61.6111V65.5337" stroke="white" stroke-linecap="round" stroke-linejoin="round"/>
<path d="M185.836 111.369H181.921" stroke="white" stroke-linecap="round" stroke-linejoin="round"/>
<path d="M177.7 111.369H171.371" stroke="white" stroke-linecap="round" stroke-linejoin="round"/>
<path d="M169.257 111.369H165.342" stroke="white" stroke-linecap="round" stroke-linejoin="round"/>
<path d="M81.4444 111.369H77.5298" stroke="white" stroke-linecap="round" stroke-linejoin="round"/>
<path d="M73.3087 111.369H66.98" stroke="white" stroke-linecap="round" stroke-linejoin="round"/>
<path d="M64.8658 111.369H60.9512" stroke="white" stroke-linecap="round" stroke-linejoin="round"/>
<path d="M231.271 124.667C231.271 123.974 231.637 123.582 232.302 123.582C232.968 123.582 233.333 123.98 233.333 124.667V126.916C233.333 127.609 232.968 128.001 232.302 128.001C231.637 128.001 231.271 127.602 231.271 126.916V124.667ZM231.95 126.962C231.95 127.269 232.087 127.386 232.302 127.386C232.518 127.386 232.655 127.269 232.655 126.962V124.628C232.655 124.32 232.518 124.203 232.302 124.203C232.087 124.203 231.95 124.32 231.95 124.628V126.962Z" fill="white"/>
<path d="M231.748 130.361C232.27 130.361 232.387 130.106 232.491 129.819H232.948V134.147H232.27V130.845H231.748V130.361Z" fill="white"/>
<path d="M231.271 137.036C231.271 136.343 231.637 135.951 232.302 135.951C232.968 135.951 233.333 136.35 233.333 137.036V139.285C233.333 139.978 232.968 140.37 232.302 140.37C231.637 140.37 231.271 139.972 231.271 139.285V137.036ZM231.95 139.331C231.95 139.638 232.087 139.756 232.302 139.756C232.518 139.756 232.655 139.638 232.655 139.331V136.997C232.655 136.69 232.518 136.572 232.302 136.572C232.087 136.572 231.95 136.69 231.95 136.997V139.331Z" fill="white"/>
<path d="M231.748 142.73C232.27 142.73 232.387 142.475 232.491 142.188H232.948V146.516H232.27V143.214H231.748V142.73Z" fill="white"/>
<path d="M231.271 149.405C231.271 148.712 231.637 148.32 232.302 148.32C232.968 148.32 233.333 148.719 233.333 149.405V151.654C233.333 152.347 232.968 152.74 232.302 152.74C231.637 152.74 231.271 152.341 231.271 151.654V149.405ZM231.95 151.7C231.95 152.007 232.087 152.125 232.302 152.125C232.518 152.125 232.655 152.007 232.655 151.7V149.366C232.655 149.059 232.518 148.941 232.302 148.941C232.087 148.941 231.95 149.059 231.95 149.366V151.7Z" fill="white"/>
<path d="M231.748 155.1C232.27 155.1 232.387 154.845 232.491 154.557H232.948V158.885H232.27V155.584H231.748V155.1Z" fill="white"/>
<path d="M231.271 161.775C231.271 161.082 231.637 160.689 232.302 160.689C232.968 160.689 233.333 161.082 233.333 161.775V164.024C233.333 164.717 232.968 165.109 232.302 165.109C231.637 165.109 231.271 164.71 231.271 164.024V161.775ZM231.95 164.069C231.95 164.377 232.087 164.494 232.302 164.494C232.518 164.494 232.655 164.377 232.655 164.069V161.735C232.655 161.428 232.518 161.311 232.302 161.311C232.087 161.311 231.95 161.428 231.95 161.735V164.069Z" fill="white"/>
<path d="M231.271 167.959C231.271 167.266 231.637 166.874 232.302 166.874C232.968 166.874 233.333 167.273 233.333 167.959V170.208C233.333 170.901 232.968 171.293 232.302 171.293C231.637 171.293 231.271 170.901 231.271 170.208V167.959ZM231.95 170.254C231.95 170.561 232.087 170.679 232.302 170.679C232.518 170.679 232.655 170.561 232.655 170.254V167.92C232.655 167.613 232.518 167.495 232.302 167.495C232.087 167.495 231.95 167.613 231.95 167.92V170.254Z" fill="white"/>
<path d="M231.271 174.144C231.271 173.451 231.637 173.059 232.302 173.059C232.968 173.059 233.333 173.451 233.333 174.144V176.393C233.333 177.086 232.968 177.478 232.302 177.478C231.637 177.478 231.271 177.079 231.271 176.393V174.144ZM231.95 176.439C231.95 176.746 232.087 176.864 232.302 176.864C232.518 176.864 232.655 176.746 232.655 176.439V174.105C232.655 173.797 232.518 173.68 232.302 173.68C232.087 173.68 231.95 173.797 231.95 174.105V176.439Z" fill="white"/>
<path d="M231.748 186.016C232.27 186.016 232.387 185.761 232.491 185.474H232.948V189.802H232.27V186.5H231.748V186.016Z" fill="white"/>
<path d="M231.748 192.201C232.27 192.201 232.387 191.946 232.491 191.658H232.948V195.986H232.27V192.685H231.748V192.201Z" fill="white"/>
<path d="M231.748 198.386C232.27 198.386 232.387 198.131 232.491 197.843H232.948V202.171H232.27V198.869H231.748V198.386Z" fill="white"/>
<path d="M231.271 205.061C231.271 204.368 231.637 203.975 232.302 203.975C232.968 203.975 233.333 204.374 233.333 205.061V207.31C233.333 208.003 232.968 208.395 232.302 208.395C231.637 208.395 231.271 207.996 231.271 207.31V205.061ZM231.95 207.355C231.95 207.663 232.087 207.78 232.302 207.78C232.518 207.78 232.655 207.663 232.655 207.355V205.021C232.655 204.714 232.518 204.596 232.302 204.596C232.087 204.596 231.95 204.714 231.95 205.021V207.355Z" fill="white"/>
<path d="M231.271 211.245C231.271 210.552 231.637 210.16 232.302 210.16C232.968 210.16 233.333 210.552 233.333 211.245V213.494C233.333 214.187 232.968 214.579 232.302 214.579C231.637 214.579 231.271 214.181 231.271 213.494V211.245ZM231.95 213.54C231.95 213.847 232.087 213.965 232.302 213.965C232.518 213.965 232.655 213.847 232.655 213.54V211.206C232.655 210.899 232.518 210.781 232.302 210.781C232.087 210.781 231.95 210.899 231.95 211.206V213.54Z" fill="white"/>
<path d="M231.748 216.939C232.27 216.939 232.387 216.684 232.491 216.397H232.948V220.725H232.27V217.423H231.748V216.939Z" fill="white"/>
<path d="M235.415 117.992C235.937 117.992 236.054 117.737 236.158 117.449H236.615V121.777H235.936V118.476H235.415V117.992Z" fill="white"/>
<path d="M235.415 124.176C235.937 124.176 236.054 123.921 236.158 123.634H236.615V127.962H235.936V124.66H235.415V124.176Z" fill="white"/>
<path d="M234.938 137.036C234.938 136.343 235.304 135.951 235.969 135.951C236.635 135.951 237 136.35 237 137.036V139.285C237 139.978 236.635 140.37 235.969 140.37C235.304 140.37 234.938 139.972 234.938 139.285V137.036ZM235.617 139.331C235.617 139.638 235.754 139.756 235.969 139.756C236.185 139.756 236.322 139.638 236.322 139.331V136.997C236.322 136.69 236.185 136.572 235.969 136.572C235.754 136.572 235.617 136.69 235.617 136.997V139.331Z" fill="white"/>
<path d="M235.415 155.1C235.937 155.1 236.054 154.845 236.158 154.557H236.615V158.885H235.936V155.584H235.415V155.1Z" fill="white"/>
<path d="M234.938 161.775C234.938 161.082 235.304 160.689 235.969 160.689C236.635 160.689 237 161.082 237 161.775V164.024C237 164.717 236.635 165.109 235.969 165.109C235.304 165.109 234.938 164.71 234.938 164.024V161.775ZM235.617 164.069C235.617 164.377 235.754 164.494 235.969 164.494C236.185 164.494 236.322 164.377 236.322 164.069V161.735C236.322 161.428 236.185 161.311 235.969 161.311C235.754 161.311 235.617 161.428 235.617 161.735V164.069Z" fill="white"/>
<path d="M235.415 167.462C235.937 167.462 236.054 167.207 236.158 166.92H236.615V171.248H235.936V167.946H235.415V167.462Z" fill="white"/>
<path d="M235.415 173.647C235.937 173.647 236.054 173.392 236.158 173.104H236.615V177.432H235.936V174.131H235.415V173.647Z" fill="white"/>
<path d="M235.415 179.832C235.937 179.832 236.054 179.577 236.158 179.289H236.615V183.617H235.936V180.315H235.415V179.832Z" fill="white"/>
<path d="M234.938 186.513C234.938 185.82 235.304 185.428 235.969 185.428C236.635 185.428 237 185.82 237 186.513V188.762C237 189.455 236.635 189.847 235.969 189.847C235.304 189.847 234.938 189.449 234.938 188.762V186.513ZM235.617 188.808C235.617 189.115 235.754 189.233 235.969 189.233C236.185 189.233 236.322 189.115 236.322 188.808V186.474C236.322 186.167 236.185 186.049 235.969 186.049C235.754 186.049 235.617 186.167 235.617 186.474V188.808Z" fill="white"/>
<path d="M234.938 192.698C234.938 192.005 235.304 191.613 235.969 191.613C236.635 191.613 237 192.011 237 192.698V194.947C237 195.64 236.635 196.032 235.969 196.032C235.304 196.032 234.938 195.64 234.938 194.947V192.698ZM235.617 194.993C235.617 195.3 235.754 195.417 235.969 195.417C236.185 195.417 236.322 195.3 236.322 194.993V192.659C236.322 192.351 236.185 192.234 235.969 192.234C235.754 192.234 235.617 192.351 235.617 192.659V194.993Z" fill="white"/>
<path d="M228.074 155.1C228.596 155.1 228.714 154.845 228.818 154.557H229.275V158.885H228.596V155.584H228.074V155.1Z" fill="white"/>
<path d="M227.598 161.775C227.598 161.082 227.964 160.689 228.629 160.689C229.295 160.689 229.66 161.082 229.66 161.775V164.024C229.66 164.717 229.295 165.109 228.629 165.109C227.964 165.109 227.598 164.71 227.598 164.024V161.775ZM228.277 164.069C228.277 164.377 228.414 164.494 228.629 164.494C228.844 164.494 228.981 164.377 228.981 164.069V161.735C228.981 161.428 228.844 161.311 228.629 161.311C228.414 161.311 228.277 161.428 228.277 161.735V164.069Z" fill="white"/>
<path d="M227.598 167.959C227.598 167.266 227.964 166.874 228.629 166.874C229.295 166.874 229.66 167.273 229.66 167.959V170.208C229.66 170.901 229.295 171.293 228.629 171.293C227.964 171.293 227.598 170.901 227.598 170.208V167.959ZM228.277 170.254C228.277 170.561 228.414 170.679 228.629 170.679C228.844 170.679 228.981 170.561 228.981 170.254V167.92C228.981 167.613 228.844 167.495 228.629 167.495C228.414 167.495 228.277 167.613 228.277 167.92V170.254Z" fill="white"/>
<path d="M228.074 173.647C228.596 173.647 228.714 173.392 228.818 173.104H229.275V177.432H228.596V174.131H228.074V173.647Z" fill="white"/>
<path d="M228.074 186.016C228.596 186.016 228.714 185.762 228.818 185.474H229.275V189.802H228.596V186.5H228.074V186.016Z" fill="white"/>
<path d="M228.074 192.201C228.596 192.201 228.714 191.946 228.818 191.658H229.275V195.986H228.596V192.685H228.074V192.201Z" fill="white"/>
<path d="M228.074 198.386C228.596 198.386 228.714 198.131 228.818 197.843H229.275V202.171H228.596V198.869H228.074V198.386Z" fill="white"/>
<path d="M223.932 137.036C223.932 136.343 224.297 135.951 224.962 135.951C225.628 135.951 225.993 136.35 225.993 137.036V139.285C225.993 139.978 225.628 140.37 224.962 140.37C224.297 140.37 223.932 139.972 223.932 139.285V137.036ZM224.61 139.331C224.61 139.638 224.747 139.756 224.962 139.756C225.178 139.756 225.315 139.638 225.315 139.331V136.997C225.315 136.69 225.178 136.572 224.962 136.572C224.747 136.572 224.61 136.69 224.61 136.997V139.331Z" fill="white"/>
<path d="M223.932 149.406C223.932 148.713 224.297 148.32 224.962 148.32C225.628 148.32 225.993 148.719 225.993 149.406V151.655C225.993 152.348 225.628 152.74 224.962 152.74C224.297 152.74 223.932 152.341 223.932 151.655V149.406ZM224.61 151.7C224.61 152.008 224.747 152.125 224.962 152.125C225.178 152.125 225.315 152.008 225.315 151.7V149.366C225.315 149.059 225.178 148.941 224.962 148.941C224.747 148.941 224.61 149.059 224.61 149.366V151.7Z" fill="white"/>
<path d="M224.408 167.463C224.93 167.463 225.047 167.208 225.151 166.92H225.608V171.248H224.93V167.946H224.408V167.463Z" fill="white"/>
<path d="M224.408 173.647C224.93 173.647 225.047 173.392 225.151 173.104H225.608V177.432H224.93V174.131H224.408V173.647Z" fill="white"/>
<path d="M224.408 192.201C224.93 192.201 225.047 191.946 225.151 191.658H225.608V195.986H224.93V192.685H224.408V192.201Z" fill="white"/>
<path d="M223.932 198.883C223.932 198.19 224.297 197.797 224.962 197.797C225.628 197.797 225.993 198.19 225.993 198.883V201.132C225.993 201.825 225.628 202.217 224.962 202.217C224.297 202.217 223.932 201.818 223.932 201.132V198.883ZM224.61 201.177C224.61 201.485 224.747 201.602 224.962 201.602C225.178 201.602 225.315 201.485 225.315 201.177V198.843C225.315 198.536 225.178 198.418 224.962 198.418C224.747 198.418 224.61 198.536 224.61 198.843V201.177Z" fill="white"/>
<path d="M224.408 204.57C224.93 204.57 225.047 204.315 225.151 204.028H225.608V208.356H224.93V205.054H224.408V204.57Z" fill="white"/>
<path d="M72.0034 143.639C72.0034 142.946 72.3688 142.554 73.0343 142.554C73.6998 142.554 74.0651 142.953 74.0651 143.639V145.888C74.0651 146.581 73.6998 146.973 73.0343 146.973C72.3688 146.973 72.0034 146.581 72.0034 145.888V143.639ZM72.682 145.934C72.682 146.241 72.819 146.359 73.0343 146.359C73.2496 146.359 73.3866 146.241 73.3866 145.934V143.6C73.3866 143.293 73.2496 143.175 73.0343 143.175C72.819 143.175 72.682 143.293 72.682 143.6V145.934Z" fill="white"/>
<path d="M72.0034 149.824C72.0034 149.131 72.3688 148.739 73.0343 148.739C73.6998 148.739 74.0651 149.131 74.0651 149.824V152.073C74.0651 152.766 73.6998 153.158 73.0343 153.158C72.3688 153.158 72.0034 152.759 72.0034 152.073V149.824ZM72.682 152.118C72.682 152.426 72.819 152.543 73.0343 152.543C73.2496 152.543 73.3866 152.426 73.3866 152.118V149.785C73.3866 149.477 73.2496 149.36 73.0343 149.36C72.819 149.36 72.682 149.477 72.682 149.785V152.118Z" fill="white"/>
<path d="M72.4795 155.512C73.0014 155.512 73.1189 155.257 73.2233 154.969H73.68V159.297H73.0014V155.995H72.4795V155.512Z" fill="white"/>
<path d="M72.0034 162.193C72.0034 161.5 72.3688 161.108 73.0343 161.108C73.6998 161.108 74.0651 161.5 74.0651 162.193V164.442C74.0651 165.135 73.6998 165.527 73.0343 165.527C72.3688 165.527 72.0034 165.129 72.0034 164.442V162.193ZM72.682 164.488C72.682 164.795 72.819 164.913 73.0343 164.913C73.2496 164.913 73.3866 164.795 73.3866 164.488V162.154C73.3866 161.847 73.2496 161.729 73.0343 161.729C72.819 161.729 72.682 161.847 72.682 162.154V164.488Z" fill="white"/>
<path d="M72.4795 167.881C73.0014 167.881 73.1189 167.626 73.2233 167.338H73.68V171.666H73.0014V168.365H72.4795V167.881Z" fill="white"/>
<path d="M72.0034 174.562C72.0034 173.869 72.3688 173.477 73.0343 173.477C73.6998 173.477 74.0651 173.869 74.0651 174.562V176.811C74.0651 177.504 73.6998 177.897 73.0343 177.897C72.3688 177.897 72.0034 177.498 72.0034 176.811V174.562ZM72.682 176.857C72.682 177.164 72.819 177.282 73.0343 177.282C73.2496 177.282 73.3866 177.164 73.3866 176.857V174.523C73.3866 174.216 73.2496 174.098 73.0343 174.098C72.819 174.098 72.682 174.216 72.682 174.523V176.857Z" fill="white"/>
<path d="M72.4795 180.25C73.0014 180.25 73.1189 179.995 73.2233 179.708H73.68V184.035H73.0014V180.734H72.4795V180.25Z" fill="white"/>
<path d="M72.0034 186.925C72.0034 186.232 72.3688 185.84 73.0343 185.84C73.6998 185.84 74.0651 186.232 74.0651 186.925V189.174C74.0651 189.867 73.6998 190.259 73.0343 190.259C72.3688 190.259 72.0034 189.86 72.0034 189.174V186.925ZM72.682 189.22C72.682 189.527 72.819 189.645 73.0343 189.645C73.2496 189.645 73.3866 189.527 73.3866 189.22V186.886C73.3866 186.579 73.2496 186.461 73.0343 186.461C72.819 186.461 72.682 186.579 72.682 186.886V189.22Z" fill="white"/>
<path d="M72.0034 193.11C72.0034 192.417 72.3688 192.024 73.0343 192.024C73.6998 192.024 74.0651 192.423 74.0651 193.11V195.359C74.0651 196.052 73.6998 196.444 73.0343 196.444C72.3688 196.444 72.0034 196.052 72.0034 195.359V193.11ZM72.682 195.404C72.682 195.712 72.819 195.829 73.0343 195.829C73.2496 195.829 73.3866 195.712 73.3866 195.404V193.07C73.3866 192.763 73.2496 192.646 73.0343 192.646C72.819 192.646 72.682 192.763 72.682 193.07V195.404Z" fill="white"/>
<path d="M72.0034 199.294C72.0034 198.601 72.3688 198.209 73.0343 198.209C73.6998 198.209 74.0651 198.601 74.0651 199.294V201.543C74.0651 202.236 73.6998 202.629 73.0343 202.629C72.3688 202.629 72.0034 202.23 72.0034 201.543V199.294ZM72.682 201.589C72.682 201.896 72.819 202.014 73.0343 202.014C73.2496 202.014 73.3866 201.896 73.3866 201.589V199.255C73.3866 198.948 73.2496 198.83 73.0343 198.83C72.819 198.83 72.682 198.948 72.682 199.255V201.589Z" fill="white"/>
<path d="M72.4795 204.989C73.0014 204.989 73.1189 204.734 73.2233 204.446H73.68V208.774H73.0014V205.472H72.4795V204.989Z" fill="white"/>
<path d="M72.4795 211.167C73.0014 211.167 73.1189 210.912 73.2233 210.624H73.68V214.952H73.0014V211.651H72.4795V211.167Z" fill="white"/>
<path d="M72.4795 217.351C73.0014 217.351 73.1189 217.096 73.2233 216.809H73.68V221.137H73.0014V217.835H72.4795V217.351Z" fill="white"/>
<path d="M72.4795 223.536C73.0014 223.536 73.1189 223.281 73.2233 222.993H73.68V227.321H73.0014V224.02H72.4795V223.536Z" fill="white"/>
<path d="M72.6821 232.512C72.6821 232.82 72.8191 232.937 73.0344 232.937C73.2498 232.937 73.3868 232.82 73.3868 232.512V230.178C73.3868 229.871 73.2498 229.753 73.0344 229.753C72.8191 229.753 72.6821 229.871 72.6821 230.178V232.512Z" fill="white"/>
<path d="M76.1465 167.881C76.6684 167.881 76.7859 167.626 76.8903 167.338H77.347V171.666H76.6684V168.365H76.1465V167.881Z" fill="white"/>
<path d="M76.1465 174.066C76.6684 174.066 76.7859 173.811 76.8903 173.523H77.347V177.851H76.6684V174.549H76.1465V174.066Z" fill="white"/>
<path d="M75.6704 186.925C75.6704 186.232 76.0358 185.84 76.7013 185.84C77.3668 185.84 77.7321 186.232 77.7321 186.925V189.174C77.7321 189.867 77.3668 190.26 76.7013 190.26C76.0358 190.26 75.6704 189.861 75.6704 189.174V186.925ZM76.3489 189.22C76.3489 189.527 76.486 189.645 76.7013 189.645C76.9166 189.645 77.0536 189.527 77.0536 189.22V186.886C77.0536 186.579 76.9166 186.461 76.7013 186.461C76.486 186.461 76.3489 186.579 76.3489 186.886V189.22Z" fill="white"/>
<path d="M76.1465 192.62C76.6684 192.62 76.7859 192.365 76.8903 192.077H77.347V196.405H76.6684V193.103H76.1465V192.62Z" fill="white"/>
<path d="M75.6704 199.294C75.6704 198.601 76.0358 198.209 76.7013 198.209C77.3668 198.209 77.7321 198.601 77.7321 199.294V201.543C77.7321 202.236 77.3668 202.629 76.7013 202.629C76.0358 202.629 75.6704 202.23 75.6704 201.543V199.294ZM76.3489 201.589C76.3489 201.896 76.486 202.014 76.7013 202.014C76.9166 202.014 77.0536 201.896 77.0536 201.589V199.255C77.0536 198.948 76.9166 198.83 76.7013 198.83C76.486 198.83 76.3489 198.948 76.3489 199.255V201.589Z" fill="white"/>
<path d="M76.3491 213.959C76.3491 214.266 76.4861 214.384 76.7014 214.384C76.9167 214.384 77.0538 214.266 77.0538 213.959V211.625C77.0538 211.317 76.9167 211.2 76.7014 211.2C76.4861 211.2 76.3491 211.317 76.3491 211.625V213.959Z" fill="white"/>
<path d="M76.1465 217.351C76.6684 217.351 76.7859 217.096 76.8903 216.809H77.347V221.137H76.6684V217.835H76.1465V217.351Z" fill="white"/>
<path d="M76.1465 223.536C76.6684 223.536 76.7859 223.281 76.8903 222.994H77.347V227.322H76.6684V224.02H76.1465V223.536Z" fill="white"/>
<path d="M75.6704 242.587C75.6704 241.894 76.0358 241.502 76.7013 241.502C77.3668 241.502 77.7321 241.894 77.7321 242.587V244.836C77.7321 245.529 77.3668 245.921 76.7013 245.921C76.0358 245.921 75.6704 245.522 75.6704 244.836V242.587ZM76.3489 244.882C76.3489 245.189 76.486 245.307 76.7013 245.307C76.9166 245.307 77.0536 245.189 77.0536 244.882V242.548C77.0536 242.24 76.9166 242.123 76.7013 242.123C76.486 242.123 76.3489 242.24 76.3489 242.548V244.882Z" fill="white"/>
<path d="M68.3369 162.193C68.3369 161.5 68.7023 161.108 69.3678 161.108C70.0333 161.108 70.3986 161.5 70.3986 162.193V164.442C70.3986 165.135 70.0333 165.527 69.3678 165.527C68.7023 165.527 68.3369 165.129 68.3369 164.442V162.193ZM69.0155 164.488C69.0155 164.795 69.1525 164.913 69.3678 164.913C69.5831 164.913 69.7201 164.795 69.7201 164.488V162.154C69.7201 161.847 69.5831 161.729 69.3678 161.729C69.1525 161.729 69.0155 161.847 69.0155 162.154V164.488Z" fill="white"/>
<path d="M68.8066 167.881C69.3286 167.881 69.446 167.626 69.5504 167.338H70.0071V171.666H69.3286V168.365H68.8066V167.881Z" fill="white"/>
<path d="M68.8066 174.066C69.3286 174.066 69.446 173.811 69.5504 173.523H70.0071V177.851H69.3286V174.549H68.8066V174.066Z" fill="white"/>
<path d="M68.3369 180.741C68.3369 180.048 68.7023 179.655 69.3678 179.655C70.0333 179.655 70.3986 180.054 70.3986 180.741V182.989C70.3986 183.682 70.0333 184.075 69.3678 184.075C68.7023 184.075 68.3369 183.682 68.3369 182.989V180.741ZM69.0155 183.035C69.0155 183.343 69.1525 183.46 69.3678 183.46C69.5831 183.46 69.7201 183.343 69.7201 183.035V180.701C69.7201 180.394 69.5831 180.276 69.3678 180.276C69.1525 180.276 69.0155 180.394 69.0155 180.701V183.035Z" fill="white"/>
<path d="M68.3369 193.11C68.3369 192.417 68.7023 192.025 69.3678 192.025C70.0333 192.025 70.3986 192.423 70.3986 193.11V195.359C70.3986 196.052 70.0333 196.444 69.3678 196.444C68.7023 196.444 68.3369 196.052 68.3369 195.359V193.11ZM69.0155 195.405C69.0155 195.712 69.1525 195.83 69.3678 195.83C69.5831 195.83 69.7201 195.712 69.7201 195.405V193.071C69.7201 192.763 69.5831 192.646 69.3678 192.646C69.1525 192.646 69.0155 192.763 69.0155 193.071V195.405Z" fill="white"/>
<path d="M68.3369 199.294C68.3369 198.601 68.7023 198.209 69.3678 198.209C70.0333 198.209 70.3986 198.601 70.3986 199.294V201.543C70.3986 202.236 70.0333 202.629 69.3678 202.629C68.7023 202.629 68.3369 202.23 68.3369 201.543V199.294ZM69.0155 201.589C69.0155 201.896 69.1525 202.014 69.3678 202.014C69.5831 202.014 69.7201 201.896 69.7201 201.589V199.255C69.7201 198.948 69.5831 198.83 69.3678 198.83C69.1525 198.83 69.0155 198.948 69.0155 199.255V201.589Z" fill="white"/>
<path d="M68.8066 204.989C69.3286 204.989 69.446 204.734 69.5504 204.446H70.0071V208.774H69.3286V205.472H68.8066V204.989Z" fill="white"/>
<path d="M68.3369 211.664C68.3369 210.971 68.7023 210.578 69.3678 210.578C70.0333 210.578 70.3986 210.977 70.3986 211.664V213.913C70.3986 214.606 70.0333 214.998 69.3678 214.998C68.7023 214.998 68.3369 214.599 68.3369 213.913V211.664ZM69.0155 213.958C69.0155 214.266 69.1525 214.383 69.3678 214.383C69.5831 214.383 69.7201 214.266 69.7201 213.958V211.624C69.7201 211.317 69.5831 211.199 69.3678 211.199C69.1525 211.199 69.0155 211.317 69.0155 211.624V213.958Z" fill="white"/>
<path d="M68.8066 217.351C69.3286 217.351 69.446 217.096 69.5504 216.809H70.0071V221.137H69.3286V217.835H68.8066V217.351Z" fill="white"/>
<path d="M64.6636 149.824C64.6636 149.131 65.0289 148.739 65.6944 148.739C66.3599 148.739 66.7253 149.137 66.7253 149.824V152.073C66.7253 152.766 66.3599 153.158 65.6944 153.158C65.0289 153.158 64.6636 152.766 64.6636 152.073V149.824ZM65.3421 152.118C65.3421 152.426 65.4791 152.543 65.6944 152.543C65.9097 152.543 66.0468 152.426 66.0468 152.118V149.785C66.0468 149.477 65.9097 149.36 65.6944 149.36C65.4791 149.36 65.3421 149.477 65.3421 149.785V152.118Z" fill="white"/>
<path d="M65.1396 161.696C65.6616 161.696 65.779 161.441 65.8834 161.154H66.3401V165.481H65.6616V162.18H65.1396V161.696Z" fill="white"/>
<path d="M65.1396 174.066C65.6616 174.066 65.779 173.811 65.8834 173.523H66.3401V177.851H65.6616V174.549H65.1396V174.066Z" fill="white"/>
<path d="M64.6636 180.747C64.6636 180.054 65.0289 179.662 65.6944 179.662C66.3599 179.662 66.7253 180.06 66.7253 180.747V182.996C66.7253 183.689 66.3599 184.081 65.6944 184.081C65.0289 184.081 64.6636 183.689 64.6636 182.996V180.747ZM65.3421 183.042C65.3421 183.349 65.4791 183.467 65.6944 183.467C65.9097 183.467 66.0468 183.349 66.0468 183.042V180.708C66.0468 180.4 65.9097 180.283 65.6944 180.283C65.4791 180.283 65.3421 180.4 65.3421 180.708V183.042Z" fill="white"/>
<path d="M65.1396 198.804C65.6616 198.804 65.779 198.549 65.8834 198.261H66.3401V202.589H65.6616V199.288H65.1396V198.804Z" fill="white"/>
<path d="M65.1396 204.989C65.6616 204.989 65.779 204.734 65.8834 204.446H66.3401V208.774H65.6616V205.472H65.1396V204.989Z" fill="white"/>
<path d="M65.1396 211.173C65.6616 211.173 65.779 210.918 65.8834 210.631H66.3401V214.959H65.6616V211.657H65.1396V211.173Z" fill="white"/>
<path d="M180.062 1.08525C180.062 0.39226 180.427 0 181.092 0C181.758 0 182.123 0.39226 182.123 1.08525V3.33421C182.123 4.0272 181.758 4.41946 181.092 4.41946C180.427 4.41946 180.062 4.02067 180.062 3.33421V1.08525ZM180.74 3.37998C180.74 3.68725 180.877 3.80492 181.092 3.80492C181.308 3.80492 181.445 3.68725 181.445 3.37998V1.04603C181.445 0.738757 181.308 0.621079 181.092 0.621079C180.877 0.621079 180.74 0.738757 180.74 1.04603V3.37998Z" fill="white"/>
<path d="M180.062 7.26982C180.062 6.57683 180.427 6.18457 181.092 6.18457C181.758 6.18457 182.123 6.58337 182.123 7.26982V9.51878C182.123 10.2118 181.758 10.604 181.092 10.604C180.427 10.604 180.062 10.2052 180.062 9.51878V7.26982ZM180.74 9.56455C180.74 9.87182 180.877 9.98949 181.092 9.98949C181.308 9.98949 181.445 9.87182 181.445 9.56455V7.2306C181.445 6.92333 181.308 6.80565 181.092 6.80565C180.877 6.80565 180.74 6.92333 180.74 7.2306V9.56455Z" fill="white"/>
<path d="M180.538 25.3271C181.06 25.3271 181.177 25.0721 181.281 24.7844H181.738V29.1124H181.06V25.8108H180.538V25.3271Z" fill="white"/>
<path d="M180.538 31.5116C181.06 31.5116 181.177 31.2567 181.281 30.969H181.738V35.2969H181.06V31.9954H180.538V31.5116Z" fill="white"/>
<path d="M180.062 50.5623C180.062 49.8693 180.427 49.4771 181.092 49.4771C181.758 49.4771 182.123 49.8758 182.123 50.5623V52.8113C182.123 53.5043 181.758 53.8965 181.092 53.8965C180.427 53.8965 180.062 53.4977 180.062 52.8113V50.5623ZM180.74 52.857C180.74 53.1643 180.877 53.282 181.092 53.282C181.308 53.282 181.445 53.1643 181.445 52.857V50.5231C181.445 50.2158 181.308 50.0981 181.092 50.0981C180.877 50.0981 180.74 50.2158 180.74 50.5231V52.857Z" fill="white"/>
<path d="M180.062 62.9317C180.062 62.2387 180.427 61.8464 181.092 61.8464C181.758 61.8464 182.123 62.2452 182.123 62.9317V65.1806C182.123 65.8736 181.758 66.2659 181.092 66.2659C180.427 66.2659 180.062 65.8736 180.062 65.1806V62.9317ZM180.74 65.2264C180.74 65.5337 180.877 65.6514 181.092 65.6514C181.308 65.6514 181.445 65.5337 181.445 65.2264V62.8925C181.445 62.5852 181.308 62.4675 181.092 62.4675C180.877 62.4675 180.74 62.5852 180.74 62.8925V65.2264Z" fill="white"/>
<path d="M169.055 13.4546C169.055 12.7616 169.42 12.3694 170.086 12.3694C170.751 12.3694 171.116 12.7682 171.116 13.4546V15.7036C171.116 16.3966 170.751 16.7888 170.086 16.7888C169.42 16.7888 169.055 16.3901 169.055 15.7036V13.4546ZM169.733 15.7494C169.733 16.0566 169.87 16.1743 170.086 16.1743C170.301 16.1743 170.438 16.0566 170.438 15.7494V13.4154C170.438 13.1081 170.301 12.9905 170.086 12.9905C169.87 12.9905 169.733 13.1081 169.733 13.4154V15.7494Z" fill="white"/>
<path d="M169.055 19.6392C169.055 18.9462 169.42 18.554 170.086 18.554C170.751 18.554 171.116 18.9528 171.116 19.6392V21.8882C171.116 22.5812 170.751 22.9734 170.086 22.9734C169.42 22.9734 169.055 22.5746 169.055 21.8882V19.6392ZM169.733 21.9339C169.733 22.2412 169.87 22.3589 170.086 22.3589C170.301 22.3589 170.438 22.2412 170.438 21.9339V19.6C170.438 19.2927 170.301 19.175 170.086 19.175C169.87 19.175 169.733 19.2927 169.733 19.6V21.9339Z" fill="white"/>
<path d="M169.055 25.824C169.055 25.131 169.42 24.7388 170.086 24.7388C170.751 24.7388 171.116 25.1376 171.116 25.824V28.073C171.116 28.766 170.751 29.1582 170.086 29.1582C169.42 29.1582 169.055 28.766 169.055 28.073V25.824ZM169.733 28.1187C169.733 28.426 169.87 28.5437 170.086 28.5437C170.301 28.5437 170.438 28.426 170.438 28.1187V25.7848C170.438 25.4775 170.301 25.3598 170.086 25.3598C169.87 25.3598 169.733 25.4775 169.733 25.7848V28.1187Z" fill="white"/>
<path d="M169.531 31.5116C170.053 31.5116 170.17 31.2567 170.275 30.969H170.731V35.2969H170.053V31.9954H169.531V31.5116Z" fill="white"/>
<path d="M169.531 43.881C170.053 43.881 170.17 43.626 170.275 43.3384H170.731V47.6663H170.053V44.3648H169.531V43.881Z" fill="white"/>
<path d="M169.531 50.0656C170.053 50.0656 170.17 49.8106 170.275 49.5229H170.731V53.8509H170.053V50.5494H169.531V50.0656Z" fill="white"/>
<path d="M169.055 62.9317C169.055 62.2387 169.42 61.8464 170.086 61.8464C170.751 61.8464 171.116 62.2452 171.116 62.9317V65.1806C171.116 65.8736 170.751 66.2659 170.086 66.2659C169.42 66.2659 169.055 65.8736 169.055 65.1806V62.9317ZM169.733 65.2264C169.733 65.5337 169.87 65.6514 170.086 65.6514C170.301 65.6514 170.438 65.5337 170.438 65.2264V62.8925C170.438 62.5852 170.301 62.4675 170.086 62.4675C169.87 62.4675 169.733 62.5852 169.733 62.8925V65.2264Z" fill="white"/>
<path d="M169.531 68.6195C170.053 68.6195 170.17 68.3646 170.275 68.0769H170.731V72.4048H170.053V69.1033H169.531V68.6195Z" fill="white"/>
<path d="M176.395 1.08525C176.395 0.39226 176.76 0 177.425 0C178.091 0 178.456 0.39226 178.456 1.08525V3.33421C178.456 4.0272 178.091 4.41946 177.425 4.41946C176.76 4.41946 176.395 4.02067 176.395 3.33421V1.08525ZM177.073 3.37998C177.073 3.68725 177.21 3.80492 177.425 3.80492C177.641 3.80492 177.778 3.68725 177.778 3.37998V1.04603C177.778 0.738757 177.641 0.621079 177.425 0.621079C177.21 0.621079 177.073 0.738757 177.073 1.04603V3.37998Z" fill="white"/>
<path d="M176.871 6.77944C177.393 6.77944 177.51 6.52447 177.614 6.23682H178.071V10.5648H177.393V7.26323H176.871V6.77944Z" fill="white"/>
<path d="M176.395 13.4546C176.395 12.7616 176.76 12.3694 177.425 12.3694C178.091 12.3694 178.456 12.7682 178.456 13.4546V15.7036C178.456 16.3966 178.091 16.7888 177.425 16.7888C176.76 16.7888 176.395 16.3901 176.395 15.7036V13.4546ZM177.073 15.7494C177.073 16.0566 177.21 16.1743 177.425 16.1743C177.641 16.1743 177.778 16.0566 177.778 15.7494V13.4154C177.778 13.1081 177.641 12.9905 177.425 12.9905C177.21 12.9905 177.073 13.1081 177.073 13.4154V15.7494Z" fill="white"/>
<path d="M176.871 19.1488C177.393 19.1488 177.51 18.8939 177.614 18.6062H178.071V22.9341H177.393V19.6326H176.871V19.1488Z" fill="white"/>
<path d="M176.871 25.3271C177.393 25.3271 177.51 25.0721 177.614 24.7844H178.071V29.1124H177.393V25.8108H176.871V25.3271Z" fill="white"/>
<path d="M176.871 31.5116C177.393 31.5116 177.51 31.2567 177.614 30.969H178.071V35.2969H177.393V31.9954H176.871V31.5116Z" fill="white"/>
<path d="M176.395 38.1932C176.395 37.5002 176.76 37.1079 177.425 37.1079C178.091 37.1079 178.456 37.5067 178.456 38.1932V40.4421C178.456 41.1351 178.091 41.5274 177.425 41.5274C176.76 41.5274 176.395 41.1286 176.395 40.4421V38.1932ZM177.073 40.4879C177.073 40.7952 177.21 40.9128 177.425 40.9128C177.641 40.9128 177.778 40.7952 177.778 40.4879V38.1539C177.778 37.8467 177.641 37.729 177.425 37.729C177.21 37.729 177.073 37.8467 177.073 38.1539V40.4879Z" fill="white"/>
<path d="M176.395 44.3777C176.395 43.6847 176.76 43.2925 177.425 43.2925C178.091 43.2925 178.456 43.6847 178.456 44.3777V46.6267C178.456 47.3197 178.091 47.7119 177.425 47.7119C176.76 47.7119 176.395 47.3131 176.395 46.6267V44.3777ZM177.073 46.6725C177.073 46.9797 177.21 47.0974 177.425 47.0974C177.641 47.0974 177.778 46.9797 177.778 46.6725V44.3385C177.778 44.0312 177.641 43.9136 177.425 43.9136C177.21 43.9136 177.073 44.0312 177.073 44.3385V46.6725Z" fill="white"/>
<path d="M173.198 6.77944C173.72 6.77944 173.837 6.52447 173.942 6.23682H174.398V10.5648H173.72V7.26323H173.198V6.77944Z" fill="white"/>
<path d="M172.728 13.4544C172.728 12.7614 173.093 12.3691 173.759 12.3691C174.424 12.3691 174.79 12.7679 174.79 13.4544V15.7034C174.79 16.3963 174.424 16.7886 173.759 16.7886C173.093 16.7886 172.728 16.3898 172.728 15.7034V13.4544ZM173.407 15.7491C173.407 16.0564 173.544 16.1741 173.759 16.1741C173.974 16.1741 174.111 16.0564 174.111 15.7491V13.4152C174.111 13.1079 173.974 12.9902 173.759 12.9902C173.544 12.9902 173.407 13.1079 173.407 13.4152V15.7491Z" fill="white"/>
<path d="M172.728 19.639C172.728 18.946 173.093 18.5537 173.759 18.5537C174.424 18.5537 174.79 18.9525 174.79 19.639V21.8879C174.79 22.5809 174.424 22.9732 173.759 22.9732C173.093 22.9732 172.728 22.5744 172.728 21.8879V19.639ZM173.407 21.9337C173.407 22.241 173.544 22.3586 173.759 22.3586C173.974 22.3586 174.111 22.241 174.111 21.9337V19.5997C174.111 19.2925 173.974 19.1748 173.759 19.1748C173.544 19.1748 173.407 19.2925 173.407 19.5997V21.9337Z" fill="white"/>
<path d="M173.198 25.3268C173.72 25.3268 173.837 25.0718 173.942 24.7842H174.398V29.1121H173.72V25.8106H173.198V25.3268Z" fill="white"/>
<path d="M173.198 37.6962C173.72 37.6962 173.837 37.4412 173.942 37.1536H174.398V41.4815H173.72V38.18H173.198V37.6962Z" fill="white"/>
<path d="M173.198 43.8808C173.72 43.8808 173.837 43.6258 173.942 43.3381H174.398V47.6661H173.72V44.3645H173.198V43.8808Z" fill="white"/>
<path d="M173.198 50.0653C173.72 50.0653 173.837 49.8104 173.942 49.5227H174.398V53.8506H173.72V50.5491H173.198V50.0653Z" fill="white"/>
<path d="M7.33984 69.5608C7.33984 68.8678 7.70521 68.4756 8.3707 68.4756C9.0362 68.4756 9.40156 68.8744 9.40156 69.5608V71.8098C9.40156 72.5028 9.0362 72.8951 8.3707 72.8951C7.70521 72.8951 7.33984 72.4963 7.33984 71.8098V69.5608ZM8.01838 71.8556C8.01838 72.1628 8.1554 72.2805 8.3707 72.2805C8.58601 72.2805 8.72302 72.1628 8.72302 71.8556V69.5216C8.72302 69.2143 8.58601 69.0967 8.3707 69.0967C8.1554 69.0967 8.01838 69.2143 8.01838 69.5216V71.8556Z" fill="white"/>
<path d="M7.33984 75.7454C7.33984 75.0524 7.70521 74.6602 8.3707 74.6602C9.0362 74.6602 9.40156 75.059 9.40156 75.7454V77.9944C9.40156 78.6874 9.0362 79.0796 8.3707 79.0796C7.70521 79.0796 7.33984 78.6874 7.33984 77.9944V75.7454ZM8.01838 78.0401C8.01838 78.3474 8.1554 78.4651 8.3707 78.4651C8.58601 78.4651 8.72302 78.3474 8.72302 78.0401V75.7062C8.72302 75.3989 8.58601 75.2812 8.3707 75.2812C8.1554 75.2812 8.01838 75.3989 8.01838 75.7062V78.0401Z" fill="white"/>
<path d="M7.81592 81.4332C8.33787 81.4332 8.45531 81.1783 8.5597 80.8906H9.01641V85.2186H8.33787V81.917H7.81592V81.4332Z" fill="white"/>
<path d="M7.33984 88.1148C7.33984 87.4218 7.70521 87.0295 8.3707 87.0295C9.0362 87.0295 9.40156 87.4283 9.40156 88.1148V90.3638C9.40156 91.0567 9.0362 91.449 8.3707 91.449C7.70521 91.449 7.33984 91.0502 7.33984 90.3638V88.1148ZM8.01838 90.4095C8.01838 90.7168 8.1554 90.8345 8.3707 90.8345C8.58601 90.8345 8.72302 90.7168 8.72302 90.4095V88.0756C8.72302 87.7683 8.58601 87.6506 8.3707 87.6506C8.1554 87.6506 8.01838 87.7683 8.01838 88.0756V90.4095Z" fill="white"/>
<path d="M7.81592 93.8026C8.33787 93.8026 8.45531 93.5477 8.5597 93.26H9.01641V97.588H8.33787V94.2864H7.81592V93.8026Z" fill="white"/>
<path d="M7.33984 100.484C7.33984 99.7909 7.70521 99.3987 8.3707 99.3987C9.0362 99.3987 9.40156 99.7975 9.40156 100.484V102.733C9.40156 103.426 9.0362 103.818 8.3707 103.818C7.70521 103.818 7.33984 103.419 7.33984 102.733V100.484ZM8.01838 102.779C8.01838 103.086 8.1554 103.204 8.3707 103.204C8.58601 103.204 8.72302 103.086 8.72302 102.779V100.445C8.72302 100.137 8.58601 100.02 8.3707 100.02C8.1554 100.02 8.01838 100.137 8.01838 100.445V102.779Z" fill="white"/>
<path d="M7.81592 106.172C8.33787 106.172 8.45531 105.917 8.5597 105.629H9.01641V109.957H8.33787V106.656H7.81592V106.172Z" fill="white"/>
<path d="M7.33984 112.853C7.33984 112.16 7.70521 111.768 8.3707 111.768C9.0362 111.768 9.40156 112.167 9.40156 112.853V115.102C9.40156 115.795 9.0362 116.188 8.3707 116.188C7.70521 116.188 7.33984 115.795 7.33984 115.102V112.853ZM8.01838 115.148C8.01838 115.455 8.1554 115.573 8.3707 115.573C8.58601 115.573 8.72302 115.455 8.72302 115.148V112.814C8.72302 112.507 8.58601 112.389 8.3707 112.389C8.1554 112.389 8.01838 112.507 8.01838 112.814V115.148Z" fill="white"/>
<path d="M7.33984 119.038C7.33984 118.345 7.70521 117.953 8.3707 117.953C9.0362 117.953 9.40156 118.351 9.40156 119.038V121.287C9.40156 121.98 9.0362 122.372 8.3707 122.372C7.70521 122.372 7.33984 121.973 7.33984 121.287V119.038ZM8.01838 121.333C8.01838 121.64 8.1554 121.758 8.3707 121.758C8.58601 121.758 8.72302 121.64 8.72302 121.333V118.999C8.72302 118.691 8.58601 118.574 8.3707 118.574C8.1554 118.574 8.01838 118.691 8.01838 118.999V121.333Z" fill="white"/>
<path d="M7.33984 125.222C7.33984 124.529 7.70521 124.137 8.3707 124.137C9.0362 124.137 9.40156 124.536 9.40156 125.222V127.471C9.40156 128.164 9.0362 128.557 8.3707 128.557C7.70521 128.557 7.33984 128.164 7.33984 127.471V125.222ZM8.01838 127.517C8.01838 127.824 8.1554 127.942 8.3707 127.942C8.58601 127.942 8.72302 127.824 8.72302 127.517V125.183C8.72302 124.876 8.58601 124.758 8.3707 124.758C8.1554 124.758 8.01838 124.876 8.01838 125.183V127.517Z" fill="white"/>
<path d="M7.81592 137.095C8.33787 137.095 8.45531 136.84 8.5597 136.552H9.01641V140.88H8.33787V137.579H7.81592V137.095Z" fill="white"/>
<path d="M11.4829 93.8026C12.0049 93.8026 12.1223 93.5477 12.2267 93.26H12.6834V97.588H12.0049V94.2864H11.4829V93.8026Z" fill="white"/>
<path d="M11.4829 99.9872C12.0049 99.9872 12.1223 99.7322 12.2267 99.4446H12.6834V103.773H12.0049V100.471H11.4829V99.9872Z" fill="white"/>
<path d="M11.0068 106.669C11.0068 105.976 11.3722 105.583 12.0377 105.583C12.7032 105.583 13.0686 105.982 13.0686 106.669V108.918C13.0686 109.611 12.7032 110.003 12.0377 110.003C11.3722 110.003 11.0068 109.604 11.0068 108.918V106.669ZM11.6854 108.963C11.6854 109.271 11.8224 109.388 12.0377 109.388C12.253 109.388 12.39 109.271 12.39 108.963V106.63C12.39 106.322 12.253 106.205 12.0377 106.205C11.8224 106.205 11.6854 106.322 11.6854 106.63V108.963Z" fill="white"/>
<path d="M11.0068 112.853C11.0068 112.16 11.3722 111.768 12.0377 111.768C12.7032 111.768 13.0686 112.167 13.0686 112.853V115.102C13.0686 115.795 12.7032 116.188 12.0377 116.188C11.3722 116.188 11.0068 115.795 11.0068 115.102V112.853ZM11.6854 115.148C11.6854 115.455 11.8224 115.573 12.0377 115.573C12.253 115.573 12.39 115.455 12.39 115.148V112.814C12.39 112.507 12.253 112.389 12.0377 112.389C11.8224 112.389 11.6854 112.507 11.6854 112.814V115.148Z" fill="white"/>
<path d="M11.4829 118.541C12.0049 118.541 12.1223 118.286 12.2267 117.999H12.6834V122.326H12.0049V119.025H11.4829V118.541Z" fill="white"/>
<path d="M11.4829 130.911C12.0049 130.911 12.1223 130.656 12.2267 130.368H12.6834V134.696H12.0049V131.394H11.4829V130.911Z" fill="white"/>
<path d="M3.6665 88.1148C3.6665 87.4218 4.03187 87.0295 4.69736 87.0295C5.36286 87.0295 5.72822 87.4283 5.72822 88.1148V90.3638C5.72822 91.0567 5.36286 91.449 4.69736 91.449C4.03187 91.449 3.6665 91.0502 3.6665 90.3638V88.1148ZM4.34504 90.4095C4.34504 90.7168 4.48206 90.8345 4.69736 90.8345C4.91267 90.8345 5.04968 90.7168 5.04968 90.4095V88.0756C5.04968 87.7683 4.91267 87.6506 4.69736 87.6506C4.48206 87.6506 4.34504 87.7683 4.34504 88.0756V90.4095Z" fill="white"/>
<path d="M4.14258 93.8026C4.66453 93.8026 4.78197 93.5477 4.88636 93.26H5.34307V97.588H4.66453V94.2864H4.14258V93.8026Z" fill="white"/>
<path d="M4.14258 99.9872C4.66453 99.9872 4.78197 99.7322 4.88636 99.4446H5.34307V103.773H4.66453V100.471H4.14258V99.9872Z" fill="white"/>
<path d="M3.6665 106.669C3.6665 105.976 4.03187 105.583 4.69736 105.583C5.36286 105.583 5.72822 105.982 5.72822 106.669V108.918C5.72822 109.611 5.36286 110.003 4.69736 110.003C4.03187 110.003 3.6665 109.604 3.6665 108.918V106.669ZM4.34504 108.963C4.34504 109.271 4.48206 109.388 4.69736 109.388C4.91267 109.388 5.04968 109.271 5.04968 108.963V106.63C5.04968 106.322 4.91267 106.205 4.69736 106.205C4.48206 106.205 4.34504 106.322 4.34504 106.63V108.963Z" fill="white"/>
<path d="M4.14258 112.357C4.66453 112.357 4.78197 112.102 4.88636 111.814H5.34307V116.142H4.66453V112.84H4.14258V112.357Z" fill="white"/>
<path d="M3.6665 119.038C3.6665 118.345 4.03187 117.953 4.69736 117.953C5.36286 117.953 5.72822 118.351 5.72822 119.038V121.287C5.72822 121.98 5.36286 122.372 4.69736 122.372C4.03187 122.372 3.6665 121.973 3.6665 121.287V119.038ZM4.34504 121.333C4.34504 121.64 4.48206 121.758 4.69736 121.758C4.91267 121.758 5.04968 121.64 5.04968 121.333V118.999C5.04968 118.691 4.91267 118.574 4.69736 118.574C4.48206 118.574 4.34504 118.691 4.34504 118.999V121.333Z" fill="white"/>
<path d="M0 75.7454C0 75.0524 0.365368 74.6602 1.03086 74.6602C1.69635 74.6602 2.06172 75.059 2.06172 75.7454V77.9944C2.06172 78.6874 1.69635 79.0796 1.03086 79.0796C0.365368 79.0796 0 78.6808 0 77.9944V75.7454ZM0.678541 78.0401C0.678541 78.3474 0.815554 78.4651 1.03086 78.4651C1.24617 78.4651 1.38318 78.3474 1.38318 78.0401V75.7062C1.38318 75.3989 1.24617 75.2812 1.03086 75.2812C0.815554 75.2812 0.678541 75.3989 0.678541 75.7062V78.0401Z" fill="white"/>
<path d="M0.476074 87.6178C0.998029 87.6178 1.11547 87.3629 1.21986 87.0752H1.67657V91.4031H0.998029V88.1016H0.476074V87.6178Z" fill="white"/>
<path d="M0 94.2994C0 93.6064 0.365368 93.2141 1.03086 93.2141C1.69635 93.2141 2.06172 93.6129 2.06172 94.2994V96.5483C2.06172 97.2413 1.69635 97.6336 1.03086 97.6336C0.365368 97.6336 0 97.2413 0 96.5483V94.2994ZM0.678541 96.5941C0.678541 96.9014 0.815554 97.019 1.03086 97.019C1.24617 97.019 1.38318 96.9014 1.38318 96.5941V94.2601C1.38318 93.9529 1.24617 93.8352 1.03086 93.8352C0.815554 93.8352 0.678541 93.9529 0.678541 94.2601V96.5941Z" fill="white"/>
<path d="M0 106.669C0 105.976 0.365368 105.583 1.03086 105.583C1.69635 105.583 2.06172 105.982 2.06172 106.669V108.917C2.06172 109.61 1.69635 110.003 1.03086 110.003C0.365368 110.003 0 109.604 0 108.917V106.669ZM0.678541 108.963C0.678541 109.27 0.815554 109.388 1.03086 109.388C1.24617 109.388 1.38318 109.27 1.38318 108.963V106.629C1.38318 106.322 1.24617 106.204 1.03086 106.204C0.815554 106.204 0.678541 106.322 0.678541 106.629V108.963Z" fill="white"/>
<path d="M0 112.853C0 112.16 0.365368 111.768 1.03086 111.768C1.69635 111.768 2.06172 112.167 2.06172 112.853V115.102C2.06172 115.795 1.69635 116.188 1.03086 116.188C0.365368 116.188 0 115.789 0 115.102V112.853ZM0.678541 115.148C0.678541 115.455 0.815554 115.573 1.03086 115.573C1.24617 115.573 1.38318 115.455 1.38318 115.148V112.814C1.38318 112.507 1.24617 112.389 1.03086 112.389C0.815554 112.389 0.678541 112.507 0.678541 112.814V115.148Z" fill="white"/>
<path d="M0 119.038C0 118.345 0.365368 117.953 1.03086 117.953C1.69635 117.953 2.06172 118.351 2.06172 119.038V121.287C2.06172 121.98 1.69635 122.372 1.03086 122.372C0.365368 122.372 0 121.973 0 121.287V119.038ZM0.678541 121.333C0.678541 121.64 0.815554 121.758 1.03086 121.758C1.24617 121.758 1.38318 121.64 1.38318 121.333V118.999C1.38318 118.691 1.24617 118.574 1.03086 118.574C0.815554 118.574 0.678541 118.691 0.678541 118.999V121.333Z" fill="white"/>
<path d="M0.476074 137.095C0.998029 137.095 1.11547 136.84 1.21986 136.552H1.67657V140.88H0.998029V137.579H0.476074V137.095Z" fill="white"/>
<path d="M146.134 10.2446H100.026C98.8297 10.2446 97.8599 11.2164 97.8599 12.4151V38.2455C97.8599 39.4442 98.8297 40.416 100.026 40.416H146.134C147.33 40.416 148.3 39.4442 148.3 38.2455V12.4151C148.3 11.2164 147.33 10.2446 146.134 10.2446Z" stroke="white" stroke-linecap="round" stroke-linejoin="round"/>
<path d="M109.852 36.1992H102.597C102.199 36.1992 101.879 35.8788 101.879 35.48V30.4591C101.879 30.4591 105.95 30.2826 106.635 29.4131C107.32 28.5436 106.563 27.1903 106.563 27.1903C106.316 26.883 106.257 24.706 106.257 24.706L106.015 24.6471C105.774 24.5883 105.454 22.7774 105.454 22.0974C105.454 21.4175 106.015 21.1691 106.015 21.1691C106.015 21.1691 105.402 16.7627 109.858 16.7627C114.314 16.7627 113.701 21.1691 113.701 21.1691C113.701 21.1691 114.262 21.4175 114.262 22.0974C114.262 22.7774 113.943 24.5817 113.701 24.6471L113.46 24.706C113.46 24.706 113.401 26.883 113.153 27.1903C113.153 27.1903 112.396 28.5501 113.081 29.4131C113.766 30.2826 117.838 30.4591 117.838 30.4591V35.48C117.838 35.8788 117.518 36.1992 117.12 36.1992H109.865H109.852Z" fill="white" stroke="white" stroke-miterlimit="10"/>
<path d="M143.237 36.3038H133.327C132.909 36.3038 132.57 35.9639 132.57 35.5455C132.57 35.1271 132.909 34.7871 133.327 34.7871H143.237C143.655 34.7871 143.994 35.1271 143.994 35.5455C143.994 35.9639 143.655 36.3038 143.237 36.3038Z" fill="white" stroke="white" stroke-miterlimit="10"/>
<path d="M143.237 15.8737H122.692C122.274 15.8737 121.935 15.5337 121.935 15.1153C121.935 14.6969 122.274 14.3569 122.692 14.3569H143.237C143.655 14.3569 143.994 14.6969 143.994 15.1153C143.994 15.5337 143.655 15.8737 143.237 15.8737Z" fill="white" stroke="white" stroke-miterlimit="10"/>
<path d="M134.481 20.9796H122.698C122.281 20.9796 121.941 20.6397 121.941 20.2213C121.941 19.8028 122.281 19.4629 122.698 19.4629H134.481C134.899 19.4629 135.238 19.8028 135.238 20.2213C135.238 20.6397 134.899 20.9796 134.481 20.9796Z" fill="white" stroke="white" stroke-miterlimit="10"/>
<path d="M130.723 26.0919H122.692C122.274 26.0919 121.935 25.752 121.935 25.3336C121.935 24.9152 122.274 24.5752 122.692 24.5752H130.723C131.141 24.5752 131.48 24.9152 131.48 25.3336C131.48 25.752 131.141 26.0919 130.723 26.0919Z" fill="white" stroke="white" stroke-miterlimit="10"/>
<path d="M134.481 31.1979H122.698C122.281 31.1979 121.941 30.8579 121.941 30.4395C121.941 30.0211 122.281 29.6812 122.698 29.6812H134.481C134.899 29.6812 135.238 30.0211 135.238 30.4395C135.238 30.8579 134.899 31.1979 134.481 31.1979Z" fill="white" stroke="white" stroke-miterlimit="10"/>
<path d="M50.4534 90.5859V119.639L42.6501 127.452H21.9351V90.5859H50.4534Z" stroke="white" stroke-linecap="round" stroke-linejoin="round"/>
<path d="M50.4531 119.639L42.6499 127.452V119.639H50.4531Z" fill="white" stroke="white" stroke-linecap="round" stroke-linejoin="round"/>
<path d="M28.877 95.2866H46.0949" stroke="white" stroke-linecap="round" stroke-linejoin="round"/>
<path d="M26.2935 98.5359H46.0951" stroke="white" stroke-linecap="round" stroke-linejoin="round"/>
<path d="M26.2935 101.779H46.0951" stroke="white" stroke-linecap="round" stroke-linejoin="round"/>
<path d="M26.2935 105.028H46.0951" stroke="white" stroke-linecap="round" stroke-linejoin="round"/>
<path d="M26.2935 108.277H46.0951" stroke="white" stroke-linecap="round" stroke-linejoin="round"/>
<path d="M26.2935 111.52H46.0951" stroke="white" stroke-linecap="round" stroke-linejoin="round"/>
<path d="M26.2935 114.769H46.0951" stroke="white" stroke-linecap="round" stroke-linejoin="round"/>
<path d="M26.2935 118.011H43.5049" stroke="white" stroke-linecap="round" stroke-linejoin="round"/>
<path d="M51.8103 95.2866H55.1443V124.333L47.341 132.153H26.626V128.72" stroke="white" stroke-linecap="round" stroke-linejoin="round"/>
<path d="M55.144 124.333L47.3408 132.153V124.333H55.144Z" fill="white" stroke="white" stroke-linecap="round" stroke-linejoin="round"/>
<path d="M157.33 70.3845H88.8235C87.2957 70.3845 86.0571 71.6256 86.0571 73.1565V149.582C86.0571 151.113 87.2957 152.354 88.8235 152.354H157.33C158.858 152.354 160.096 151.113 160.096 149.582V73.1565C160.096 71.6256 158.858 70.3845 157.33 70.3845Z" fill="#0E33CA" stroke="#16215B" stroke-width="0.83" stroke-linecap="round" stroke-linejoin="round"/>
<path d="M158.602 97.7119H87.5513" stroke="#16215B" stroke-miterlimit="10"/>
<path d="M158.602 106.819H87.5513" stroke="#16215B" stroke-miterlimit="10"/>
<path d="M158.602 115.919H87.5513" stroke="#16215B" stroke-miterlimit="10"/>
<path d="M158.602 125.026H87.5513" stroke="#16215B" stroke-miterlimit="10"/>
<path d="M158.602 134.133H87.5513" stroke="#16215B" stroke-miterlimit="10"/>
<path d="M158.602 143.24H87.5513" stroke="#16215B" stroke-miterlimit="10"/>
<path d="M158.602 88.605H87.5513" stroke="#16215B" stroke-miterlimit="10"/>
<path d="M158.602 79.498H87.5513" stroke="#16215B" stroke-miterlimit="10"/>
<path d="M141.626 150.889V71.8489" stroke="#16215B" stroke-miterlimit="10"/>
<path d="M132.355 150.889V71.8489" stroke="#16215B" stroke-miterlimit="10"/>
<path d="M123.077 150.889V71.8489" stroke="#16215B" stroke-miterlimit="10"/>
<path d="M113.806 150.889V71.8489" stroke="#16215B" stroke-miterlimit="10"/>
<path d="M104.528 150.889V71.8489" stroke="#16215B" stroke-miterlimit="10"/>
<path d="M95.2568 150.889V71.8489" stroke="#16215B" stroke-miterlimit="10"/>
<path d="M150.904 150.889V71.8489" stroke="#16215B" stroke-miterlimit="10"/>
<path d="M91.042 87.7288V75.6472H103.099" stroke="white" stroke-linecap="round" stroke-linejoin="round"/>
<path d="M103.099 147.091H91.042V135.009" stroke="white" stroke-linecap="round" stroke-linejoin="round"/>
<path d="M155.112 87.7288V75.6472H143.055" stroke="white" stroke-linecap="round" stroke-linejoin="round"/>
<path d="M143.055 147.091H155.112V135.009" stroke="white" stroke-linecap="round" stroke-linejoin="round"/>
<path d="M123.631 130.825C104.378 123.013 102.975 96.1431 102.975 96.1431H107.099V92.9331C116.872 92.9331 123.625 86.853 123.625 86.853C123.625 86.853 130.378 92.9331 140.151 92.9331V96.1431H144.275C144.275 96.1431 142.872 123.013 123.618 130.825H123.631ZM140.908 98.9216H137.144V95.5416C130.965 94.8421 126.176 92.1551 123.631 90.403C121.087 92.1551 116.305 94.8421 110.119 95.5416V98.9216H106.348C107.353 105.688 111.013 121.359 123.625 127.275C136.198 121.372 139.877 105.688 140.895 98.9216H140.908ZM131.232 113.958V104.498C131.232 104.008 130.834 103.616 130.352 103.616H116.924C116.435 103.616 116.044 104.014 116.044 104.498V113.958C116.044 114.449 116.442 114.841 116.924 114.841H130.352C130.841 114.841 131.232 114.442 131.232 113.958ZM123.912 96.7968C120.78 96.6399 118.177 99.1504 118.177 102.262V102.831C118.177 103.04 118.347 103.217 118.562 103.217H119.945C120.154 103.217 120.33 103.047 120.33 102.831V102.38C120.33 100.615 121.655 99.0654 123.416 98.9477C125.347 98.817 126.959 100.353 126.959 102.262V102.831C126.959 103.04 127.129 103.217 127.344 103.217H128.727C128.936 103.217 129.112 103.047 129.112 102.831V102.419C129.112 99.4773 126.861 96.9406 123.925 96.7968H123.912ZM125.06 108.153C125.06 107.362 124.421 106.721 123.631 106.721C122.842 106.721 122.203 107.362 122.203 108.153C122.203 108.722 122.535 109.205 123.012 109.434L122.49 111.735H124.767L124.245 109.434C124.721 109.205 125.054 108.715 125.054 108.153H125.06Z" stroke="white" stroke-linecap="round" stroke-linejoin="round"/>
<path d="M215.045 92.5342H195.465C194.817 92.5342 194.291 93.061 194.291 93.711V126.301C194.291 126.951 194.817 127.478 195.465 127.478H215.045C215.694 127.478 216.22 126.951 216.22 126.301V93.711C216.22 93.061 215.694 92.5342 215.045 92.5342Z" stroke="white" stroke-linecap="round" stroke-linejoin="round"/>
<path d="M214.38 119.293H196.235V120.509H214.38V119.293Z" stroke="white" stroke-linecap="round" stroke-linejoin="round"/>
<path d="M197.097 119.901C197.253 119.953 199.38 119.953 199.38 124.164C199.38 128.374 199.276 133.584 201.507 133.748C203.739 133.905 215.483 133.748 215.483 133.748V123.19C215.483 121.431 214.067 119.999 212.312 119.993L197.103 119.908L197.097 119.901Z" fill="#FAFAFA"/>
<path d="M197.097 119.901C197.325 119.901 200.496 119.914 205.924 119.927C207.294 119.927 208.795 119.94 210.4 119.947C210.805 119.947 211.209 119.947 211.627 119.947C212.038 119.953 212.468 119.927 212.892 120.012C213.316 120.091 213.734 120.261 214.099 120.516C214.465 120.771 214.784 121.097 215.026 121.49C215.267 121.875 215.424 122.327 215.483 122.791C215.509 123.026 215.509 123.261 215.509 123.49C215.509 123.726 215.509 123.961 215.509 124.196C215.509 125.144 215.509 126.112 215.509 127.093C215.509 129.06 215.509 131.1 215.509 133.186V133.781H215.469C211.366 133.833 207.457 133.866 203.908 133.839C203.465 133.839 203.027 133.826 202.597 133.82C202.166 133.807 201.742 133.807 201.318 133.748C201.109 133.702 200.907 133.604 200.744 133.48C200.581 133.343 200.444 133.186 200.333 133.009C200.111 132.663 199.967 132.277 199.857 131.898C199.641 131.133 199.543 130.374 199.478 129.642C199.413 128.91 199.387 128.21 199.367 127.537C199.335 126.197 199.361 124.981 199.341 123.915C199.322 122.856 199.158 121.934 198.826 121.261C198.663 120.921 198.46 120.659 198.258 120.457C198.049 120.261 197.834 120.136 197.658 120.058C197.292 119.908 197.077 119.908 197.084 119.895C197.11 119.895 197.149 119.901 197.234 119.921C197.332 119.94 197.482 119.973 197.664 120.045C197.847 120.123 198.062 120.248 198.271 120.444C198.48 120.646 198.689 120.914 198.852 121.248C199.185 121.921 199.354 122.85 199.38 123.915C199.4 124.981 199.38 126.19 199.413 127.537C199.432 128.21 199.459 128.91 199.53 129.636C199.596 130.361 199.693 131.12 199.909 131.878C200.02 132.251 200.157 132.63 200.378 132.97C200.489 133.14 200.62 133.29 200.776 133.421C200.94 133.545 201.122 133.637 201.325 133.676C201.729 133.728 202.166 133.728 202.597 133.741C203.027 133.748 203.465 133.754 203.908 133.761C207.457 133.787 211.359 133.748 215.469 133.696L215.43 133.735V133.179C215.43 131.094 215.43 129.054 215.43 127.086C215.43 126.099 215.43 125.131 215.43 124.19C215.43 123.954 215.43 123.719 215.43 123.484C215.43 123.248 215.43 123.02 215.404 122.791C215.346 122.34 215.189 121.902 214.961 121.522C214.726 121.143 214.413 120.816 214.054 120.568C213.695 120.319 213.29 120.156 212.873 120.078C212.455 119.993 212.031 120.025 211.62 120.012C211.209 120.012 210.798 120.012 210.4 120.006C208.795 119.993 207.307 119.98 205.944 119.973C200.496 119.927 197.312 119.901 197.084 119.895L197.097 119.901Z" fill="#263238"/>
<path d="M201.559 133.748C201.559 133.748 203.399 133.748 203.79 131.035C204.26 127.798 203.79 124.968 206.289 124.857C208.788 124.752 215.482 124.857 215.482 124.857V133.748H201.559Z" fill="#E0E0E0"/>
<path d="M205.97 124.889C205.97 124.889 207.986 124.647 207.986 128.001C207.986 131.355 208.038 133.571 210.269 133.82C212.501 134.068 226.209 133.82 226.209 133.82C226.209 133.82 224.029 132.793 223.873 129.753C223.716 126.713 223.077 124.87 220.898 124.811C218.718 124.752 205.97 124.889 205.97 124.889Z" fill="#FAFAFA"/>
<path d="M205.97 124.889C205.97 124.889 206.028 124.889 206.107 124.889C206.198 124.889 206.329 124.889 206.505 124.883C206.857 124.883 207.372 124.87 208.031 124.856C209.362 124.843 211.281 124.824 213.649 124.798C214.836 124.791 216.135 124.778 217.531 124.771C218.229 124.771 218.953 124.771 219.697 124.771C220.069 124.771 220.447 124.771 220.832 124.785C221.217 124.798 221.615 124.85 221.981 125.007C222.346 125.164 222.672 125.432 222.914 125.759C223.162 126.086 223.331 126.465 223.468 126.857C223.716 127.648 223.827 128.491 223.886 129.348C223.899 129.564 223.912 129.779 223.938 129.989L223.971 130.309L224.029 130.629L224.062 130.786L224.108 130.943L224.199 131.257C224.277 131.46 224.349 131.669 224.453 131.865C224.838 132.649 225.452 133.355 226.241 133.787L226.378 133.865H226.222C226.104 133.865 225.974 133.872 225.843 133.872C222.163 133.931 218.66 133.97 215.469 133.97C213.877 133.97 212.357 133.963 210.941 133.905C210.589 133.878 210.237 133.872 209.897 133.793C209.565 133.708 209.245 133.565 208.991 133.336C208.736 133.114 208.56 132.832 208.429 132.538C208.299 132.244 208.221 131.943 208.162 131.649C208.044 131.054 208.012 130.479 207.992 129.93C207.973 129.387 207.973 128.871 207.973 128.393C207.973 128.151 207.973 127.923 207.96 127.7C207.96 127.589 207.96 127.478 207.947 127.373C207.934 127.269 207.921 127.164 207.907 127.06C207.907 127.007 207.894 126.962 207.888 126.909C207.875 126.864 207.868 126.811 207.855 126.765C207.836 126.667 207.81 126.576 207.79 126.484C207.757 126.399 207.731 126.308 207.705 126.229C207.692 126.19 207.679 126.144 207.66 126.105C207.64 126.066 207.62 126.027 207.601 125.994C207.464 125.687 207.268 125.451 207.072 125.288C206.877 125.118 206.674 125.026 206.505 124.974C206.335 124.922 206.198 124.909 206.113 124.902C206.068 124.902 206.035 124.902 206.009 124.902C205.989 124.902 205.983 124.902 205.976 124.902C205.976 124.902 205.989 124.902 206.009 124.902C206.035 124.902 206.068 124.902 206.113 124.902C206.205 124.902 206.342 124.915 206.511 124.968C206.681 125.013 206.89 125.111 207.092 125.275C207.294 125.438 207.49 125.68 207.633 125.987C207.947 126.595 208.018 127.452 208.018 128.406C208.018 128.884 208.018 129.4 208.044 129.943C208.071 130.485 208.103 131.061 208.221 131.649C208.279 131.943 208.358 132.244 208.488 132.525C208.612 132.813 208.788 133.087 209.036 133.297C209.278 133.512 209.584 133.656 209.91 133.735C210.237 133.813 210.589 133.82 210.941 133.846C212.357 133.905 213.871 133.905 215.463 133.905C218.653 133.905 222.157 133.859 225.837 133.8C225.967 133.8 226.098 133.8 226.215 133.8L226.195 133.878C225.38 133.434 224.76 132.715 224.369 131.917C224.264 131.721 224.192 131.505 224.114 131.303L224.023 130.982L223.977 130.825L223.945 130.662L223.886 130.342L223.853 130.015C223.827 129.799 223.821 129.583 223.808 129.367C223.749 128.518 223.638 127.674 223.396 126.89C223.266 126.504 223.096 126.131 222.855 125.811C222.62 125.491 222.307 125.236 221.955 125.079C221.596 124.928 221.211 124.876 220.832 124.863C220.447 124.856 220.076 124.85 219.704 124.85C218.96 124.85 218.236 124.85 217.538 124.85C216.141 124.85 214.843 124.863 213.656 124.87C211.281 124.883 209.362 124.896 208.038 124.902C207.379 124.902 206.864 124.902 206.511 124.909C206.335 124.909 206.205 124.909 206.113 124.909C206.035 124.909 206.002 124.909 205.976 124.909L205.97 124.889Z" fill="#263238"/>
<path d="M206.505 124.883C206.505 124.883 206.342 124.876 206.061 124.915C205.781 124.955 205.363 125.079 204.991 125.438C204.619 125.785 204.339 126.36 204.195 127.021C204.052 127.687 204.045 128.439 204.006 129.23C203.973 130.021 203.921 130.78 203.751 131.447C203.667 131.78 203.549 132.087 203.425 132.368C203.301 132.649 203.158 132.898 202.988 133.101C202.825 133.303 202.636 133.454 202.453 133.552C202.27 133.65 202.094 133.696 201.951 133.728C201.807 133.748 201.696 133.761 201.618 133.761C201.54 133.761 201.5 133.761 201.5 133.761C201.5 133.761 201.54 133.754 201.618 133.748C201.696 133.748 201.807 133.728 201.944 133.702C202.081 133.669 202.251 133.617 202.427 133.519C202.603 133.421 202.786 133.271 202.942 133.068C203.099 132.865 203.236 132.623 203.36 132.342C203.484 132.068 203.601 131.76 203.68 131.433C203.843 130.773 203.895 130.021 203.928 129.237C203.96 128.452 203.973 127.694 204.123 127.014C204.267 126.341 204.56 125.759 204.952 125.406C205.337 125.04 205.774 124.928 206.055 124.896C206.126 124.889 206.192 124.883 206.25 124.883C206.309 124.883 206.355 124.883 206.394 124.883C206.472 124.883 206.511 124.889 206.511 124.896L206.505 124.883Z" fill="#263238"/>
<path d="M213.192 122.34C213.192 122.34 210.615 122.379 207.444 122.379C204.273 122.379 201.696 122.359 201.696 122.34C201.696 122.32 204.273 122.3 207.444 122.3C210.615 122.3 213.192 122.32 213.192 122.34Z" fill="#E0E0E0"/>
<path d="M213.427 124.053C213.427 124.053 210.935 124.092 207.868 124.092C204.802 124.092 202.31 124.072 202.31 124.053C202.31 124.033 204.795 124.013 207.868 124.013C210.941 124.013 213.427 124.033 213.427 124.053Z" fill="#E0E0E0"/>
<path d="M221.27 127.387C221.27 127.387 218.692 127.426 215.521 127.426C212.351 127.426 209.773 127.406 209.773 127.387C209.773 127.367 212.351 127.347 215.521 127.347C218.699 127.347 221.27 127.367 221.27 127.387Z" fill="#E0E0E0"/>
<path d="M221.413 129.387C221.413 129.387 219.051 129.427 216.142 129.427C213.232 129.427 210.863 129.407 210.863 129.387C210.863 129.368 213.225 129.348 216.142 129.348C219.058 129.348 221.413 129.368 221.413 129.387Z" fill="#E0E0E0"/>
<path d="M204.28 97.6008H196.353V106.054H204.28V97.6008Z" stroke="white" stroke-linecap="round" stroke-linejoin="round"/>
<path d="M214.158 97.6008H206.231V106.054H214.158V97.6008Z" stroke="white" stroke-linecap="round" stroke-linejoin="round"/>
<path d="M204.28 108.068H196.353V116.521H204.28V108.068Z" stroke="white" stroke-linecap="round" stroke-linejoin="round"/>
<path d="M214.158 108.068H206.231V116.521H214.158V108.068Z" stroke="white" stroke-linecap="round" stroke-linejoin="round"/>
<path d="M206.759 94.1687H203.353C203.026 94.1687 202.76 94.4351 202.76 94.7636V94.7702C202.76 95.0987 203.026 95.3651 203.353 95.3651H206.759C207.087 95.3651 207.353 95.0987 207.353 94.7702V94.7636C207.353 94.4351 207.087 94.1687 206.759 94.1687Z" fill="white"/>
<path d="M222.861 120.934C222.627 122.248 221.374 123.124 220.062 122.889C218.751 122.653 217.877 121.404 218.105 120.09C218.34 118.776 219.593 117.9 220.904 118.136C222.215 118.371 223.09 119.62 222.861 120.934Z" fill="#F5F5F5"/>
<path d="M222.294 120.829C222.118 121.829 221.165 122.496 220.16 122.32C219.162 122.143 218.49 121.189 218.666 120.188C218.842 119.188 219.795 118.521 220.8 118.698C221.798 118.874 222.47 119.829 222.294 120.829Z" fill="#ECECEC"/>
<path d="M222.3 120.777C222.3 120.777 222.3 120.692 222.294 120.548C222.294 120.404 222.267 120.195 222.183 119.953C222.137 119.835 222.078 119.705 222 119.581C221.922 119.456 221.817 119.332 221.693 119.214C221.635 119.156 221.563 119.103 221.491 119.057C221.419 119.005 221.341 118.959 221.263 118.92C221.184 118.881 221.093 118.848 221.008 118.816C220.917 118.789 220.826 118.77 220.734 118.75C220.636 118.737 220.545 118.731 220.454 118.731C220.362 118.731 220.271 118.744 220.18 118.757C220.088 118.77 220.003 118.796 219.919 118.822C219.834 118.848 219.756 118.881 219.684 118.92C219.534 118.992 219.403 119.084 219.292 119.182C219.181 119.28 219.09 119.384 219.012 119.489C218.862 119.698 218.783 119.888 218.738 120.025C218.692 120.162 218.672 120.241 218.666 120.241C218.659 120.241 218.653 120.156 218.686 120.012C218.718 119.868 218.783 119.659 218.933 119.43C219.005 119.319 219.103 119.201 219.214 119.097C219.331 118.992 219.468 118.888 219.625 118.809C219.703 118.77 219.788 118.731 219.88 118.698C219.971 118.665 220.062 118.639 220.16 118.626C220.258 118.606 220.356 118.6 220.454 118.6C220.552 118.6 220.656 118.6 220.76 118.619C220.865 118.633 220.963 118.659 221.06 118.685C221.158 118.718 221.25 118.757 221.334 118.796C221.419 118.842 221.504 118.888 221.582 118.946C221.661 118.999 221.732 119.057 221.791 119.123C221.922 119.247 222.026 119.384 222.104 119.522C222.183 119.659 222.241 119.796 222.281 119.927C222.359 120.182 222.365 120.404 222.352 120.555C222.339 120.705 222.313 120.783 222.307 120.783L222.3 120.777Z" fill="#BEBEBF"/>
<path d="M220.493 121.627L220.441 121.94L220.16 121.895L220.212 121.587C219.938 121.522 219.684 121.391 219.547 121.247L219.756 120.927C219.88 121.058 220.069 121.162 220.271 121.215L220.349 120.744C220.049 120.62 219.717 120.456 219.782 120.051C219.827 119.75 220.088 119.528 220.545 119.548L220.597 119.234L220.878 119.28L220.826 119.587C221.034 119.639 221.23 119.731 221.374 119.855L221.178 120.182C221.047 120.077 220.91 120.005 220.767 119.966L220.689 120.45C220.989 120.574 221.315 120.738 221.256 121.136C221.211 121.431 220.95 121.653 220.499 121.633L220.493 121.627ZM220.415 120.332L220.48 119.933C220.323 119.94 220.252 120.018 220.238 120.11C220.225 120.208 220.297 120.273 220.415 120.339V120.332ZM220.793 121.091C220.806 120.993 220.734 120.927 220.623 120.862L220.558 121.254C220.702 121.247 220.78 121.182 220.793 121.091Z" fill="#BEBEBF"/>
<path d="M219.671 117.175C220.239 118.567 219.573 120.156 218.183 120.725C216.794 121.293 215.208 120.627 214.641 119.234C214.073 117.841 214.739 116.253 216.128 115.684C217.518 115.115 219.103 115.782 219.671 117.175Z" fill="#0E33CA"/>
<g opacity="0.1">
<path d="M216.128 115.691C214.739 116.259 214.073 117.848 214.641 119.241C214.641 119.241 216.441 118.593 216.572 117.711C216.702 116.822 216.122 115.691 216.122 115.691H216.128Z" fill="white"/>
</g>
<path d="M219.012 117.404C219.443 118.463 218.94 119.672 217.883 120.104C216.826 120.535 215.619 120.032 215.189 118.973C214.758 117.913 215.26 116.704 216.317 116.273C217.374 115.841 218.581 116.344 219.012 117.404Z" fill="#0E33CA"/>
<g opacity="0.2">
<path d="M219.012 117.404C219.443 118.463 218.94 119.672 217.883 120.104C216.826 120.535 215.619 120.032 215.189 118.973C214.758 117.913 215.26 116.704 216.317 116.273C217.374 115.841 218.581 116.344 219.012 117.404Z" fill="black"/>
</g>
<path d="M219.097 117.462C219.521 118.508 219.025 119.698 217.981 120.123C216.937 120.548 215.75 120.051 215.326 119.005C214.902 117.959 215.398 116.769 216.442 116.344C217.485 115.919 218.673 116.416 219.097 117.462Z" fill="#0E33CA"/>
<g opacity="0.2">
<path d="M219.097 117.462C219.521 118.508 219.025 119.698 217.981 120.123C216.937 120.548 215.75 120.051 215.326 119.005C214.902 117.959 215.398 116.769 216.442 116.344C217.485 115.919 218.673 116.416 219.097 117.462Z" fill="white"/>
</g>
<path d="M217.218 118.037L217.022 117.554C217.107 117.528 217.205 117.514 217.303 117.514C217.388 117.521 217.453 117.541 217.453 117.541V117.521V117.318V117.273L217.329 117.22L217.296 117.253C217.172 117.246 217.035 117.253 216.905 117.292L216.794 117.024L216.683 116.991L216.709 117.057L216.598 117.103L216.709 117.371C216.35 117.56 216.259 117.848 216.363 118.09C216.5 118.423 216.82 118.391 217.114 118.351L217.309 118.829C217.12 118.887 216.911 118.887 216.755 118.842V119.129C216.911 119.188 217.172 119.169 217.414 119.09L217.498 119.293L217.407 119.332L217.525 119.358L217.72 119.28L217.609 119.012C217.968 118.822 218.06 118.534 217.962 118.292C217.825 117.959 217.505 117.992 217.211 118.037H217.218ZM217.003 118.07C216.846 118.083 216.722 118.07 216.676 117.959C216.631 117.854 216.67 117.737 216.826 117.645L217.003 118.07ZM217.512 118.75L217.335 118.325C217.498 118.306 217.622 118.325 217.668 118.436C217.707 118.541 217.668 118.652 217.505 118.75H217.512Z" fill="#0E33CA"/>
<g opacity="0.3">
<path d="M217.218 118.037L217.022 117.554C217.107 117.528 217.205 117.514 217.303 117.514C217.388 117.521 217.453 117.541 217.453 117.541V117.521V117.318V117.273L217.329 117.22L217.296 117.253C217.172 117.246 217.035 117.253 216.905 117.292L216.794 117.024L216.683 116.991L216.709 117.057L216.598 117.103L216.709 117.371C216.35 117.56 216.259 117.848 216.363 118.09C216.5 118.423 216.82 118.391 217.114 118.351L217.309 118.829C217.12 118.887 216.911 118.887 216.755 118.842V119.129C216.911 119.188 217.172 119.169 217.414 119.09L217.498 119.293L217.407 119.332L217.525 119.358L217.72 119.28L217.609 119.012C217.968 118.822 218.06 118.534 217.962 118.292C217.825 117.959 217.505 117.992 217.211 118.037H217.218ZM217.003 118.07C216.846 118.083 216.722 118.07 216.676 117.959C216.631 117.854 216.67 117.737 216.826 117.645L217.003 118.07ZM217.512 118.75L217.335 118.325C217.498 118.306 217.622 118.325 217.668 118.436C217.707 118.541 217.668 118.652 217.505 118.75H217.512Z" fill="black"/>
</g>
<path d="M217.511 118.979L217.622 119.247L217.427 119.325L217.316 119.057C217.074 119.136 216.82 119.155 216.65 119.097V118.809C216.813 118.855 217.022 118.855 217.211 118.796L217.016 118.319C216.722 118.364 216.402 118.391 216.265 118.057C216.167 117.815 216.252 117.528 216.611 117.338L216.5 117.07L216.696 116.991L216.807 117.26C216.989 117.194 217.185 117.175 217.355 117.207V117.488C217.198 117.469 217.048 117.482 216.918 117.521L217.113 118.005C217.407 117.959 217.727 117.926 217.864 118.26C217.962 118.502 217.87 118.789 217.511 118.979ZM216.898 118.037L216.722 117.613C216.565 117.711 216.526 117.822 216.572 117.926C216.618 118.044 216.742 118.051 216.898 118.037ZM217.57 118.41C217.524 118.292 217.394 118.279 217.237 118.299L217.414 118.724C217.577 118.626 217.616 118.515 217.577 118.41H217.57Z" fill="#0E33CA"/>
<path d="M216.513 118.201C216.513 118.201 216.48 118.201 216.435 118.168C216.389 118.142 216.337 118.083 216.304 118.011C216.278 117.933 216.285 117.854 216.304 117.809C216.317 117.756 216.343 117.73 216.343 117.73C216.343 117.73 216.33 117.763 216.317 117.809C216.304 117.854 216.304 117.933 216.33 118.005C216.357 118.077 216.409 118.129 216.448 118.162C216.487 118.194 216.52 118.201 216.52 118.207L216.513 118.201Z" fill="white"/>
<path d="M216.637 117.292C216.637 117.292 216.611 117.26 216.598 117.221C216.579 117.175 216.572 117.142 216.579 117.135C216.579 117.135 216.605 117.168 216.618 117.207C216.637 117.253 216.644 117.286 216.637 117.292Z" fill="white"/>
<path d="M216.468 116.148C216.468 116.148 216.448 116.155 216.402 116.168C216.383 116.168 216.357 116.181 216.331 116.194C216.304 116.207 216.272 116.214 216.233 116.233C216.2 116.246 216.161 116.266 216.122 116.285C216.083 116.305 216.037 116.331 215.998 116.351C215.913 116.403 215.822 116.462 215.73 116.534C215.639 116.606 215.561 116.684 215.489 116.756C215.456 116.795 215.424 116.828 215.398 116.867C215.371 116.9 215.345 116.933 215.326 116.965C215.3 116.998 215.287 117.024 215.267 117.05C215.248 117.077 215.234 117.096 215.228 117.116C215.208 117.155 215.195 117.175 215.195 117.175C215.195 117.175 215.202 117.155 215.221 117.116C215.228 117.096 215.241 117.077 215.261 117.05C215.274 117.024 215.293 116.992 215.313 116.965C215.332 116.933 215.358 116.9 215.385 116.861C215.411 116.822 215.443 116.789 215.476 116.75C215.541 116.678 215.626 116.599 215.717 116.521C215.809 116.449 215.9 116.384 215.991 116.338C216.037 116.312 216.076 116.292 216.122 116.272C216.161 116.253 216.2 116.24 216.239 116.22C216.272 116.207 216.304 116.194 216.337 116.187C216.363 116.174 216.389 116.168 216.409 116.168C216.448 116.155 216.474 116.148 216.474 116.155L216.468 116.148Z" fill="white"/>
<path d="M222.013 97.006C221.817 98.1894 220.702 98.9935 219.514 98.7974C218.333 98.6012 217.531 97.4833 217.727 96.2934C217.922 95.1101 219.038 94.306 220.226 94.5021C221.406 94.6982 222.209 95.8162 222.013 97.006Z" fill="#0E33CA"/>
<g opacity="0.1">
<path d="M220.225 94.5021C219.045 94.306 217.922 95.1101 217.727 96.2934C217.727 96.2934 219.221 96.6138 219.684 96.0646C220.147 95.5155 220.225 94.5021 220.225 94.5021Z" fill="white"/>
</g>
<path d="M221.472 96.8818C221.322 97.784 220.474 98.392 219.573 98.2417C218.673 98.0913 218.066 97.2414 218.216 96.3392C218.366 95.437 219.214 94.829 220.115 94.9794C221.015 95.1297 221.622 95.9796 221.472 96.8818Z" fill="#0E33CA"/>
<g opacity="0.2">
<path d="M221.472 96.8818C221.322 97.784 220.474 98.392 219.573 98.2417C218.673 98.0913 218.066 97.2414 218.216 96.3392C218.366 95.437 219.214 94.829 220.115 94.9794C221.015 95.1297 221.622 95.9796 221.472 96.8818Z" fill="black"/>
</g>
<path d="M221.511 96.9537C221.361 97.8428 220.526 98.4443 219.638 98.3005C218.751 98.1501 218.151 97.3133 218.294 96.4242C218.444 95.535 219.279 94.9336 220.167 95.0774C221.054 95.2278 221.654 96.0646 221.511 96.9537Z" fill="#0E33CA"/>
<g opacity="0.2">
<path d="M221.511 96.9537C221.361 97.8428 220.526 98.4443 219.638 98.3005C218.751 98.1501 218.151 97.3133 218.294 96.4242C218.444 95.535 219.279 94.9336 220.167 95.0774C221.054 95.2278 221.654 96.0646 221.511 96.9537Z" fill="white"/>
</g>
<path d="M219.991 96.5616L220.056 96.1497C220.128 96.1693 220.199 96.202 220.265 96.2413C220.323 96.2805 220.356 96.3197 220.356 96.3197V96.3066L220.454 96.1693L220.473 96.1366L220.415 96.0451L220.376 96.0582C220.291 95.9993 220.199 95.9471 220.095 95.9209L220.134 95.6921L220.075 95.6267V95.6855L219.971 95.6725L219.932 95.9013C219.612 95.8817 219.429 96.0386 219.397 96.2413C219.351 96.5224 219.58 96.64 219.795 96.7316L219.73 97.1369C219.58 97.0977 219.436 97.0127 219.345 96.9146L219.221 97.1042C219.312 97.2154 219.495 97.3134 219.69 97.3592L219.664 97.5292L219.586 97.5161L219.658 97.5815L219.827 97.6076L219.867 97.3788C220.193 97.3984 220.376 97.248 220.408 97.0388C220.454 96.7577 220.219 96.64 220.004 96.5485L219.991 96.5616ZM219.827 96.4897C219.717 96.4374 219.632 96.3785 219.651 96.2805C219.664 96.1889 219.743 96.1301 219.886 96.1301L219.827 96.4962V96.4897ZM219.886 97.1696L219.945 96.81C220.062 96.8623 220.141 96.9277 220.128 97.0258C220.115 97.1108 220.036 97.1696 219.886 97.1696Z" fill="#0E33CA"/>
<g opacity="0.3">
<path d="M219.991 96.5616L220.056 96.1497C220.128 96.1693 220.199 96.202 220.265 96.2413C220.323 96.2805 220.356 96.3197 220.356 96.3197V96.3066L220.454 96.1693L220.473 96.1366L220.415 96.0451L220.376 96.0582C220.291 95.9993 220.199 95.9471 220.095 95.9209L220.134 95.6921L220.075 95.6267V95.6855L219.971 95.6725L219.932 95.9013C219.612 95.8817 219.429 96.0386 219.397 96.2413C219.351 96.5224 219.58 96.64 219.795 96.7316L219.73 97.1369C219.58 97.0977 219.436 97.0127 219.345 96.9146L219.221 97.1042C219.312 97.2154 219.495 97.3134 219.69 97.3592L219.664 97.5292L219.586 97.5161L219.658 97.5815L219.827 97.6076L219.867 97.3788C220.193 97.3984 220.376 97.248 220.408 97.0388C220.454 96.7577 220.219 96.64 220.004 96.5485L219.991 96.5616ZM219.827 96.4897C219.717 96.4374 219.632 96.3785 219.651 96.2805C219.664 96.1889 219.743 96.1301 219.886 96.1301L219.827 96.4962V96.4897ZM219.886 97.1696L219.945 96.81C220.062 96.8623 220.141 96.9277 220.128 97.0258C220.115 97.1108 220.036 97.1696 219.886 97.1696Z" fill="black"/>
</g>
<path d="M219.788 97.3264L219.749 97.5552L219.58 97.5291L219.619 97.3002C219.423 97.2545 219.24 97.1564 219.149 97.0453L219.273 96.8557C219.358 96.9537 219.501 97.0387 219.658 97.078L219.723 96.6726C219.508 96.5811 219.273 96.4634 219.325 96.1823C219.358 95.9731 219.54 95.8162 219.86 95.8423L219.899 95.6135L220.069 95.6397L220.03 95.8685C220.18 95.9012 220.323 95.9731 220.421 96.0646L220.304 96.2542C220.206 96.1758 220.095 96.1169 219.991 96.0908L219.925 96.5026C220.141 96.5942 220.376 96.7053 220.33 96.993C220.297 97.2022 220.115 97.3525 219.788 97.3329V97.3264ZM219.769 96.4242L219.827 96.0581C219.677 96.0581 219.606 96.1169 219.593 96.2085C219.58 96.3065 219.658 96.3654 219.769 96.4177V96.4242ZM220.069 96.9603C220.088 96.8622 220.004 96.7968 219.886 96.7445L219.827 97.1041C219.978 97.1041 220.056 97.0453 220.069 96.9603Z" fill="#0E33CA"/>
<path d="M219.436 96.372C219.436 96.372 219.416 96.3523 219.397 96.3197C219.377 96.2804 219.364 96.2216 219.377 96.1562C219.39 96.0908 219.43 96.0451 219.462 96.0124C219.495 95.9862 219.521 95.9732 219.521 95.9797C219.521 95.9797 219.501 95.9928 219.469 96.0255C219.443 96.0516 219.41 96.1039 219.397 96.1627C219.384 96.2216 219.397 96.2804 219.41 96.3197C219.423 96.3589 219.443 96.3785 219.436 96.3785V96.372Z" fill="white"/>
<path d="M219.906 95.8102C219.906 95.8102 219.906 95.7774 219.906 95.7446C219.906 95.7052 219.919 95.679 219.925 95.679C219.925 95.679 219.925 95.7118 219.925 95.7446C219.925 95.784 219.912 95.8102 219.906 95.8102Z" fill="white"/>
<path d="M220.271 94.9601C220.271 94.9601 220.252 94.9601 220.219 94.947C220.2 94.947 220.18 94.9404 220.16 94.9339C220.134 94.9339 220.108 94.9207 220.082 94.9207C220.05 94.9207 220.017 94.9142 219.984 94.9076C219.952 94.9076 219.912 94.9076 219.873 94.901C219.795 94.901 219.704 94.901 219.612 94.9142C219.521 94.9273 219.436 94.947 219.358 94.9667C219.319 94.9798 219.28 94.9864 219.247 94.9995C219.214 95.0126 219.182 95.0257 219.156 95.0389C219.13 95.052 219.103 95.0651 219.084 95.0717C219.064 95.0848 219.045 95.0914 219.025 95.0979C219.038 95.0914 219.058 95.0783 219.077 95.0651C219.097 95.052 219.123 95.0389 219.149 95.0257C219.175 95.0126 219.208 94.9995 219.24 94.9864C219.273 94.9732 219.312 94.9601 219.351 94.947C219.43 94.9273 219.514 94.9076 219.612 94.8945C219.704 94.8813 219.795 94.8813 219.873 94.8813C219.912 94.8813 219.952 94.8813 219.991 94.8879C220.03 94.8879 220.063 94.8945 220.089 94.901C220.121 94.901 220.147 94.9142 220.167 94.9207C220.193 94.9207 220.213 94.9339 220.226 94.9339C220.258 94.947 220.278 94.947 220.278 94.9535L220.271 94.9601Z" fill="white"/>
<path d="M192.758 102.779C192.236 103.857 190.931 104.309 189.854 103.786C188.778 103.263 188.328 101.955 188.85 100.876C189.372 99.7975 190.677 99.3464 191.753 99.8695C192.83 100.392 193.28 101.693 192.758 102.779Z" fill="#0E33CA"/>
<g opacity="0.1">
<path d="M191.753 99.8695C190.676 99.3464 189.372 99.7975 188.85 100.876C188.85 100.876 190.194 101.608 190.794 101.21C191.394 100.817 191.753 99.8629 191.753 99.8629V99.8695Z" fill="white"/>
</g>
<path d="M192.275 102.504C191.877 103.328 190.892 103.668 190.07 103.269C189.248 102.87 188.909 101.883 189.307 101.059C189.705 100.235 190.69 99.8955 191.512 100.294C192.334 100.693 192.673 101.68 192.275 102.504Z" fill="#0E33CA"/>
<g opacity="0.2">
<path d="M192.275 102.504C191.877 103.328 190.892 103.668 190.07 103.269C189.248 102.87 188.909 101.883 189.307 101.059C189.705 100.235 190.69 99.8955 191.512 100.294C192.334 100.693 192.673 101.68 192.275 102.504Z" fill="black"/>
</g>
<path d="M192.288 102.583C191.897 103.393 190.918 103.733 190.109 103.341C189.3 102.949 188.961 101.968 189.352 101.157C189.744 100.347 190.722 100.007 191.531 100.399C192.34 100.791 192.68 101.772 192.288 102.583Z" fill="#0E33CA"/>
<g opacity="0.2">
<path d="M192.288 102.583C191.897 103.393 190.918 103.733 190.109 103.341C189.3 102.949 188.961 101.968 189.352 101.157C189.744 100.347 190.722 100.007 191.531 100.399C192.34 100.791 192.68 101.772 192.288 102.583Z" fill="white"/>
</g>
<path d="M190.937 101.772L191.12 101.399C191.179 101.438 191.237 101.491 191.296 101.55C191.335 101.608 191.361 101.654 191.361 101.654H191.374L191.498 101.536L191.524 101.51L191.492 101.406H191.453C191.387 101.321 191.316 101.249 191.218 101.197L191.316 100.987L191.276 100.902L191.25 100.955L191.159 100.909L191.055 101.118C190.754 101.007 190.533 101.105 190.441 101.295C190.317 101.556 190.507 101.726 190.689 101.876L190.507 102.249C190.37 102.164 190.259 102.046 190.206 101.929L190.03 102.079C190.089 102.21 190.233 102.354 190.409 102.458L190.33 102.615L190.259 102.583L190.304 102.668L190.454 102.739L190.552 102.53C190.859 102.641 191.074 102.543 191.172 102.354C191.296 102.092 191.107 101.922 190.924 101.772H190.937ZM190.807 101.661C190.715 101.576 190.657 101.497 190.696 101.406C190.735 101.321 190.826 101.282 190.963 101.327L190.8 101.661H190.807ZM190.67 102.328L190.826 102.001C190.924 102.086 190.983 102.171 190.937 102.262C190.898 102.341 190.813 102.38 190.663 102.334L190.67 102.328Z" fill="#0E33CA"/>
<g opacity="0.3">
<path d="M190.937 101.772L191.12 101.399C191.179 101.438 191.237 101.491 191.296 101.55C191.335 101.608 191.361 101.654 191.361 101.654H191.374L191.498 101.536L191.524 101.51L191.492 101.406H191.453C191.387 101.321 191.316 101.249 191.218 101.197L191.316 100.987L191.276 100.902L191.25 100.955L191.159 100.909L191.055 101.118C190.754 101.007 190.533 101.105 190.441 101.295C190.317 101.556 190.507 101.726 190.689 101.876L190.507 102.249C190.37 102.164 190.259 102.046 190.206 101.929L190.03 102.079C190.089 102.21 190.233 102.354 190.409 102.458L190.33 102.615L190.259 102.583L190.304 102.668L190.454 102.739L190.552 102.53C190.859 102.641 191.074 102.543 191.172 102.354C191.296 102.092 191.107 101.922 190.924 101.772H190.937ZM190.807 101.661C190.715 101.576 190.657 101.497 190.696 101.406C190.735 101.321 190.826 101.282 190.963 101.327L190.8 101.661H190.807ZM190.67 102.328L190.826 102.001C190.924 102.086 190.983 102.171 190.937 102.262C190.898 102.341 190.813 102.38 190.663 102.334L190.67 102.328Z" fill="black"/>
</g>
<path d="M190.533 102.445L190.435 102.655L190.285 102.583L190.383 102.373C190.207 102.275 190.057 102.125 190.004 101.994L190.181 101.844C190.233 101.962 190.35 102.086 190.481 102.164L190.663 101.792C190.481 101.641 190.291 101.465 190.415 101.21C190.507 101.02 190.722 100.922 191.029 101.033L191.133 100.824L191.283 100.896L191.185 101.105C191.322 101.177 191.44 101.288 191.505 101.399L191.335 101.55C191.264 101.445 191.179 101.36 191.081 101.301L190.898 101.68C191.081 101.831 191.27 102.007 191.146 102.262C191.055 102.452 190.833 102.55 190.526 102.439L190.533 102.445ZM190.768 101.576L190.931 101.242C190.787 101.197 190.703 101.242 190.663 101.321C190.618 101.412 190.683 101.491 190.774 101.576H190.768ZM190.905 102.177C190.95 102.086 190.885 102.001 190.794 101.916L190.637 102.243C190.781 102.288 190.872 102.256 190.911 102.171L190.905 102.177Z" fill="#0E33CA"/>
<path d="M190.468 101.438C190.468 101.438 190.455 101.419 190.448 101.373C190.442 101.334 190.448 101.268 190.474 101.21C190.507 101.151 190.553 101.112 190.592 101.098C190.631 101.079 190.657 101.079 190.657 101.079C190.657 101.079 190.631 101.085 190.598 101.105C190.566 101.125 190.52 101.157 190.487 101.216C190.461 101.268 190.455 101.327 190.455 101.367C190.455 101.406 190.468 101.432 190.468 101.432V101.438Z" fill="white"/>
<path d="M191.075 101.027C191.075 101.027 191.075 100.994 191.094 100.961C191.114 100.929 191.127 100.902 191.133 100.902C191.133 100.902 191.133 100.935 191.114 100.968C191.094 101.001 191.081 101.027 191.075 101.027Z" fill="white"/>
<path d="M191.662 100.32C191.662 100.32 191.642 100.314 191.616 100.294C191.603 100.288 191.583 100.275 191.564 100.262C191.544 100.249 191.518 100.235 191.492 100.222C191.466 100.209 191.433 100.196 191.401 100.183C191.368 100.17 191.329 100.157 191.296 100.144C191.218 100.118 191.133 100.098 191.042 100.079C190.95 100.066 190.859 100.059 190.781 100.059C190.742 100.059 190.703 100.059 190.67 100.059C190.637 100.059 190.598 100.059 190.572 100.066C190.539 100.066 190.513 100.072 190.494 100.079C190.468 100.079 190.448 100.085 190.435 100.092C190.402 100.098 190.383 100.098 190.383 100.098C190.383 100.098 190.402 100.098 190.435 100.085C190.455 100.085 190.474 100.079 190.494 100.072C190.52 100.072 190.546 100.059 190.572 100.059C190.605 100.059 190.637 100.052 190.67 100.046C190.709 100.046 190.742 100.046 190.787 100.046C190.866 100.046 190.957 100.052 191.048 100.066C191.14 100.079 191.224 100.105 191.303 100.131C191.342 100.144 191.375 100.157 191.407 100.17C191.44 100.183 191.472 100.196 191.499 100.209C191.525 100.222 191.551 100.235 191.57 100.249C191.59 100.262 191.609 100.275 191.622 100.281C191.649 100.301 191.668 100.314 191.668 100.314L191.662 100.32Z" fill="white"/>
<path d="M144.157 32.7733C148.251 32.7733 151.569 29.4482 151.569 25.3465C151.569 21.2448 148.251 17.9197 144.157 17.9197C140.064 17.9197 136.746 21.2448 136.746 25.3465C136.746 29.4482 140.064 32.7733 144.157 32.7733Z" fill="white" stroke="#16215B" stroke-miterlimit="10"/>
<path d="M144.157 31.0342C147.292 31.0342 149.833 28.4877 149.833 25.3465C149.833 22.2052 147.292 19.6587 144.157 19.6587C141.022 19.6587 138.481 22.2052 138.481 25.3465C138.481 28.4877 141.022 31.0342 144.157 31.0342Z" fill="#0E33CA" stroke="#16215B" stroke-width="0.83" stroke-linecap="round" stroke-linejoin="round"/>
<path d="M143.694 28.321C143.694 28.321 143.642 28.321 143.609 28.3079C143.342 28.2622 143.113 28.0857 142.996 27.8438L141.052 25.0914C140.843 24.6665 141.019 24.1565 141.443 23.9473C141.867 23.7381 142.376 23.9146 142.585 24.3396L144.02 26.0459L150.825 19.5736C151.165 19.2467 151.706 19.2598 152.032 19.6063C152.359 19.9463 152.346 20.4889 152 20.8158L144.353 28.0857C144.177 28.2556 143.936 28.3341 143.701 28.3145L143.694 28.321Z" fill="#16215B"/>
<path d="M209.651 253.885C206.506 249.171 204.275 245.785 201.567 241.66C201.567 241.66 201.554 241.646 201.554 241.64C198.09 236.377 195.597 232.539 195.597 232.539C194.273 226.322 192.387 223.877 190.502 218.771C188.623 213.665 190.169 209.115 190.952 202.787C191.722 196.458 190.502 190.574 189.843 186.58C189.177 182.585 189.954 178.806 189.843 177.917C189.732 177.028 185.961 172.367 184.519 168.928C183.873 167.385 182.947 165.953 181.85 164.744C180.506 163.26 178.914 162.103 177.322 161.488C176.507 161.174 175.757 160.991 175.072 160.9C173.31 160.645 171.881 160.932 170.452 160.932C168.456 160.932 164.254 157.494 161.481 156.944C160.966 156.846 160.45 156.768 159.922 156.729H159.902C157.612 156.513 155.211 156.755 152.51 156.944C149.855 157.121 146.71 154.617 144.204 153.819C144.191 153.819 144.178 153.806 144.159 153.8C143.539 153.61 142.952 153.519 142.43 153.61C139.768 154.055 134.783 154.499 134.783 154.499C134.783 154.499 134.34 151.06 134.118 146.393C134.079 145.582 134.02 144.804 133.948 144.039V144.019C133.694 141.143 133.276 138.567 133.211 136.213C133.191 135.599 133.191 134.991 133.23 134.403C133.446 131.081 133.348 128.473 133.243 123.393C133.243 123.217 133.243 123.04 133.23 122.857C133.198 121.268 133.211 119.752 133.132 118.379C132.95 115.058 132.213 112.606 128.918 112.089C126.034 111.645 124.037 113.09 122.824 117.862C121.604 122.641 120.716 122.301 120.39 129.297C120.051 136.292 118.505 140.738 118.727 144.287C118.942 147.837 118.172 154.722 118.172 154.722C116.848 154.055 115.621 154.61 115.393 155.166C115.164 155.722 114.186 161.161 113.403 165.051C112.711 168.503 109.579 171.693 108.418 174.073C108.405 174.093 108.398 174.112 108.392 174.132C108.261 174.406 108.157 174.675 108.092 174.93C107.426 177.368 107.759 182.592 107.759 189.254C107.759 195.915 106.095 202.8 107.759 207.239C108.092 208.121 108.594 208.938 109.227 209.723C111.778 212.881 116.456 215.607 120.723 220.667C126.04 226.996 129.805 231.663 133.354 233.775C135.892 235.279 137.008 236.501 137.471 238.123C137.471 238.136 137.471 238.142 137.471 238.142C137.654 238.783 137.732 239.489 137.765 240.293C137.811 241.705 138.574 242.791 139.872 244.588C141.184 246.406 143.03 248.956 145.203 253.316C146.625 256.16 148.798 261.586 151.081 267.575L209.671 253.898L209.651 253.885Z" fill="white"/>
<g opacity="0.2">
<path opacity="0.4" d="M133.224 134.402C133.185 134.991 133.178 135.599 133.204 136.213C128.97 135.409 120.795 137.501 120.671 140.005C120.527 143.058 120.155 150.276 121.708 151.956C123.261 153.636 126.582 154.715 126.582 154.715C126.327 154.735 126.086 154.767 125.851 154.813H125.838C125.812 154.813 125.779 154.826 125.76 154.833C124.651 155.068 123.731 155.617 122.987 156.395C119.751 159.729 119.607 167.11 120.671 170.66C125.107 185.416 117.917 197.099 115.386 195.687C112.848 194.281 112.626 181.585 113.396 178.61C114.172 175.636 114.075 173.275 114.075 173.275C112.946 172.896 110.571 173.452 108.385 174.125C108.398 174.106 108.405 174.086 108.411 174.066C109.573 171.687 112.704 168.496 113.396 165.044C114.172 161.155 115.158 155.715 115.386 155.16C115.614 154.604 116.834 154.048 118.165 154.715C118.165 154.715 118.935 147.831 118.72 144.281C118.498 140.731 120.044 136.285 120.384 129.29C120.716 122.295 121.597 122.635 122.817 117.856C124.031 113.077 126.027 111.638 128.911 112.083C132.212 112.593 132.943 115.044 133.126 118.372C132.754 118.032 132.356 117.692 131.919 117.398C130.829 116.646 129.564 116.123 128.252 116.306C126.725 116.522 125.381 118.052 124.54 119.686C123.32 122.04 123.117 124.583 124.833 123.72C126.778 122.746 130.79 123.066 133.237 123.393C133.341 128.473 133.446 131.075 133.224 134.402Z" fill="#0273FF"/>
<path opacity="0.4" d="M137.745 240.28C137.719 239.476 137.641 238.77 137.452 238.129C137.452 238.129 137.452 238.129 137.452 238.109C136.989 236.488 135.873 235.265 133.335 233.762C129.792 231.65 126.021 226.989 120.704 220.654C116.443 215.594 111.759 212.867 109.208 209.71C112.418 211.455 116.776 210.56 118.153 213.312C120.149 217.293 129.531 223.321 129.531 223.321C138.691 232.422 137.745 240.28 137.745 240.28Z" fill="#0273FF"/>
<path opacity="0.4" d="M144.152 153.8C143.076 153.584 140.153 160.801 139.872 163.364C139.141 170.006 142.541 190.482 138.163 190.025C136.355 189.835 134.235 180.271 134.104 175.812C133.713 162.266 134.254 156.643 134.254 156.643C134.254 156.643 133.282 149.145 133.935 144.039C134.007 144.804 134.065 145.582 134.104 146.392C134.326 151.054 134.77 154.499 134.77 154.499C134.77 154.499 139.755 154.055 142.417 153.61C142.945 153.518 143.526 153.61 144.146 153.8H144.152Z" fill="#0273FF"/>
<path opacity="0.4" d="M159.896 156.729C157.54 156.944 155.165 159.252 153.241 159.671C150.879 160.174 146.553 154.852 144.198 153.819C146.71 154.617 149.848 157.121 152.503 156.944C155.204 156.761 157.605 156.519 159.896 156.729Z" fill="#0273FF"/>
<path opacity="0.4" d="M175.072 160.906C174.223 161.828 172.664 164.534 172.286 165.757C170.387 171.902 172.181 195.163 169.121 191.358C165.135 186.409 169.297 169.248 166.394 162.691C165.468 160.592 162.192 157.238 161.475 156.957C164.247 157.506 168.456 160.945 170.446 160.945C171.875 160.945 173.31 160.658 175.065 160.913L175.072 160.906Z" fill="#0273FF"/>
<path opacity="0.4" d="M201.554 241.646C198.448 238.136 195.199 234.801 193.066 233.54C187.885 230.487 186.398 227.322 185.954 222.046C185.51 216.764 186.841 216.888 188.394 211.678C189.947 206.461 187.063 200.014 187.285 201.407C187.5 202.799 185.067 212.456 183.266 212.926C181.465 213.397 180.859 206.899 180.637 201.597C180.415 196.295 183.299 171.595 182.49 166.77C182.359 165.992 182.137 165.326 181.837 164.75C182.933 165.96 183.866 167.385 184.506 168.934C185.948 172.373 189.712 177.041 189.83 177.924C189.941 178.813 189.164 182.585 189.83 186.586C190.489 190.581 191.709 196.464 190.939 202.793C190.162 209.121 188.61 213.672 190.489 218.778C192.374 223.883 194.26 226.329 195.584 232.546C195.584 232.546 198.083 236.384 201.541 241.646H201.554Z" fill="#0273FF"/>
<path opacity="0.4" d="M154.787 169.869C155.968 171.111 156.705 187.357 157.371 191.352C158.036 195.347 155.968 204.918 154.787 202.021C153.606 199.125 149.985 164.816 154.787 169.869Z" fill="#0273FF"/>
</g>
<path d="M151.062 267.562C149.104 262.495 146.423 255.781 145.183 253.303C143.011 248.943 141.164 246.393 139.853 244.575C138.561 242.778 137.791 241.699 137.745 240.28C137.719 239.476 137.641 238.77 137.452 238.129C137.452 238.129 137.452 238.129 137.452 238.11C136.988 236.488 135.873 235.266 133.335 233.762C129.792 231.65 126.021 226.989 120.703 220.654C116.443 215.594 111.758 212.868 109.207 209.71C108.575 208.926 108.072 208.102 107.739 207.226C106.076 202.787 107.739 195.902 107.739 189.241C107.739 182.579 107.4 177.362 108.072 174.917C108.137 174.662 108.248 174.394 108.372 174.119C108.385 174.099 108.392 174.08 108.398 174.06C109.56 171.68 112.691 168.49 113.383 165.038C114.159 161.148 115.145 155.709 115.373 155.153C115.601 154.597 116.821 154.042 118.152 154.709C118.152 154.709 118.922 147.824 118.707 144.275C118.485 140.725 120.031 136.279 120.371 129.284C120.703 122.288 121.584 122.628 122.804 117.849C124.018 113.07 126.014 111.632 128.898 112.076C132.2 112.586 132.93 115.038 133.113 118.366C133.191 119.739 133.172 121.255 133.211 122.844C133.211 123.027 133.211 123.21 133.224 123.38C133.328 128.46 133.433 131.062 133.211 134.39C133.172 134.978 133.165 135.586 133.191 136.2C133.256 138.554 133.674 141.13 133.929 144.006V144.026C134 144.791 134.059 145.569 134.098 146.38C134.32 151.041 134.764 154.486 134.764 154.486C134.764 154.486 139.748 154.042 142.41 153.597C142.939 153.506 143.519 153.597 144.139 153.787C144.159 153.787 144.172 153.8 144.185 153.806C146.697 154.604 149.835 157.108 152.491 156.931C155.192 156.748 157.593 156.506 159.883 156.716H159.902C160.431 156.761 160.946 156.833 161.462 156.931C164.234 157.481 168.443 160.919 170.433 160.919C171.862 160.919 173.297 160.632 175.052 160.887C175.744 160.985 176.487 161.161 177.303 161.475C178.895 162.09 180.487 163.24 181.831 164.731C182.927 165.94 183.86 167.366 184.499 168.915C185.941 172.354 189.706 177.022 189.823 177.904C189.934 178.793 189.158 182.566 189.823 186.567C190.482 190.561 191.702 196.445 190.932 202.774C190.156 209.102 188.603 213.652 190.482 218.758C192.368 223.864 194.253 226.309 195.578 232.527C195.578 232.527 198.077 236.364 201.535 241.627C201.535 241.627 201.535 241.64 201.548 241.647C203.955 245.301 206.819 249.649 209.631 253.872" stroke="#1A2E35" stroke-linecap="round" stroke-linejoin="round"/>
<path d="M118.152 154.715C118.152 159.599 117.709 165.666 116.972 168.183C116.234 170.7 116.737 179.133 115.373 182.69" stroke="#1A2E35" stroke-linecap="round" stroke-linejoin="round"/>
<path d="M120.665 158.566C120.665 158.566 124.064 154.715 126.576 154.715C129.088 154.715 131.6 156.343 134.255 156.637C136.917 156.931 139.683 154.964 142.234 154.493" stroke="#1A2E35" stroke-linecap="round" stroke-linejoin="round"/>
<path d="M122.589 140.757C122.589 140.757 127.169 139.077 129.531 140.757" stroke="#1A2E35" stroke-linecap="round" stroke-linejoin="round"/>
<path d="M126.06 138.587C126.06 138.587 127.463 138.207 129.531 139.208" stroke="#1A2E35" stroke-linecap="round" stroke-linejoin="round"/>
<path d="M124.833 126.742C124.833 126.742 127.163 126.144 129.531 126.742" stroke="#1A2E35" stroke-linecap="round" stroke-linejoin="round"/>
<path d="M108.405 174.067C108.405 174.067 111.36 172.628 112.541 172.478" stroke="#1A2E35" stroke-linecap="round" stroke-linejoin="round"/>
<path d="M116.169 178.61C116.169 178.61 114.414 181.363 114.068 182.696" stroke="#1A2E35" stroke-linecap="round" stroke-linejoin="round"/>
<path d="M124.834 114.751C124.834 114.751 124.129 120.406 124.834 120.909C125.538 121.412 131.006 121.883 131.449 120.909C131.893 119.935 131.978 115.79 131.978 115.79C131.978 115.79 128.709 110.168 124.834 114.751Z" stroke="#1A2E35" stroke-linecap="round" stroke-linejoin="round"/>
<path d="M113.39 165.045C113.39 165.045 117.918 162.756 118.029 159.481C118.139 156.206 116.802 156.238 115.112 156.219" stroke="#1A2E35" stroke-linecap="round" stroke-linejoin="round"/>
<path d="M184.036 172.478C184.186 177.656 182.705 192.758 182.562 194.981C182.412 197.204 182.562 202.878 182.562 202.878" stroke="#1A2E35" stroke-linecap="round" stroke-linejoin="round"/>
<path d="M151.688 160.632C156.562 167.745 151.688 165.045 154.787 198.982" stroke="#1A2E35" stroke-linecap="round" stroke-linejoin="round"/>
<path d="M195.597 232.539C195.597 232.539 191.278 229.173 190.541 227.25" stroke="#1A2E35" stroke-linecap="round" stroke-linejoin="round"/>
<path d="M135.292 230.944C136.584 233.102 137.412 237.822 137.452 238.11C137.452 238.123 137.452 238.129 137.452 238.129" stroke="#1A2E35" stroke-linecap="round" stroke-linejoin="round"/>
<path d="M181.805 267.92C198.346 264.413 211.065 258.304 210.214 254.277C209.364 250.251 195.266 249.83 178.725 253.338C162.185 256.845 149.465 262.953 150.316 266.98C151.167 271.007 165.265 271.428 181.805 267.92Z" fill="#0E33CA"/>
</g>
<defs>
<clipPath id="clip0_1005_670">
<rect width="237" height="273" fill="white"/>
</clipPath>
</defs>
</svg>
