<svg width="258" height="211" viewBox="0 0 258 211" fill="none" xmlns="http://www.w3.org/2000/svg">
<g clip-path="url(#clip0_692_925)">
<path d="M202.511 210.543C232.905 210.543 257.543 185.895 257.543 155.489C257.543 125.084 232.905 100.436 202.511 100.436C172.118 100.436 147.479 125.084 147.479 155.489C147.479 185.895 172.118 210.543 202.511 210.543Z" stroke="#16215B" stroke-linecap="round" stroke-linejoin="round"/>
<path d="M165.561 196.274C165.954 180.699 166.247 165.233 166.073 164.356C165.717 162.573 161.633 162.573 161.633 162.573C161.633 162.573 158.435 170.928 157.722 178.935C157.567 180.671 157.238 183.222 156.817 186.156C159.312 189.876 162.263 193.267 165.561 196.265V196.274Z" fill="white" stroke="#16215B" stroke-linecap="round" stroke-linejoin="round"/>
<path d="M202.511 210.543C214.353 210.543 225.317 206.795 234.29 200.433L234.354 167.326C234.354 167.326 222.731 161.403 211.95 159.712C201.168 158.021 169.043 162.884 169.043 162.884L167.974 198.331C177.421 205.963 189.436 210.543 202.52 210.543H202.511Z" fill="#0E33CA" stroke="#16215B" stroke-linecap="round" stroke-linejoin="round"/>
<path d="M191.849 141.413C191.849 141.413 189.363 167.015 190.067 168.624C190.78 170.224 193.804 174.492 200.017 174.492C206.23 174.492 212.991 167.911 212.991 167.911L215.12 142.126C215.12 142.126 206.943 146.038 201.26 144.795C195.567 143.552 191.839 141.413 191.839 141.413H191.849Z" fill="white" stroke="#16215B" stroke-linecap="round" stroke-linejoin="round"/>
<path d="M200.328 151.477L214.243 160.316L215.349 140.426L200.328 151.477Z" fill="#16215B"/>
<path d="M186.037 119.896C186.037 119.896 184.255 115.81 182.483 119.009C180.701 122.209 186.567 130.389 186.567 130.389L186.037 119.896Z" fill="white" stroke="#16215B" stroke-linecap="round" stroke-linejoin="round"/>
<path d="M220.173 119.896C220.173 119.896 221.955 115.81 223.727 119.009C225.509 122.209 218.729 130.92 218.729 130.92L220.173 119.905V119.896Z" fill="white" stroke="#16215B" stroke-linecap="round" stroke-linejoin="round"/>
<path d="M186.577 122.209C186.577 122.209 184.795 115.81 184.795 114.028C184.795 112.246 187.993 112.246 187.993 112.246L186.567 122.2L186.577 122.209Z" fill="#16215B"/>
<path d="M186.814 112.931C186.814 112.931 186.193 134.96 187.855 138.488C189.518 142.016 195.329 150.124 196.782 151.166C198.235 152.208 203.224 152.619 204.677 152.409C206.129 152.199 217.267 141.093 217.678 139.64C218.09 138.186 219.835 117.922 219.835 117.922L219.625 101.094C219.625 101.094 215.467 98.8089 209.236 99.2202C203.005 99.6315 187.636 106.286 187.636 106.286L186.805 112.931H186.814Z" fill="white" stroke="#16215B" stroke-linecap="round" stroke-linejoin="round"/>
<path d="M214.855 104.412C214.855 104.412 209.665 111.267 207.381 112.309C205.097 113.351 205.508 108.982 205.508 108.982C205.508 108.982 200.108 113.141 192.424 114.805C184.74 116.468 178.509 116.88 176.434 113.973C174.36 111.066 181.003 106.907 181.003 106.907C181.003 106.907 175.813 103.791 181.003 98.1782C186.193 92.5659 199.487 86.3321 209.044 90.0706C218.601 93.809 216.728 97.3464 216.728 97.3464C216.728 97.3464 224.001 96.3044 224.623 102.127C225.244 107.949 220.886 114.595 220.886 114.595C220.886 114.595 220.676 119.585 220.676 120.828C220.676 122.072 219.223 121.87 219.223 121.87L218.601 115.637C218.601 115.637 216.317 115.847 215.075 111.478C213.832 107.118 214.864 104.412 214.864 104.412H214.855Z" fill="#16215B"/>
<path d="M197.596 133.771C197.596 133.771 199.725 135.554 201.68 135.554C203.635 135.554 205.591 133.954 205.591 133.954" stroke="#16215B" stroke-linecap="round" stroke-linejoin="round"/>
<path d="M195.458 138.397C195.458 138.397 199.368 140.526 202.749 140.179C206.129 139.822 208.258 136.98 208.258 136.98" stroke="#16215B" stroke-linecap="round" stroke-linejoin="round"/>
<path d="M205.59 118.123C205.59 118.123 212.343 116.167 214.481 119.905" stroke="#16215B" stroke-linecap="round" stroke-linejoin="round"/>
<path d="M198.308 118.653C198.308 118.653 193.685 115.454 190.131 118.827" stroke="#16215B" stroke-linecap="round" stroke-linejoin="round"/>
<path d="M196.353 123.242C196.353 124.695 195.704 125.874 194.891 125.874C194.078 125.874 193.429 124.695 193.429 123.242C193.429 121.788 194.078 120.609 194.891 120.609C195.704 120.609 196.353 121.788 196.353 123.242Z" fill="#16215B"/>
<path d="M208.651 126.971C209.459 126.971 210.113 125.792 210.113 124.339C210.113 122.885 209.459 121.706 208.651 121.706C207.844 121.706 207.189 122.885 207.189 124.339C207.189 125.792 207.844 126.971 208.651 126.971Z" fill="#16215B"/>
<path d="M250.316 182.756C246.634 174.017 243.646 167.272 243.043 166.668C241.261 164.886 219.223 153.689 219.223 153.689C219.223 153.689 216.738 149.246 214.243 151.559C214.243 151.559 206.778 175.562 204.293 196.722C203.855 200.479 203.507 205.241 203.251 210.534C223.417 210.269 240.96 199.163 250.325 182.765L250.316 182.756Z" fill="white" stroke="#16215B" stroke-linecap="round" stroke-linejoin="round"/>
<path d="M219.223 153.689C219.223 153.689 219.753 159.383 219.753 166.668C219.753 173.953 218.684 181.247 218.684 181.247C218.684 181.247 214.773 180.178 210.862 181.421C206.952 182.664 206.065 184.09 206.065 184.09C206.065 184.09 211.575 155.106 214.243 151.55C216.911 147.994 217.797 150.663 219.223 153.68V153.689Z" fill="white" stroke="#16215B" stroke-linecap="round" stroke-linejoin="round"/>
<path d="M229.977 200.964C229.475 199.483 229.219 198.148 229.347 197.079C230.059 191.211 231.128 184.812 231.128 184.812" stroke="#16215B" stroke-linecap="round" stroke-linejoin="round"/>
<path d="M185.48 207.856C185.644 201.503 185.919 196.293 186.339 193.34C188.294 179.648 190.423 151.55 190.423 151.55C188.294 151.02 184.384 154.749 184.384 154.749C184.384 154.749 163.405 160.791 161.632 162.573C160.801 163.405 160.673 177.061 160.764 191.339C167.261 198.907 175.776 204.693 185.48 207.846V207.856Z" fill="white" stroke="#16215B" stroke-linecap="round" stroke-linejoin="round"/>
<path d="M184.383 154.749C184.383 154.749 182.072 162.93 179.943 169.867C177.814 176.805 177.275 180.534 177.275 180.534C177.275 180.534 179.404 177.509 182.611 179.821C185.809 182.134 187.764 184.09 187.764 184.09L190.779 151.568C190.779 151.568 186.521 151.02 184.393 154.749H184.383Z" fill="white" stroke="#16215B" stroke-linecap="round" stroke-linejoin="round"/>
<path d="M156.733 203.338C168.847 200.337 176.235 188.08 173.235 175.962C170.235 163.844 157.983 156.453 145.87 159.455C133.756 162.456 126.368 174.712 129.368 186.83C132.368 198.948 144.62 206.339 156.733 203.338Z" fill="#16215B" stroke="#16215B" stroke-miterlimit="10"/>
<path d="M155.916 200.035C166.208 197.487 172.486 187.075 169.939 176.78C167.392 166.484 156.985 160.203 146.693 162.751C136.402 165.299 130.123 175.711 132.67 186.006C135.217 196.302 145.625 202.583 155.916 200.035Z" fill="#0E33CA" stroke="#16215B" stroke-linecap="round" stroke-linejoin="round"/>
<path d="M161.623 179.767C162.592 180.169 163.323 180.745 163.323 181.787C163.323 182.765 162.848 183.496 161.824 183.908C161.925 183.981 161.989 184.045 162.071 184.1C162.574 184.401 162.893 184.831 163.094 185.343C163.515 186.458 162.638 187.801 161.386 187.975C161.011 188.03 160.627 188.048 160.189 188.094C160.308 188.176 160.39 188.222 160.463 188.277C161.459 188.907 161.468 190.196 160.49 190.854C160.189 191.055 159.887 191.174 159.494 191.165C156.717 191.129 153.939 191.119 151.162 191.083C149.097 191.055 147.059 190.781 145.031 190.397C143.55 190.123 142.043 189.995 140.535 189.968C140.27 189.968 139.996 189.949 139.74 189.904C139.338 189.84 139.229 189.721 139.229 189.337C139.229 187.034 139.21 184.739 139.21 182.436C139.21 181.494 139.247 180.544 139.265 179.602C139.274 179.228 139.411 179.054 139.804 179.017C140.49 178.944 141.175 178.926 141.869 178.88C142.253 178.853 142.646 178.825 143.03 178.789C143.496 178.752 143.889 178.551 144.227 178.259C145.022 177.573 145.643 176.76 146.218 175.919C146.849 175.014 147.434 174.072 148.082 173.186C148.53 172.573 149.033 171.997 149.544 171.431C150.257 170.636 150.696 169.74 150.924 168.725C151.116 167.866 151.335 167.007 151.545 166.148C151.582 166.01 151.618 165.882 151.673 165.754C151.893 165.188 152.322 164.968 152.934 165.142C154.058 165.471 154.743 166.202 155.017 167.263C155.273 168.241 155.154 169.21 154.88 170.16C154.551 171.294 154.158 172.418 153.802 173.542C153.683 173.908 153.574 174.273 153.501 174.639C153.409 175.087 153.565 175.27 154.049 175.279C155.438 175.306 156.826 175.315 158.215 175.334C159.156 175.352 160.098 175.389 161.029 175.398C162.272 175.407 163.56 176.805 163.012 178.359C162.811 178.935 162.427 179.383 161.834 179.639C161.77 179.666 161.715 179.703 161.623 179.749V179.767Z" fill="white" stroke="#16215B" stroke-linecap="round" stroke-linejoin="round"/>
<path d="M149.791 32.5311V30.7121C149.791 30.1728 149.353 29.7341 148.823 29.7341H147.416C147.206 28.8018 146.831 27.9243 146.338 27.1382L147.333 26.1419C147.717 25.758 147.717 25.1455 147.333 24.7616L146.045 23.4728C145.661 23.0889 145.049 23.0889 144.666 23.4728L143.67 24.4691C142.884 23.9756 142.007 23.6099 141.075 23.3906V21.9829C141.075 21.4436 140.636 21.0049 140.106 21.0049H138.288C137.749 21.0049 137.31 21.4436 137.31 21.9829V23.3906C136.378 23.6008 135.501 23.9756 134.715 24.4691L133.719 23.4728C133.336 23.0889 132.724 23.0889 132.34 23.4728L131.051 24.7616C130.668 25.1455 130.668 25.758 131.051 26.1419L132.047 27.1382C131.554 27.9243 131.189 28.8018 130.969 29.7341H129.562C129.023 29.7341 128.584 30.1728 128.584 30.7121V32.5311C128.584 33.0704 129.023 33.5 129.562 33.5H130.969C131.179 34.4323 131.554 35.3098 132.047 36.0959L131.051 37.0922C130.668 37.4761 130.668 38.0885 131.051 38.4724L132.34 39.7613C132.724 40.1452 133.336 40.1452 133.719 39.7613L134.715 38.7649C135.501 39.2585 136.378 39.6241 137.31 39.8435V41.2512C137.31 41.7904 137.749 42.2292 138.288 42.2292H140.106C140.645 42.2292 141.075 41.7904 141.075 41.2512V39.8435C142.007 39.6333 142.884 39.2585 143.67 38.7649L144.666 39.7613C145.049 40.1452 145.661 40.1452 146.045 39.7613L147.333 38.4724C147.717 38.0885 147.717 37.4761 147.333 37.0922L146.338 36.0959C146.831 35.3098 147.196 34.4323 147.416 33.5H148.823C149.362 33.5 149.791 33.0612 149.791 32.5311ZM139.622 35.7668C136.99 36.0319 134.798 33.829 135.053 31.1966C135.245 29.2496 136.826 27.6683 138.772 27.4764C141.404 27.2113 143.596 29.4142 143.341 32.0466C143.149 33.9936 141.568 35.5749 139.622 35.7668Z" fill="#16215B"/>
<path d="M15.9714 126.551V125.179C15.9714 124.777 15.6425 124.448 15.2404 124.448H14.1805C14.0161 123.744 13.742 123.086 13.3674 122.492L14.1166 121.743C14.3998 121.459 14.3998 120.993 14.1166 120.701L13.1481 119.732C12.8648 119.448 12.3988 119.448 12.1065 119.732L11.3572 120.481C10.7633 120.107 10.1055 119.832 9.40192 119.668V118.607C9.40192 118.205 9.07299 117.876 8.67096 117.876H7.30042C6.8984 117.876 6.56947 118.205 6.56947 118.607V119.668C5.86592 119.832 5.20806 120.107 4.61416 120.481L3.86493 119.732C3.58168 119.448 3.1157 119.448 2.82332 119.732L1.8548 120.701C1.57156 120.984 1.57156 121.45 1.8548 121.743L2.60403 122.492C2.22942 123.086 1.95531 123.744 1.79084 124.448H0.730956C0.32893 124.448 0 124.777 0 125.179V126.551C0 126.953 0.32893 127.282 0.730956 127.282H1.79084C1.95531 127.986 2.22942 128.644 2.60403 129.238L1.8548 129.987C1.57156 130.271 1.57156 130.737 1.8548 131.029L2.82332 131.998C3.10656 132.282 3.57255 132.282 3.86493 131.998L4.61416 131.249C5.20806 131.624 5.86592 131.898 6.56947 132.062V133.123C6.56947 133.525 6.8984 133.854 7.30042 133.854H8.67096C9.07299 133.854 9.40192 133.525 9.40192 133.123V132.062C10.1055 131.898 10.7633 131.624 11.3572 131.249L12.1065 131.998C12.3897 132.282 12.8557 132.282 13.1481 131.998L14.1166 131.029C14.3998 130.746 14.3998 130.28 14.1166 129.987L13.3674 129.238C13.742 128.644 14.0161 127.986 14.1805 127.282H15.2404C15.6425 127.282 15.9714 126.953 15.9714 126.551ZM8.30549 128.991C6.32277 129.192 4.66898 127.538 4.86086 125.545C5.00705 124.073 6.19485 122.885 7.6659 122.739C9.64862 122.538 11.3024 124.192 11.1105 126.185C10.9643 127.657 9.77653 128.845 8.30549 128.991Z" fill="#16215B"/>
<path d="M175.439 85.7017V84.3306C175.439 83.9284 175.11 83.5994 174.708 83.5994H173.648C173.483 82.8956 173.209 82.2374 172.835 81.6433L173.584 80.8938C173.867 80.6104 173.867 80.1443 173.584 79.8518L172.615 78.8829C172.332 78.5995 171.866 78.5995 171.574 78.8829L170.825 79.6324C170.231 79.2576 169.573 78.9834 168.869 78.8189V77.7586C168.869 77.3564 168.54 77.0273 168.138 77.0273H166.768C166.366 77.0273 166.037 77.3564 166.037 77.7586V78.8189C165.333 78.9834 164.675 79.2576 164.081 79.6324L163.332 78.8829C163.049 78.5995 162.583 78.5995 162.291 78.8829L161.322 79.8518C161.039 80.1351 161.039 80.6013 161.322 80.8938L162.071 81.6433C161.697 82.2374 161.423 82.8956 161.258 83.5994H160.198C159.796 83.5994 159.467 83.9284 159.467 84.3306V85.7017C159.467 86.1039 159.796 86.433 160.198 86.433H161.258C161.423 87.1368 161.697 87.7949 162.071 88.389L161.322 89.1385C161.039 89.4219 161.039 89.8881 161.322 90.1806L162.291 91.1495C162.574 91.4328 163.04 91.4328 163.332 91.1495L164.081 90.3999C164.675 90.7747 165.333 91.0489 166.037 91.2135V92.2737C166.037 92.6759 166.366 93.005 166.768 93.005H168.138C168.54 93.005 168.869 92.6759 168.869 92.2737V91.2135C169.573 91.0489 170.231 90.7747 170.825 90.3999L171.574 91.1495C171.857 91.4328 172.323 91.4328 172.615 91.1495L173.584 90.1806C173.867 89.8972 173.867 89.431 173.584 89.1385L172.835 88.389C173.209 87.7949 173.483 87.1368 173.648 86.433H174.708C175.11 86.433 175.439 86.1039 175.439 85.7017ZM167.773 88.1422C165.79 88.3433 164.136 86.6889 164.328 84.6963C164.474 83.2246 165.662 82.0364 167.133 81.8901C169.116 81.6982 170.77 83.3435 170.578 85.3361C170.432 86.8077 169.244 87.996 167.773 88.1422Z" fill="#16215B"/>
<path d="M71.3688 4.4423V3.73848C71.3688 3.52824 71.2043 3.36372 70.9941 3.36372H70.4551C70.3728 3.00723 70.2267 2.66903 70.0439 2.35826L70.4277 1.97435C70.5739 1.82811 70.5739 1.59045 70.4277 1.4442L69.9343 0.950615C69.7881 0.804367 69.5505 0.804367 69.4043 0.950615L69.0206 1.33452C68.7191 1.14257 68.381 1.00546 68.0155 0.923194V0.374762C68.0155 0.16453 67.851 0 67.6409 0H66.9373C66.7272 0 66.5627 0.16453 66.5627 0.374762V0.914053C66.2064 0.996318 65.8683 1.14257 65.5577 1.32538L65.1739 0.941475C65.0277 0.795226 64.7902 0.795226 64.644 0.941475L64.1506 1.43506C64.0044 1.58131 64.0044 1.81897 64.1506 1.96521L64.5343 2.34912C64.3425 2.65075 64.2054 2.98895 64.1232 3.35457H63.5841C63.3739 3.35457 63.2095 3.5191 63.2095 3.72934V4.43316C63.2095 4.64339 63.3739 4.80792 63.5841 4.80792H64.1232C64.2054 5.1644 64.3516 5.5026 64.5343 5.81338L64.1506 6.19728C64.0044 6.34353 64.0044 6.58118 64.1506 6.72743L64.644 7.22102C64.7902 7.36727 65.0277 7.36727 65.1739 7.22102L65.5577 6.83712C65.8592 7.02907 66.1973 7.16618 66.5627 7.24844V7.78773C66.5627 7.99796 66.7272 8.16249 66.9373 8.16249H67.6409C67.851 8.16249 68.0155 7.99796 68.0155 7.78773V7.24844C68.3719 7.16618 68.7099 7.01993 69.0206 6.83712L69.4043 7.22102C69.5505 7.36727 69.7881 7.36727 69.9343 7.22102L70.4277 6.72743C70.5739 6.58118 70.5739 6.34353 70.4277 6.19728L70.0439 5.81338C70.2358 5.51174 70.3728 5.17354 70.4551 4.80792H70.9941C71.2043 4.80792 71.3688 4.64339 71.3688 4.43316V4.4423ZM67.4399 5.68541C66.4257 5.78596 65.5759 4.93589 65.6764 3.92129C65.7495 3.17176 66.3617 2.55935 67.1109 2.48622C68.1251 2.38568 68.9749 3.23575 68.8744 4.25035C68.8013 4.99987 68.1891 5.61229 67.4399 5.68541Z" fill="#16215B"/>
<path d="M7.10873 54.4502H2.58594V58.9748H7.10873V54.4502ZM3.49963 55.3642H6.19503V58.0607H3.49963V55.3642Z" fill="#16215B"/>
<path d="M170.733 134.841H166.21V139.366H170.733V134.841ZM167.124 135.755H169.82V138.452H167.124V135.755Z" fill="#16215B"/>
<path d="M100.634 9.84424H96.1113V14.3688H100.634V9.84424ZM97.025 10.7583H99.7204V13.4547H97.025V10.7583Z" fill="#16215B"/>
<path d="M19.5711 137.83H15.0483V142.355H19.5711V137.83ZM15.962 138.744H18.6574V141.441H15.962V138.744Z" fill="#16215B"/>
<path opacity="0.9" d="M115.199 41.1323C113.7 41.1323 112.485 42.348 112.485 43.8471C112.485 45.3461 113.7 46.5618 115.199 46.5618C116.697 46.5618 117.912 45.3461 117.912 43.8471C117.912 42.348 116.697 41.1323 115.199 41.1323ZM115.199 45.4832C114.294 45.4832 113.572 44.752 113.572 43.8562C113.572 42.9604 114.303 42.2292 115.199 42.2292C116.094 42.2292 116.825 42.9604 116.825 43.8562C116.825 44.752 116.094 45.4832 115.199 45.4832Z" fill="#16215B"/>
<path d="M66.8458 53.92L60.7606 45.4833C63.0814 45.4833 64.9728 43.5821 64.9728 41.2695V18.3085C64.9728 15.9868 63.0723 14.0947 60.7606 14.0947H7.8303C5.50951 14.0947 3.61816 15.996 3.61816 18.3085V41.2695C3.61816 43.5912 5.51865 45.4833 7.8303 45.4833H53.5973L66.8458 53.92Z" fill="#16215B"/>
<path d="M21.2157 28.8476C21.2157 27.4217 20.0645 26.27 18.6391 26.27C17.2138 26.27 16.0625 27.4217 16.0625 28.8476C16.0625 30.2736 17.2138 31.4253 18.6391 31.4253C20.0645 31.4253 21.2157 30.2736 21.2157 28.8476Z" fill="white"/>
<path d="M36.4379 28.8476C36.4379 27.4217 35.2867 26.27 33.8613 26.27C32.4359 26.27 31.2847 27.4217 31.2847 28.8476C31.2847 30.2736 32.4359 31.4253 33.8613 31.4253C35.2867 31.4253 36.4379 30.2736 36.4379 28.8476Z" fill="white"/>
<path d="M51.6601 28.8476C51.6601 27.4217 50.5088 26.27 49.0835 26.27C47.6581 26.27 46.5068 27.4217 46.5068 28.8476C46.5068 30.2736 47.6581 31.4253 49.0835 31.4253C50.5088 31.4253 51.6601 30.2736 51.6601 28.8476Z" fill="white"/>
<mask id="mask0_692_925" style="mask-type:luminance" maskUnits="userSpaceOnUse" x="17" y="26" width="137" height="138">
<path d="M85.385 163.323C123.146 163.323 153.757 132.7 153.757 94.9245C153.757 57.149 123.146 26.5259 85.385 26.5259C47.6243 26.5259 17.0132 57.149 17.0132 94.9245C17.0132 132.7 47.6243 163.323 85.385 163.323Z" fill="white"/>
</mask>
<g mask="url(#mask0_692_925)">
<mask id="mask1_692_925" style="mask-type:luminance" maskUnits="userSpaceOnUse" x="18" y="34" width="134" height="139">
<path d="M151.975 34.3228H18.3291V172.482H151.975V34.3228Z" fill="white"/>
</mask>
<g mask="url(#mask1_692_925)">
<path d="M98.2865 126.925C109.454 126.925 118.507 115.397 118.507 101.177C118.507 86.9559 109.454 75.4277 98.2865 75.4277C87.1192 75.4277 78.0664 86.9559 78.0664 101.177C78.0664 115.397 87.1192 126.925 98.2865 126.925Z" fill="#16215B" stroke="#16215B" stroke-width="0.83" stroke-linecap="round" stroke-linejoin="round"/>
<path d="M61.6563 107.648C61.6563 107.648 44.7529 158.497 44.7529 159.758C44.7529 161.02 49.7874 166.678 52.9305 166.367C56.0736 166.056 61.7385 162.592 61.7385 162.592L67.3943 112.886L61.6563 107.648Z" stroke="#16215B" stroke-width="0.83" stroke-linecap="round" stroke-linejoin="round"/>
<path d="M95.198 100.939L61.6562 107.648L67.0288 173.762H132.449L141.157 104.961L101.238 100.601L95.198 100.939Z" fill="#0E33CA"/>
<mask id="mask2_692_925" style="mask-type:luminance" maskUnits="userSpaceOnUse" x="61" y="100" width="81" height="74">
<path d="M95.198 100.939L61.6562 107.648L67.0288 173.762H132.449L141.157 104.961L101.238 100.601L95.198 100.939Z" fill="white"/>
</mask>
<g mask="url(#mask2_692_925)">
<path opacity="0.3" d="M67.0289 173.762H132.449L134.085 160.819L133.966 160.188L118.178 163.634L125.067 134.64L87.185 151.285L78.0024 160.471H83.7404L66.8462 171.595L67.0289 173.762Z" fill="black"/>
</g>
<path d="M95.198 100.939L61.6562 107.648L67.0288 173.762H132.449L141.157 104.961L101.238 100.601L95.198 100.939Z" stroke="#16215B" stroke-width="0.83" stroke-linecap="round" stroke-linejoin="round"/>
<path d="M91.6349 97.2095C91.6349 97.2095 86.1893 100.18 84.8461 102.868C83.503 105.555 77.7559 125.435 77.7559 125.435L87.1486 127.446L78.0939 131.806L91.7994 171.074L113.609 169.731L127.753 128.452L119.027 124.759L126.739 121.405C126.739 121.405 119.356 107.31 115.336 101.268C111.307 95.226 91.644 97.2095 91.644 97.2095H91.6349Z" fill="#0E33CA" stroke="#16215B" stroke-width="0.83" stroke-linecap="round" stroke-linejoin="round"/>
<path d="M90.7847 174.438L90.5015 105.299L108.62 103.626L113.938 173.762L90.7847 174.438Z" fill="white" stroke="#16215B" stroke-width="0.83" stroke-linecap="round" stroke-linejoin="round"/>
<path d="M87.8153 87.1826C87.8153 87.1826 90.1635 100.272 90.5016 103.626C90.8396 106.981 99.5106 130.82 102.096 126.926C104.929 122.684 108.282 109.33 108.949 106.305C109.616 103.288 109.616 90.199 109.616 90.199C109.616 90.199 100.89 96.2409 87.8062 87.1826H87.8153Z" fill="white"/>
<mask id="mask3_692_925" style="mask-type:luminance" maskUnits="userSpaceOnUse" x="87" y="87" width="23" height="41">
<path d="M87.8153 87.1826C87.8153 87.1826 90.1635 100.272 90.5016 103.626C90.8396 106.981 99.5106 130.82 102.096 126.926C104.929 122.684 108.282 109.33 108.949 106.305C109.616 103.288 109.616 90.199 109.616 90.199C109.616 90.199 100.89 96.2409 87.8062 87.1826H87.8153Z" fill="white"/>
</mask>
<g mask="url(#mask3_692_925)">
<path d="M109.497 98.9008C109.625 94.6047 109.625 90.199 109.625 90.199C109.625 90.199 100.9 96.2409 87.8154 87.1826C87.8154 87.1826 88.7839 92.5664 89.5606 97.3195C91.3514 99.6137 94.7504 103.215 98.9534 103.892C103.275 104.586 106.756 102.292 109.488 98.9099L109.497 98.9008Z" fill="#0E33CA"/>
<path opacity="0.5" d="M109.497 98.9008C109.625 94.6047 109.625 90.199 109.625 90.199C109.625 90.199 100.9 96.2409 87.8154 87.1826C87.8154 87.1826 88.7839 92.5664 89.5606 97.3195C91.3514 99.6137 94.7504 103.215 98.9534 103.892C103.275 104.586 106.756 102.292 109.488 98.9099L109.497 98.9008Z" fill="white"/>
</g>
<path d="M87.8153 87.1826C87.8153 87.1826 90.1635 100.272 90.5016 103.626C90.8396 106.981 99.5106 130.82 102.096 126.926C104.929 122.684 108.282 109.33 108.949 106.305C109.616 103.288 109.616 90.199 109.616 90.199C109.616 90.199 100.89 96.2409 87.8062 87.1826H87.8153Z" stroke="#16215B" stroke-width="0.83" stroke-linecap="round" stroke-linejoin="round"/>
<path d="M116.67 74.0933C116.67 74.0933 120.361 69.3951 120.361 74.7606C120.361 80.126 116.67 80.8024 116.67 80.8024V74.0933Z" fill="white" stroke="#16215B" stroke-width="0.83" stroke-linecap="round" stroke-linejoin="round"/>
<path d="M80.104 63.0148C80.104 63.0148 84.4623 82.7949 84.4623 85.5005C84.4623 91.1951 95.1982 97.5843 99.8946 98.928C104.591 100.272 115.994 89.8697 116.67 87.1824C117.346 84.4951 117.675 61.0039 116.332 56.3057C114.989 51.6074 107.277 48.5911 102.243 48.5911C97.2084 48.5911 82.4522 51.2784 80.104 63.024V63.0148Z" fill="white"/>
<mask id="mask4_692_925" style="mask-type:luminance" maskUnits="userSpaceOnUse" x="80" y="48" width="38" height="52">
<path d="M80.104 63.0148C80.104 63.0148 84.4623 82.7949 84.4623 85.5005C84.4623 91.1951 95.1982 97.5843 99.8946 98.928C104.591 100.272 115.994 89.8697 116.67 87.1824C117.346 84.4951 117.675 61.0039 116.332 56.3057C114.989 51.6074 107.277 48.5911 102.243 48.5911C97.2084 48.5911 82.4522 51.2784 80.104 63.024V63.0148Z" fill="white"/>
</mask>
<g mask="url(#mask4_692_925)">
<path d="M102.243 48.582C97.2084 48.582 82.4522 51.2693 80.104 63.0149C80.104 63.0149 82.7172 74.8519 83.8958 81.4605C83.9232 78.4441 84.4258 72.6125 87.6968 70.0714C92.2013 66.5614 99.7119 66.0678 103.97 64.0569C108.228 62.0551 109.223 56.7902 109.223 56.7902C109.223 56.7902 109.47 66.0587 111.48 68.3073C113.481 70.565 115.482 72.064 115.738 76.0676C115.994 80.0711 116.743 84.0838 114.733 87.3379C112.732 90.5919 104.472 96.8531 100.717 98.1054C100.141 98.2973 99.584 98.471 99.0449 98.6264C99.3464 98.7361 99.6388 98.8275 99.9038 98.9006C104.6 100.244 116.003 89.8424 116.679 87.155C117.355 84.4677 117.684 60.9766 116.341 56.2783C114.998 51.5801 107.286 48.5637 102.252 48.5637L102.243 48.582Z" fill="#0E33CA"/>
<path d="M95.2713 96.9355C93.4439 95.0982 88.4186 89.9887 86.1892 87.3562C85.3121 86.3142 84.7638 85.5372 84.4258 84.9431C84.4441 85.1625 84.4623 85.3636 84.4623 85.5007C84.4623 89.7053 90.3191 94.2847 95.2713 96.9355Z" fill="#0E33CA"/>
<g opacity="0.5">
<path d="M102.243 48.582C97.2084 48.582 82.4522 51.2693 80.104 63.0149C80.104 63.0149 82.7172 74.8519 83.8958 81.4605C83.9232 78.4441 84.4258 72.6125 87.6968 70.0714C92.2013 66.5614 99.7119 66.0678 103.97 64.0569C108.228 62.0551 109.223 56.7902 109.223 56.7902C109.223 56.7902 109.47 66.0587 111.48 68.3073C113.481 70.565 115.482 72.064 115.738 76.0676C115.994 80.0711 116.743 84.0838 114.733 87.3379C112.732 90.5919 104.472 96.8531 100.717 98.1054C100.141 98.2973 99.584 98.471 99.0449 98.6264C99.3464 98.7361 99.6388 98.8275 99.9038 98.9006C104.6 100.244 116.003 89.8424 116.679 87.155C117.355 84.4677 117.684 60.9766 116.341 56.2783C114.998 51.5801 107.286 48.5637 102.252 48.5637L102.243 48.582Z" fill="white"/>
<path d="M95.2713 96.9355C93.4439 95.0982 88.4186 89.9887 86.1892 87.3562C85.3121 86.3142 84.7638 85.5372 84.4258 84.9431C84.4441 85.1625 84.4623 85.3636 84.4623 85.5007C84.4623 89.7053 90.3191 94.2847 95.2713 96.9355Z" fill="white"/>
</g>
</g>
<path d="M80.104 63.0148C80.104 63.0148 84.4623 82.7949 84.4623 85.5005C84.4623 91.1951 95.1982 97.5843 99.8946 98.928C104.591 100.272 115.994 89.8697 116.67 87.1824C117.346 84.4951 117.675 61.0039 116.332 56.3057C114.989 51.6074 107.277 48.5911 102.243 48.5911C97.2084 48.5911 82.4522 51.2784 80.104 63.024V63.0148Z" stroke="#16215B" stroke-width="0.83" stroke-linecap="round" stroke-linejoin="round"/>
<path d="M97.4825 75.1625C97.4825 76.104 97.0622 76.8627 96.5323 76.8627C96.0023 76.8627 95.582 76.104 95.582 75.1625C95.582 74.2211 96.0023 73.4624 96.5323 73.4624C97.0622 73.4624 97.4825 74.2211 97.4825 75.1625Z" fill="#16215B"/>
<path d="M108.52 75.1625C108.52 76.104 108.1 76.8627 107.57 76.8627C107.04 76.8627 106.62 76.104 106.62 75.1625C106.62 74.2211 107.04 73.4624 107.57 73.4624C108.1 73.4624 108.52 74.2211 108.52 75.1625Z" fill="#16215B"/>
<path d="M104.399 73.1423C104.399 73.1423 103.394 76.4146 104.399 77.4201C105.404 78.4256 107.67 77.9228 107.423 79.1842C107.168 80.4456 103.394 81.9538 103.394 81.9538" stroke="#16215B" stroke-width="0.83" stroke-linecap="round" stroke-linejoin="round"/>
<path d="M102.882 86.4967C102.882 86.4967 98.3505 88.2609 96.3403 85.2354" stroke="#16215B" stroke-width="0.83" stroke-linecap="round" stroke-linejoin="round"/>
<path d="M93.0693 72.137C93.0693 72.137 94.3302 68.8646 98.1038 70.3728" stroke="#16215B" stroke-width="0.83" stroke-linecap="round" stroke-linejoin="round"/>
<path d="M104.902 70.6288C104.902 70.6288 106.757 67.6215 109.278 70.8938" stroke="#16215B" stroke-width="0.83" stroke-linecap="round" stroke-linejoin="round"/>
<path d="M118.013 51.2694C114.696 47.476 111.215 47.7046 109.095 48.5181C106.254 43.7467 96.8884 39.9442 84.8002 44.5511C70.711 49.9166 72.3831 64.3495 73.0592 67.0368C73.7262 69.7241 78.4226 76.7714 81.4469 77.1005C81.4469 77.1005 84.1332 74.7514 84.1332 72.4023C84.1332 70.0531 90.5108 65.3549 96.8792 63.344C100.89 62.0735 105.294 59.7426 107.844 56.772C107.844 58.3167 108.109 60.5561 109.287 62.3385C111.297 65.3549 114.322 67.0368 114.322 68.0422C114.322 69.0477 116.003 72.7405 117.337 72.7405C118.671 72.7405 118.68 67.375 119.018 65.0259C119.356 62.6767 122.709 56.6348 118.013 51.2694Z" fill="#16215B" stroke="#16215B" stroke-width="0.83" stroke-linecap="round" stroke-linejoin="round"/>
<path d="M80.9809 65.5286C79.7017 66.3055 78.8337 67.2196 78.6235 68.353" stroke="white" stroke-width="0.83" stroke-linecap="round" stroke-linejoin="round"/>
<path d="M106.628 53.3535C106.628 53.3535 103.238 58.7281 97.007 60.7116C93.1969 61.9273 87.4772 62.8231 83.4204 64.3679" stroke="white" stroke-width="0.83" stroke-linecap="round" stroke-linejoin="round"/>
<path d="M103.796 51.9365C103.796 51.9365 97.5737 56.1777 90.5017 56.7444C83.4297 57.3112 78.6237 55.8944 77.4907 57.5945" stroke="white" stroke-width="0.83" stroke-linecap="round" stroke-linejoin="round"/>
<path d="M118.013 58.6731C118.178 59.5414 118.26 60.5012 118.223 61.5615" stroke="white" stroke-width="0.83" stroke-linecap="round" stroke-linejoin="round"/>
<path d="M111.435 51.0864C111.435 51.0864 115.921 52.3478 117.602 57.1466" stroke="white" stroke-width="0.83" stroke-linecap="round" stroke-linejoin="round"/>
<path d="M82.4336 82.4751C82.4336 82.4751 87.6965 89.5224 90.5472 91.0306C93.3979 92.5388 98.807 90.4639 98.807 90.4639" stroke="#16215B" stroke-width="0.83" stroke-linecap="round" stroke-linejoin="round"/>
<path d="M100.68 90.528C100.68 91.2227 99.8304 91.7894 98.7888 91.7894C97.7472 91.7894 96.8975 91.2227 96.8975 90.528C96.8975 89.8333 97.7472 89.2666 98.7888 89.2666C99.8304 89.2666 100.68 89.8333 100.68 90.528Z" fill="#16215B"/>
<path d="M79.4735 72.8775C79.4735 72.8775 73.2512 56.7445 79.4735 47.1287C79.4735 47.1287 69.8523 57.037 78.3405 75.1444L79.4735 72.8775Z" fill="white"/>
<path d="M83.8138 78.0969C84.3803 81.8811 83.3478 85.1717 81.5022 85.4459C79.6565 85.7201 77.7012 82.8774 77.1347 79.1024C76.5682 75.3182 77.6007 72.0276 79.4463 71.7534C81.292 71.4792 83.2473 74.3219 83.8138 78.0969Z" fill="white" stroke="#16215B" stroke-width="0.83" stroke-linecap="round" stroke-linejoin="round"/>
<path d="M80.4412 85.3455C82.0829 85.0986 82.9528 81.8309 82.3841 78.0469C81.8155 74.2629 80.0236 71.3956 78.3818 71.6425C76.7401 71.8894 75.8702 75.1571 76.4389 78.9411C77.0075 82.7251 78.7994 85.5925 80.4412 85.3455Z" fill="white" stroke="#16215B" stroke-width="0.83" stroke-linecap="round" stroke-linejoin="round"/>
<path d="M141.157 104.961L149.901 174.1L132.449 173.762L141.157 104.961Z" fill="#0E33CA"/>
<mask id="mask5_692_925" style="mask-type:luminance" maskUnits="userSpaceOnUse" x="132" y="104" width="18" height="71">
<path d="M141.157 104.961L149.901 174.1L132.449 173.762L141.157 104.961Z" fill="white"/>
</mask>
<g mask="url(#mask5_692_925)">
<path opacity="0.3" d="M145.926 142.675L136.835 148.132L136.99 137.913L132.449 173.762L149.901 174.1L148.475 162.811L140.855 163.058L147.617 156.029L147.562 155.563L138.269 158.753L146.675 148.561L145.926 142.675Z" fill="black"/>
</g>
<path d="M141.157 104.961L149.901 174.1L132.449 173.762L141.157 104.961Z" stroke="#16215B" stroke-width="0.83" stroke-linecap="round" stroke-linejoin="round"/>
<path d="M78.6877 84.5773C78.6877 84.5773 81.2643 83.6724 81.8217 84.6687C82.379 85.6651 83.0369 90.0068 83.0186 90.5918C83.0003 91.1768 82.7902 91.7618 81.6207 91.3322C80.4511 90.9026 78.6055 87.1184 78.6055 87.1184L78.6786 84.5682L78.6877 84.5773Z" fill="white" stroke="#16215B" stroke-width="0.83" stroke-linecap="round" stroke-linejoin="round"/>
<path d="M67.4125 98.2607C67.4125 98.2607 69.8064 82.8955 69.8521 81.2319C69.8977 79.5683 72.0997 78.1698 73.187 77.7859C74.2743 77.402 80.3139 77.5757 80.9626 77.594C81.6113 77.6123 84.2062 77.4843 84.1788 78.3161C84.1514 79.1479 83.923 79.5592 81.7575 79.9157C79.592 80.2722 74.4023 80.5372 74.4023 80.5372L73.05 82.5847L79.4824 83.8187C79.4824 83.8187 80.9717 84.4859 80.725 85.5188C80.4783 86.5517 79.7017 91.122 79.6834 91.7435C79.6651 92.3651 79.0073 92.7673 77.4631 93.7636C75.919 94.7599 74.4114 94.9244 74.4114 94.9244C74.4114 94.9244 74.5393 98.0596 73.6622 98.4435C72.785 98.8366 71.4784 99.4216 71.4784 99.4216L71.1678 117.346L61.2725 116.222L67.4034 98.2607H67.4125Z" fill="white" stroke="#16215B" stroke-width="0.83" stroke-linecap="round" stroke-linejoin="round"/>
<path d="M80.2135 86.3871L72.4014 84.9795" stroke="#16215B" stroke-width="0.83" stroke-linecap="round" stroke-linejoin="round"/>
<path d="M72.8857 88.3342L79.3182 89.8973" stroke="#16215B" stroke-width="0.83" stroke-linecap="round" stroke-linejoin="round"/>
<path d="M74.4113 94.9154C74.4113 94.9154 73.3332 93.2518 73.9271 93.069C74.521 92.8862 75.9098 92.5388 75.9098 92.5388" stroke="#16215B" stroke-width="0.83" stroke-linecap="round" stroke-linejoin="round"/>
<path d="M62.168 106.972L72.8582 111.003C72.8582 111.003 65.4116 157.766 63.6117 161.431C61.8117 165.096 57.6361 169.365 52.2179 169.886C46.7997 170.407 42.9165 164.548 42.752 158.46C42.5875 152.373 62.1589 106.981 62.1589 106.981L62.168 106.972Z" fill="#0E33CA"/>
<mask id="mask6_692_925" style="mask-type:luminance" maskUnits="userSpaceOnUse" x="42" y="106" width="31" height="64">
<path d="M62.168 106.972L72.8582 111.003C72.8582 111.003 65.4116 157.766 63.6117 161.431C61.8117 165.096 57.6361 169.365 52.2179 169.886C46.7997 170.407 42.9165 164.548 42.752 158.46C42.5875 152.373 62.1589 106.981 62.1589 106.981L62.168 106.972Z" fill="white"/>
</mask>
<g mask="url(#mask6_692_925)">
<path opacity="0.3" d="M53.3236 146.12C50.5276 147.565 47.7135 148.625 45.1917 149.384C44.2323 152.171 43.4922 154.548 43.0902 156.257C44.5612 156.065 46.2607 155.837 48.1612 155.59C54.758 154.731 58.7783 153.296 58.7783 153.296C58.7783 153.296 50.4545 158.46 42.9988 159.329C42.9348 159.329 42.8892 159.347 42.8252 159.347C43.3186 165.105 47.0739 170.379 52.2363 169.886C57.6545 169.365 61.8392 165.096 63.63 161.431C64.5072 159.63 66.7549 147.455 68.8107 135.508C68.6097 135.682 61.5377 141.87 53.3327 146.111L53.3236 146.12Z" fill="black"/>
</g>
<path d="M62.168 106.972L72.8582 111.003C72.8582 111.003 65.4116 157.766 63.6117 161.431C61.8117 165.096 57.6361 169.365 52.2179 169.886C46.7997 170.407 42.9165 164.548 42.752 158.46C42.5875 152.373 62.1589 106.981 62.1589 106.981L62.168 106.972Z" stroke="#16215B" stroke-width="0.83" stroke-linecap="round" stroke-linejoin="round"/>
</g>
</g>
<path d="M85.385 163.323C123.146 163.323 153.757 132.7 153.757 94.9245C153.757 57.149 123.146 26.5259 85.385 26.5259C47.6243 26.5259 17.0132 57.149 17.0132 94.9245C17.0132 132.7 47.6243 163.323 85.385 163.323Z" stroke="#16215B" stroke-width="1.06" stroke-miterlimit="10"/>
</g>
<defs>
<clipPath id="clip0_692_925">
<rect width="258" height="211" fill="white"/>
</clipPath>
</defs>
</svg>
